<!--
  - Copyright (c) 2022 NetEase, Inc. All rights reserved.
  - Use of this source code is governed by a MIT license that can be
  - found in the LICENSE file.
  -->

<svg width="40" height="40" viewBox="0 0 40 40" fill="none" xmlns="http://www.w3.org/2000/svg">
<circle cx="20" cy="20" r="20" fill="#337EFF"/>
<path d="M18.0963 10.2991L18.1632 10.3597L22.1407 14.3372C22.3128 14.5071 22.4125 14.737 22.4191 14.9787C22.4256 15.2205 22.3385 15.4554 22.176 15.6344C22.0134 15.8135 21.7879 15.9228 21.5467 15.9395C21.3054 15.9562 21.067 15.879 20.8813 15.7241L20.8144 15.6634L18.4369 13.2859L18.4376 22.9172C19.2629 21.8409 20.3197 20.9639 21.5298 20.3511C22.7398 19.7384 24.0721 19.4055 25.4282 19.3772L25.6251 19.3753H27.5001C27.7408 19.3754 27.9723 19.4682 28.1466 19.6343C28.3208 19.8005 28.4245 20.0273 28.436 20.2678C28.4476 20.5082 28.3662 20.744 28.2087 20.9261C28.0512 21.1082 27.8297 21.2227 27.5901 21.2459L27.5001 21.2503H25.6251C21.6557 21.2503 18.4376 24.4684 18.4376 28.4378V29.0628C18.4375 29.3036 18.3447 29.5351 18.1786 29.7093C18.0124 29.8836 17.7856 29.9872 17.5451 29.9988C17.3046 30.0103 17.0689 29.9289 16.8868 29.7715C16.7047 29.614 16.5902 29.3925 16.5669 29.1528L16.5626 29.0628L16.5619 13.2859L14.1857 15.6634C14.0209 15.8283 13.8006 15.9259 13.5677 15.9371C13.3349 15.9483 13.1062 15.8723 12.9263 15.7241L12.8594 15.6634C12.6946 15.4986 12.597 15.2783 12.5858 15.0455C12.5746 14.8126 12.6505 14.5839 12.7988 14.4041L12.8594 14.3372L16.8369 10.3597C17.0017 10.1948 17.2221 10.0973 17.4549 10.086C17.6878 10.0748 17.9164 10.1508 18.0963 10.2991Z" fill="white"/>
</svg>
