<svg width="16" height="16" viewBox="0 0 16 16" fill="none" xmlns="http://www.w3.org/2000/svg">
    <path
        d="M8 0C3.58238 0 0 3.58238 0 8C0 12.4176 3.58238 16 8 16C12.4176 16 16 12.4176 16 8C16 3.58238 12.4176 0 8 0ZM13.2529 5.03698L6.5184 11.7712C6.41112 11.8782 6.26584 11.9382 6.11438 11.9382C5.96291 11.9382 5.81763 11.8782 5.71035 11.7712L2.74715 8.80805C2.64962 8.69901 2.59755 8.55677 2.60163 8.41054C2.60571 8.26431 2.66563 8.12519 2.76909 8.02176C2.87254 7.91833 3.01167 7.85844 3.1579 7.8544C3.30413 7.85035 3.44636 7.90245 3.55538 8L6.11438 10.559L12.4446 4.22875C12.5537 4.13156 12.6958 4.07975 12.8418 4.08395C12.9879 4.08815 13.1268 4.14804 13.2301 4.25134C13.3334 4.35465 13.3933 4.49355 13.3975 4.63958C13.4017 4.78561 13.3499 4.92773 13.2527 5.0368L13.2529 5.03698Z"
        fill="#DBDDE4" />
</svg>
