<!--
  - Copyright (c) 2022 NetEase, Inc. All rights reserved.
  - Use of this source code is governed by a MIT license that can be
  - found in the LICENSE file.
  -->

<svg width="36" height="36" viewBox="0 0 36 36" fill="none" xmlns="http://www.w3.org/2000/svg">
    <circle cx="18" cy="18" r="18" fill="#60CFA7" />
    <path
        d="M18.0026 25.0056H10.5452V17.5193C10.5468 16.0398 10.9873 14.594 11.8109 13.3649C12.6345 12.1357 13.8042 11.1786 15.172 10.6144C16.5398 10.0503 18.0442 9.90463 19.4948 10.1958C20.9454 10.4869 22.277 11.2019 23.3212 12.2501C24.3654 13.2983 25.0751 14.6327 25.3607 16.0844C25.6462 17.5362 25.4947 19.04 24.9253 20.4056C24.3559 21.7712 23.3942 22.9371 22.1619 23.756C20.9296 24.5748 19.4821 25.0097 18.0026 25.0056ZM11.5822 23.9397H18.0026C19.2724 23.9397 20.5137 23.5632 21.5695 22.8577C22.6254 22.1522 23.4483 21.1495 23.9342 19.9763C24.4202 18.8031 24.5473 17.5122 24.2996 16.2668C24.0518 15.0213 23.4404 13.8773 22.5425 12.9794C21.6445 12.0815 20.5005 11.47 19.2551 11.2223C18.0097 10.9746 16.7188 11.1017 15.5456 11.5877C14.3724 12.0736 13.3697 12.8965 12.6642 13.9524C11.9587 15.0082 11.5822 16.2495 11.5822 17.5193V23.9397Z"
        fill="white" />
    <path
        d="M15.2133 19.4987C14.9164 19.4996 14.6258 19.4122 14.3786 19.2477C14.1313 19.0832 13.9384 18.8491 13.8244 18.5748C13.7104 18.3006 13.6804 17.9987 13.7381 17.7074C13.7958 17.4161 13.9387 17.1485 14.1487 16.9385C14.3587 16.7285 14.6263 16.5856 14.9176 16.5279C15.2089 16.4701 15.5108 16.5002 15.785 16.6142C16.0593 16.7282 16.2934 16.9211 16.4579 17.1684C16.6224 17.4156 16.7098 17.7062 16.709 18.0031C16.7079 18.3995 16.5499 18.7792 16.2697 19.0595C15.9894 19.3397 15.6097 19.4977 15.2133 19.4987ZM15.2133 17.5611C15.1257 17.5602 15.0399 17.5855 14.9666 17.6335C14.8934 17.6816 14.8361 17.7504 14.802 17.8311C14.7679 17.9118 14.7585 18.0008 14.7751 18.0868C14.7917 18.1728 14.8335 18.252 14.8952 18.3142C14.9568 18.3765 15.0356 18.419 15.1214 18.4364C15.2073 18.4538 15.2964 18.4453 15.3774 18.4119C15.4584 18.3786 15.5277 18.3219 15.5765 18.2492C15.6252 18.1764 15.6513 18.0907 15.6513 18.0031C15.6491 17.888 15.6022 17.7783 15.5204 17.6973C15.4386 17.6163 15.3285 17.5704 15.2133 17.5693V17.5611ZM20.6298 19.4987C20.3323 19.502 20.0406 19.4168 19.7917 19.2538C19.5428 19.0908 19.348 18.8575 19.2321 18.5835C19.1161 18.3095 19.0843 18.0073 19.1406 17.7152C19.1969 17.423 19.3389 17.1543 19.5484 16.943C19.7578 16.7318 20.0254 16.5876 20.3171 16.5289C20.6087 16.4701 20.9112 16.4994 21.1862 16.6131C21.4611 16.7267 21.696 16.9196 21.861 17.1671C22.0261 17.4146 22.1138 17.7056 22.113 18.0031C22.1119 18.3973 21.9557 18.7753 21.6781 19.0552C21.4005 19.335 21.0239 19.4944 20.6298 19.4987ZM20.6298 17.5611C20.5423 17.5611 20.4569 17.587 20.3842 17.6356C20.3115 17.6841 20.2548 17.7532 20.2213 17.834C20.1879 17.9147 20.1791 18.0036 20.1962 18.0894C20.2132 18.1751 20.2553 18.2539 20.3172 18.3157C20.379 18.3776 20.4578 18.4197 20.5435 18.4367C20.6293 18.4538 20.7182 18.445 20.7989 18.4116C20.8797 18.3781 20.9488 18.3214 20.9973 18.2487C21.0459 18.176 21.0718 18.0906 21.0718 18.0031C21.0697 17.8873 21.0221 17.777 20.9395 17.6959C20.8568 17.6147 20.7456 17.5693 20.6298 17.5693V17.5611Z"
        fill="white" />
</svg>
