<!--
  - Copyright (c) 2022 NetEase, Inc. All rights reserved.
  - Use of this source code is governed by a MIT license that can be
  - found in the LICENSE file.
  -->

<svg width="18" height="18" viewBox="0 0 18 18" fill="none" xmlns="http://www.w3.org/2000/svg">
    <g clip-path="url(#clip0_6378_15185)">
        <path
            d="M6.39474 0.000732422H16.3421C16.7818 0.000732428 17.2035 0.175403 17.5144 0.486319C17.8253 0.797234 18 1.21893 18 1.65863V11.606C18 12.0457 17.8253 12.4674 17.5144 12.7783C17.2035 13.0892 16.7818 13.2639 16.3421 13.2639H6.39474C5.95504 13.2639 5.53334 13.0892 5.22243 12.7783C4.91151 12.4674 4.73684 12.0457 4.73684 11.606V1.65863C4.73684 1.21893 4.91151 0.797234 5.22243 0.486319C5.53334 0.175403 5.95504 0.000732422 6.39474 0.000732422ZM6.39474 1.42179C6.33192 1.42179 6.27168 1.44674 6.22726 1.49115C6.18285 1.53557 6.1579 1.59581 6.1579 1.65863V11.606C6.1579 11.6371 6.16402 11.6679 6.17592 11.6966C6.18783 11.7254 6.20527 11.7515 6.22726 11.7735C6.24926 11.7955 6.27537 11.8129 6.3041 11.8248C6.33284 11.8367 6.36363 11.8428 6.39474 11.8428H16.3421C16.4049 11.8428 16.4652 11.8179 16.5096 11.7735C16.554 11.7291 16.5789 11.6688 16.5789 11.606V1.65863C16.5789 1.59581 16.554 1.53557 16.5096 1.49115C16.4652 1.44674 16.4049 1.42179 16.3421 1.42179H6.39474ZM11.8421 14.6849C11.8421 14.4965 11.917 14.3158 12.0502 14.1825C12.1835 14.0493 12.3642 13.9744 12.5526 13.9744C12.7411 13.9744 12.9218 14.0493 13.055 14.1825C13.1883 14.3158 13.2632 14.4965 13.2632 14.6849V16.3428C13.2632 16.7825 13.0885 17.2042 12.7776 17.5151C12.4667 17.8261 12.045 18.0007 11.6053 18.0007H1.65789C1.21819 18.0007 0.796502 17.8261 0.485586 17.5151C0.174671 17.2042 5.88885e-09 16.7825 0 16.3428V6.39547C0 5.95577 0.174671 5.53408 0.485586 5.22316C0.796502 4.91225 1.21819 4.73758 1.65789 4.73758H3.31579C3.50423 4.73758 3.68496 4.81243 3.81821 4.94568C3.95146 5.07893 4.02632 5.25966 4.02632 5.4481C4.02632 5.63654 3.95146 5.81727 3.81821 5.95052C3.68496 6.08377 3.50423 6.15863 3.31579 6.15863H1.65789C1.59508 6.15863 1.53484 6.18358 1.49042 6.228C1.44601 6.27241 1.42105 6.33265 1.42105 6.39547V16.3428C1.42105 16.4057 1.44601 16.4659 1.49042 16.5103C1.53484 16.5547 1.59508 16.5797 1.65789 16.5797H11.6053C11.6681 16.5797 11.7283 16.5547 11.7727 16.5103C11.8172 16.4659 11.8421 16.4057 11.8421 16.3428V14.6849Z"
            fill="#656A72" />
    </g>
    <defs>
        <clipPath id="clip0_6378_15185">
            <rect width="18" height="18" fill="white" />
        </clipPath>
    </defs>
</svg>
