<!-- Copyright (c) 2022 NetEase, Inc. All rights reserved. -->
<!-- Use of this source code is governed by a MIT license that can be -->
<!-- found in the LICENSE file. -->

<svg width="16" height="16" viewBox="0 0 16 16" fill="none" xmlns="http://www.w3.org/2000/svg">
<path d="M8 0C3.58909 0 0 3.58836 0 8C0 12.4116 3.58836 16 8 16C12.4109 16 16 12.4116 16 8C16 3.58836 12.4116 0 8 0ZM11.2633 10.464C11.3191 10.5165 11.3638 10.5796 11.3948 10.6497C11.4257 10.7198 11.4423 10.7954 11.4434 10.872C11.4446 10.9486 11.4303 11.0246 11.4015 11.0956C11.3727 11.1666 11.3299 11.2311 11.2757 11.2852C11.2215 11.3393 11.1569 11.382 11.0859 11.4107C11.0149 11.4393 10.9388 11.4535 10.8622 11.4522C10.7856 11.4509 10.71 11.4342 10.64 11.4031C10.57 11.372 10.5069 11.3272 10.4545 11.2713L7.99709 8.80582L5.53164 11.2451C5.47917 11.3017 5.41579 11.347 5.34532 11.3785C5.27484 11.4099 5.19874 11.4267 5.12159 11.428C5.04443 11.4292 4.96783 11.4148 4.89639 11.3856C4.82496 11.3564 4.76017 11.3131 4.70592 11.2582C4.65168 11.2033 4.60911 11.1381 4.58078 11.0663C4.55245 10.9945 4.53894 10.9177 4.54107 10.8406C4.5432 10.7635 4.56093 10.6876 4.59318 10.6175C4.62543 10.5474 4.67154 10.4845 4.72873 10.4327L7.19055 7.99709L4.73745 5.536C4.68346 5.48307 4.6405 5.41995 4.61107 5.3503C4.58164 5.28066 4.56632 5.20586 4.56599 5.13025C4.56567 5.05464 4.58035 4.97971 4.60918 4.90982C4.63801 4.83992 4.68043 4.77643 4.73396 4.72304C4.7875 4.66965 4.8511 4.62741 4.92107 4.59876C4.99105 4.57012 5.06601 4.55564 5.14162 4.55617C5.21723 4.5567 5.29199 4.57222 5.36155 4.60184C5.43112 4.63146 5.49412 4.67459 5.54691 4.72873L8.00364 7.19345L10.4691 4.75418C10.5224 4.70146 10.5856 4.65976 10.6551 4.63147C10.7245 4.60318 10.7989 4.58884 10.8739 4.58928C10.9489 4.58972 11.0231 4.60492 11.0922 4.63403C11.1613 4.66313 11.224 4.70557 11.2767 4.75891C11.3294 4.81225 11.3711 4.87545 11.3994 4.94491C11.4277 5.01436 11.4421 5.08871 11.4416 5.16371C11.4412 5.2387 11.426 5.31288 11.3969 5.382C11.3678 5.45112 11.3253 5.51383 11.272 5.56655L8.80945 8.00291L11.2633 10.464Z" fill="#B3B7BC"/>
</svg>
