<!--
  - Copyright (c) 2022 NetEase, Inc. All rights reserved.
  - Use of this source code is governed by a MIT license that can be
  - found in the LICENSE file.
  -->

<svg width="18" height="18" viewBox="0 0 18 18" fill="none" xmlns="http://www.w3.org/2000/svg">
    <rect width="18" height="18" fill="white" />
    <path
        d="M13.5 4.50005V2.57148C13.5 1.8614 12.9244 1.28577 12.2143 1.28577H5.78571C5.07563 1.28577 4.5 1.8614 4.5 2.57148V4.50005"
        stroke="#656A72" stroke-width="1.28571" />
    <path d="M1.92857 4.5H16.0714" stroke="#656A72" stroke-width="1.28571" stroke-linecap="round" />
    <path
        d="M15.4286 7.07141C15.4286 6.71637 15.1408 6.42855 14.7857 6.42855C14.4307 6.42855 14.1429 6.71637 14.1429 7.07141H15.4286ZM3.85714 7.07141C3.85714 6.71637 3.56933 6.42855 3.21429 6.42855C2.85925 6.42855 2.57143 6.71637 2.57143 7.07141H3.85714ZM14.1429 7.07141V16.0714H15.4286V7.07141H14.1429ZM13.5 16.7143H4.5V18H13.5V16.7143ZM3.85714 16.0714V7.07141H2.57143V16.0714H3.85714ZM4.5 16.7143C4.14496 16.7143 3.85714 16.4265 3.85714 16.0714H2.57143C2.57143 17.1365 3.43488 18 4.5 18V16.7143ZM14.1429 16.0714C14.1429 16.4265 13.855 16.7143 13.5 16.7143V18C14.5651 18 15.4286 17.1365 15.4286 16.0714H14.1429Z"
        fill="#656A72" />
    <path d="M7.07143 7.07141V14.7857" stroke="#656A72" stroke-width="1.28571"
        stroke-linecap="round" />
    <path d="M10.9286 7.07141V14.7857" stroke="#656A72" stroke-width="1.28571"
        stroke-linecap="round" />
</svg>
