<!--
  - Copyright (c) 2022 NetEase, Inc. All rights reserved.
  - Use of this source code is governed by a MIT license that can be
  - found in the LICENSE file.
  -->

<svg width="18" height="18" viewBox="0 0 18 18" fill="none" xmlns="http://www.w3.org/2000/svg">
    <g clip-path="url(#clip0_6378_15235)">
        <path
            d="M6.28837 1.84827H17.2032C17.7401 1.84827 18.0085 2.11668 18.0085 2.65352V2.65132C18.0085 3.18815 17.7401 3.45657 17.2032 3.45657H6.28837C5.75154 3.45657 5.48312 3.18815 5.48312 2.65132V2.65352C5.48312 2.11668 5.75154 1.84827 6.28837 1.84827Z"
            fill="#656A72" />
        <path
            d="M6.28837 8.40234H17.2032C17.7401 8.40234 18.0085 8.67076 18.0085 9.20759V9.20539C18.0085 9.74223 17.7401 10.0106 17.2032 10.0106H6.28837C5.75154 10.0106 5.48312 9.74223 5.48312 9.20539V9.20759C5.48312 8.67076 5.75154 8.40234 6.28837 8.40234Z"
            fill="#656A72" />
        <path
            d="M6.28837 14.9564H17.2032C17.7401 14.9564 18.0085 15.2248 18.0085 15.7617V15.7595C18.0085 16.2963 17.7401 16.5647 17.2032 16.5647H6.28837C5.75154 16.5647 5.48312 16.2963 5.48312 15.7595V15.7617C5.48312 15.2248 5.75154 14.9564 6.28837 14.9564Z"
            fill="#656A72" />
        <path
            d="M4.85402 0.919902C4.80012 0.865612 4.73603 0.822505 4.66542 0.793055C4.59482 0.763605 4.51909 0.748393 4.44259 0.748291C4.36607 0.748272 4.29031 0.763429 4.21969 0.792886C4.14907 0.822343 4.08499 0.865514 4.03117 0.919902L1.98284 2.97263L0.99498 1.97597C0.941082 1.92168 0.87699 1.87857 0.806386 1.84912C0.735781 1.81967 0.660055 1.80446 0.583554 1.80436C0.468486 1.80469 0.356088 1.83906 0.260518 1.90315C0.164947 1.96724 0.0904773 2.05817 0.0464874 2.1645C0.00249738 2.27083 -0.00904557 2.3878 0.0133123 2.50067C0.0356701 2.61355 0.0909288 2.71729 0.172129 2.79882L1.57582 4.2091C1.68368 4.31728 1.83008 4.37821 1.98284 4.37851C2.05908 4.37886 2.13461 4.36384 2.20492 4.33436C2.27523 4.30487 2.33888 4.26152 2.39207 4.2069L4.85402 1.74055C4.96165 1.6311 5.02196 1.48373 5.02196 1.33023C5.02196 1.17672 4.96165 1.02936 4.85402 0.919902ZM4.85402 7.56871C4.80001 7.51472 4.73585 7.47196 4.66524 7.44288C4.59463 7.4138 4.51896 7.39899 4.44259 7.3993C4.36621 7.39887 4.2905 7.41363 4.21988 7.44271C4.14925 7.47179 4.0851 7.51462 4.03117 7.56871L1.98284 9.61924L0.99498 8.62258C0.941264 8.56789 0.877254 8.52438 0.806641 8.49454C0.736028 8.46471 0.660209 8.44915 0.583554 8.44877C0.468033 8.44866 0.355085 8.48288 0.259042 8.54708C0.163 8.61127 0.0881926 8.70255 0.044113 8.80933C3.33449e-05 8.91611 -0.0113315 9.03358 0.0114606 9.14683C0.0342526 9.26008 0.0901742 9.36401 0.172129 9.44543L1.57582 10.8535C1.62944 10.9079 1.69333 10.951 1.76376 10.9805C1.8342 11.0099 1.90979 11.0251 1.98614 11.0251C2.06249 11.0251 2.13808 11.0099 2.20852 10.9805C2.27896 10.951 2.34284 10.9079 2.39647 10.8535L4.85402 8.38716C4.96047 8.27753 5.02001 8.13074 5.02001 7.97794C5.02001 7.82513 4.96047 7.67834 4.85402 7.56871ZM4.85402 13.7907C4.80012 13.7364 4.73603 13.6933 4.66542 13.6638C4.59482 13.6344 4.51909 13.6192 4.44259 13.6191C4.36607 13.6191 4.29031 13.6342 4.21969 13.6637C4.14907 13.6931 4.08499 13.7363 4.03117 13.7907L1.98284 15.8434L0.99498 14.8468C0.940973 14.7928 0.876814 14.75 0.806201 14.7209C0.735588 14.6919 0.659919 14.677 0.583554 14.6774C0.507173 14.6769 0.431467 14.6917 0.360837 14.7208C0.290208 14.7498 0.226062 14.7927 0.172129 14.8468C0.0633036 14.956 0.00220338 15.104 0.00220338 15.2582C0.00220338 15.4124 0.0633036 15.5603 0.172129 15.6696L1.57582 17.0799C1.68471 17.1886 1.83228 17.2496 1.98614 17.2496C2.14 17.2496 2.28757 17.1886 2.39647 17.0799L4.85402 14.6091C4.96047 14.4995 5.02001 14.3527 5.02001 14.1999C5.02001 14.0471 4.96047 13.9003 4.85402 13.7907Z"
            fill="#656A72" />
    </g>
    <defs>
        <clipPath id="clip0_6378_15235">
            <rect width="18" height="18" fill="white" />
        </clipPath>
    </defs>
</svg>
