<!--
  - Copyright (c) 2022 NetEase, Inc. All rights reserved.
  - Use of this source code is governed by a MIT license that can be
  - found in the LICENSE file.
  -->

<svg width="20" height="20" viewBox="0 0 20 20" fill="none" xmlns="http://www.w3.org/2000/svg">
<g clip-path="url(#clip0_5865_13168)">
<path fill-rule="evenodd" clip-rule="evenodd" d="M5.6397 2.17922L0.325993 8.86103C0.114518 9.13881 0 9.4783 0 9.82742C0 10.1765 0.114518 10.516 0.325993 10.7938L5.6397 17.477C6.1086 18.0689 6.77192 18.4048 7.46669 18.4048H17.5337C18.9032 18.4048 20.014 17.1254 20.014 15.5457V4.10914C20.014 2.52946 18.9032 1.25 17.5337 1.25H7.46669C6.77192 1.25 6.1086 1.58595 5.6397 2.17922ZM1.5159 9.88015L6.81382 16.5435L6.81542 16.5455C7.02682 16.8124 7.2719 16.9048 7.46669 16.9048H17.5337C17.882 16.9048 18.514 16.5039 18.514 15.5457V4.10914C18.514 3.15097 17.882 2.75 17.5337 2.75H7.46669C7.27225 2.75 7.02774 2.84208 6.81651 3.10933L6.81372 3.11286L6.81372 3.11286L1.51588 9.77471C1.50555 9.7903 1.5 9.80862 1.5 9.82742C1.5 9.84622 1.50555 9.86455 1.5159 9.88015ZM9.46967 6.96967C9.76256 6.67678 10.2374 6.67678 10.5303 6.96967L12.5 8.93934L14.4697 6.96967C14.7626 6.67678 15.2374 6.67678 15.5303 6.96967C15.8232 7.26256 15.8232 7.73744 15.5303 8.03033L13.5607 10L15.5303 11.9697C15.8232 12.2626 15.8232 12.7374 15.5303 13.0303C15.2374 13.3232 14.7626 13.3232 14.4697 13.0303L12.5 11.0607L10.5303 13.0303C10.2374 13.3232 9.76256 13.3232 9.46967 13.0303C9.17678 12.7374 9.17678 12.2626 9.46967 11.9697L11.4393 10L9.46967 8.03033C9.17678 7.73744 9.17678 7.26256 9.46967 6.96967Z" fill="#B1B9BD"/>
</g>
<defs>
<clipPath id="clip0_5865_13168">
<rect width="20" height="20" fill="white"/>
</clipPath>
</defs>
</svg>
