<!--
  - Copyright (c) 2022 NetEase, Inc. All rights reserved.
  - Use of this source code is governed by a MIT license that can be
  - found in the LICENSE file.
  -->

<svg width="11" height="12" viewBox="0 0 11 12" fill="none" xmlns="http://www.w3.org/2000/svg">
    <g clip-path="url(#clip0_4151_21386)">
        <path
            d="M9.09928 10.9513V10.9516C9.09929 10.9672 9.09528 10.9824 9.08765 10.996C9.08001 11.0095 9.06901 11.0208 9.05571 11.0288C9.04241 11.0368 9.02726 11.0412 9.01174 11.0416C8.99622 11.0421 8.98086 11.0384 8.96715 11.0312L8.96706 11.0311L5.64294 9.2668C5.49755 9.1896 5.33545 9.14923 5.17083 9.14923C5.00622 9.14923 4.84412 9.1896 4.69873 9.2668L1.37622 11.0306L1.37571 11.0309C1.362 11.0382 1.34664 11.0418 1.33111 11.0414C1.31559 11.041 1.30043 11.0366 1.28712 11.0286C1.27381 11.0206 1.26279 11.0093 1.25515 10.9957C1.2475 10.9822 1.24348 10.967 1.24349 10.9514V10.9513V1.59656C1.24349 1.51274 1.26 1.42975 1.29207 1.35232C1.32415 1.27489 1.37116 1.20453 1.43042 1.14526C1.48969 1.086 1.56004 1.03899 1.63748 1.00692C1.71491 0.974841 1.7979 0.958333 1.88171 0.958333H8.46105C8.54487 0.958333 8.62786 0.974841 8.70529 1.00692C8.78272 1.03899 8.85308 1.086 8.91234 1.14526C8.97161 1.20453 9.01862 1.27489 9.05069 1.35232C9.08277 1.42975 9.09928 1.51274 9.09928 1.59656V10.9513Z"
            stroke="#3EAF96" stroke-width="0.916667" />
        <path d="M3.14307 5.60714L5.04187 7.14635L7.46449 3.25" stroke="#3EAF96"
            stroke-width="0.916667" stroke-linecap="round" stroke-linejoin="round" />
    </g>
    <defs>
        <clipPath id="clip0_4151_21386">
            <rect width="11" height="11" fill="white" transform="translate(0 0.5)" />
        </clipPath>
    </defs>
</svg>
