<!--
  - Copyright (c) 2022 NetEase, Inc. All rights reserved.
  - Use of this source code is governed by a MIT license that can be
  - found in the LICENSE file.
  -->

<svg width="24" height="24" viewBox="0 0 24 24" fill="none" xmlns="http://www.w3.org/2000/svg">
<path d="M11.9998 22.0016C6.47707 22.0016 1.99982 17.5243 1.99982 12.0016C1.99982 6.47884 6.47707 2.00159 11.9998 2.00159C17.5226 2.00159 21.9998 6.47884 21.9998 12.0016C21.9998 17.5243 17.5226 22.0016 11.9998 22.0016ZM11.9998 20.5016C16.6943 20.5016 20.4998 16.6961 20.4998 12.0016C20.4998 7.30709 16.6943 3.50159 11.9998 3.50159C7.30532 3.50159 3.49982 7.30709 3.49982 12.0016C3.49982 16.6961 7.30532 20.5016 11.9998 20.5016ZM12.7498 11.2516H15.7498C15.9487 11.2516 16.1395 11.3306 16.2801 11.4713C16.4208 11.6119 16.4998 11.8027 16.4998 12.0016C16.4998 12.2005 16.4208 12.3913 16.2801 12.5319C16.1395 12.6726 15.9487 12.7516 15.7498 12.7516H12.7498V15.7516C12.7498 15.9505 12.6708 16.1413 12.5301 16.2819C12.3895 16.4226 12.1987 16.5016 11.9998 16.5016C11.8009 16.5016 11.6101 16.4226 11.4695 16.2819C11.3288 16.1413 11.2498 15.9505 11.2498 15.7516V12.7516H8.24982C8.0509 12.7516 7.86014 12.6726 7.71949 12.5319C7.57883 12.3913 7.49982 12.2005 7.49982 12.0016C7.49982 11.8027 7.57883 11.6119 7.71949 11.4713C7.86014 11.3306 8.0509 11.2516 8.24982 11.2516H11.2498V8.25159C11.2498 8.05267 11.3288 7.86191 11.4695 7.72126C11.6101 7.5806 11.8009 7.50159 11.9998 7.50159C12.1987 7.50159 12.3895 7.5806 12.5301 7.72126C12.6708 7.86191 12.7498 8.05267 12.7498 8.25159V11.2516Z" fill="#656A72"/>
</svg>
