<!--
  - Copyright (c) 2022 NetEase, Inc. All rights reserved.
  - Use of this source code is governed by a MIT license that can be
  - found in the LICENSE file.
  -->

<svg width="28" height="28" viewBox="0 0 28 28" fill="none" xmlns="http://www.w3.org/2000/svg">
    <path
        d="M8.32566 11.5256L5.85028 14.0001L8.32566 16.4746C8.98181 15.8183 9.35041 14.9282 9.35041 14.0001C9.35041 13.072 8.98181 12.182 8.32566 11.5256ZM10.8002 18.95L12.0374 20.1872C15.4552 16.7704 15.4552 11.2299 12.0374 7.81299L10.8002 9.05024C11.4502 9.70025 11.9659 10.4719 12.3177 11.3212C12.6695 12.1705 12.8505 13.0808 12.8505 14.0001C12.8505 14.9194 12.6695 15.8297 12.3177 16.679C11.9659 17.5283 11.4502 18.3 10.8002 18.95Z"
        fill="#757B81" />
    <path
        d="M14.5128 5.33747C19.2964 10.122 19.2964 17.878 14.5128 22.6625L15.75 23.8997C21.217 18.4318 21.217 9.56722 15.75 4.10022L14.5128 5.33834V5.33747Z"
        fill="#757B81" />
</svg>
