<!--
  - Copyright (c) 2022 NetEase, Inc. All rights reserved.
  - Use of this source code is governed by a MIT license that can be
  - found in the LICENSE file.
  -->

<svg width="24" height="24" viewBox="0 0 24 24" fill="none" xmlns="http://www.w3.org/2000/svg">
<path d="M21.9998 12.9809V17.9984C21.9998 19.5172 20.7685 20.7484 19.2498 20.7484H4.74976C3.23101 20.7484 1.99976 19.5172 1.99976 17.9984V5.99841C1.99976 4.47966 3.23101 3.24841 4.74976 3.24841H19.2498C20.7685 3.24841 21.9998 4.47966 21.9998 5.99841V12.9809ZM20.4998 11.2319V5.99841C20.4998 5.83426 20.4674 5.67172 20.4046 5.52006C20.3418 5.3684 20.2497 5.2306 20.1336 5.11453C20.0176 4.99846 19.8798 4.90638 19.7281 4.84356C19.5765 4.78074 19.4139 4.74841 19.2498 4.74841H4.74976C4.5856 4.74841 4.42306 4.78074 4.2714 4.84356C4.11974 4.90638 3.98195 4.99846 3.86587 5.11453C3.7498 5.2306 3.65772 5.3684 3.59491 5.52006C3.53209 5.67172 3.49976 5.83426 3.49976 5.99841V14.0722C3.83082 14.023 4.16506 13.9983 4.49976 13.9984C6.0679 13.9961 7.58753 14.542 8.79576 15.5417C10.0083 12.3824 13.0523 10.2484 16.4998 10.2484C18.0398 10.2484 19.4763 10.6417 20.4998 11.2319ZM20.4998 13.1594C20.3748 12.9644 20.0045 12.6519 19.4768 12.3879C18.674 11.9864 17.6493 11.7484 16.4998 11.7484C13.6458 11.7484 11.1295 13.5359 10.1615 16.1709C10.0975 16.3454 9.98801 16.6472 9.83351 17.0752C9.65351 17.5744 9.02601 17.7339 8.62951 17.3812C8.24426 17.0382 7.96026 16.7937 7.78251 16.6512C6.85212 15.9031 5.69358 15.4963 4.49976 15.4984C4.16076 15.4984 3.82651 15.5304 3.49976 15.5934V17.9984C3.49976 18.1626 3.53209 18.3251 3.59491 18.4768C3.65772 18.6284 3.7498 18.7662 3.86587 18.8823C3.98195 18.9984 4.11974 19.0904 4.2714 19.1533C4.42306 19.2161 4.5856 19.2484 4.74976 19.2484H19.2498C19.4139 19.2484 19.5765 19.2161 19.7281 19.1533C19.8798 19.0904 20.0176 18.9984 20.1336 18.8823C20.2497 18.7662 20.3418 18.6284 20.4046 18.4768C20.4674 18.3251 20.4998 18.1626 20.4998 17.9984V13.1592V13.1594ZM7.49976 11.2484C6.90302 11.2484 6.33072 11.0114 5.90877 10.5894C5.48681 10.1674 5.24976 9.59515 5.24976 8.99841C5.24976 8.40168 5.48681 7.82938 5.90877 7.40742C6.33072 6.98547 6.90302 6.74841 7.49976 6.74841C8.09649 6.74841 8.66879 6.98547 9.09075 7.40742C9.5127 7.82938 9.74976 8.40168 9.74976 8.99841C9.74976 9.59515 9.5127 10.1674 9.09075 10.5894C8.66879 11.0114 8.09649 11.2484 7.49976 11.2484ZM7.49976 9.74841C7.69867 9.74841 7.88943 9.66939 8.03009 9.52874C8.17074 9.38809 8.24976 9.19732 8.24976 8.99841C8.24976 8.7995 8.17074 8.60873 8.03009 8.46808C7.88943 8.32743 7.69867 8.24841 7.49976 8.24841C7.30084 8.24841 7.11008 8.32743 6.96943 8.46808C6.82877 8.60873 6.74976 8.7995 6.74976 8.99841C6.74976 9.19732 6.82877 9.38809 6.96943 9.52874C7.11008 9.66939 7.30084 9.74841 7.49976 9.74841Z" fill="#656A72"/>
</svg>
