<!--
  - Copyright (c) 2022 NetEase, Inc. All rights reserved.
  - Use of this source code is governed by a MIT license that can be
  - found in the LICENSE file.
  -->

<svg width="30" height="30" viewBox="0 0 30 30" fill="none" xmlns="http://www.w3.org/2000/svg">
<path d="M14.8392 11.8721C12.6969 11.8721 10.9593 13.5993 10.9593 15.7298C10.9593 17.8602 12.6969 19.5875 14.8392 19.5875C16.9821 19.5875 18.7197 17.8602 18.7197 15.7298C18.7197 13.5993 16.9822 11.8721 14.8392 11.8721ZM27.38 8.76686C27.38 8.0076 26.7597 7.39154 25.9956 7.39154H21.1499L20.4574 6.01479C20.4574 6.01479 19.8378 4.63806 19.0736 4.63806H10.766C10.0019 4.63806 9.38235 6.01479 9.38235 6.01479L8.68982 7.39154H3.84409C3.07997 7.39154 2.45972 8.0076 2.45972 8.76686V23.9095C2.45972 24.6701 3.07997 25.2863 3.84409 25.2863H25.9956C26.7597 25.2863 27.38 24.6701 27.38 23.9095V21.9821L27.3681 22.2755L27.38 17.2915V8.76686ZM14.8392 20.8737C11.9828 20.8737 9.66668 18.5694 9.66668 15.7298C9.66668 12.8887 11.9828 10.5858 14.8392 10.5858C17.6963 10.5858 20.0123 12.8887 20.0123 15.7298C20.0123 18.5694 17.6963 20.8737 14.8392 20.8737ZM23.03 11.6538C22.4397 11.6538 21.962 11.1754 21.962 10.5858C21.962 9.99621 22.4397 9.51779 23.03 9.51779C23.6196 9.51779 24.098 9.99621 24.098 10.5858C24.098 11.1754 23.6196 11.6538 23.03 11.6538Z" fill="#656A72"/>
</svg>
