<!--
  - Copyright (c) 2022 NetEase, Inc. All rights reserved.
  - Use of this source code is governed by a MIT license that can be
  - found in the LICENSE file.
  -->

<svg width="24" height="24" viewBox="0 0 24 24" fill="none" xmlns="http://www.w3.org/2000/svg">
<path d="M20.4563 17.72H20.4581V17.7094L20.4563 17.72Z" fill="#656A72"/>
<path d="M18.9204 5.07953C15.1046 1.26304 8.89534 1.26304 5.07953 5.07953C1.26304 8.89532 1.26304 15.1046 5.07953 18.9204C8.89534 22.7369 15.1046 22.7369 18.9204 18.9204C22.7369 15.1046 22.7369 8.89532 18.9204 5.07953ZM17.9271 17.9278C14.6589 21.196 9.34033 21.1953 6.07248 17.9278C2.8039 14.6589 2.8039 9.34137 6.07248 6.07248C9.34033 2.8046 14.6589 2.80388 17.9271 6.07248C21.1953 9.34034 21.1953 14.6596 17.9271 17.9278Z" fill="#656A72"/>
<path d="M8.94635 10.9686C9.52722 10.9686 9.99996 10.4959 9.99996 9.91471C9.99996 9.33279 9.52722 8.85938 8.94635 8.85938C8.3641 8.85938 7.89136 9.33279 7.89136 9.91471C7.89136 10.4959 8.3641 10.9686 8.94635 10.9686Z" fill="#656A72"/>
<path d="M15.0159 10.969C15.5974 10.969 16.0708 10.4952 16.0708 9.91399C16.0708 9.33209 15.5974 8.85938 15.0159 8.85938C14.435 8.85938 13.9623 9.33209 13.9623 9.91399C13.9623 10.4952 14.435 10.969 15.0159 10.969Z" fill="#656A72"/>
<path d="M15.0527 14.5104L14.9952 14.5291C14.0504 14.9568 13.037 15.1744 11.9855 15.1744C10.8993 15.1744 9.87206 14.9547 8.93146 14.5229L8.87462 14.5055C8.83927 14.4958 8.79145 14.482 8.73182 14.482C8.38595 14.482 8.10522 14.7627 8.10522 15.1072C8.10522 15.2707 8.18216 15.435 8.30901 15.5584L8.30139 15.5965L8.4615 15.6686C9.58442 16.1767 10.8057 16.4443 11.9931 16.4443C13.2027 16.4443 14.388 16.1837 15.5317 15.6624C15.7327 15.5521 15.8581 15.3408 15.8581 15.1113C15.8581 14.7073 15.4929 14.3752 15.0527 14.5104Z" fill="#656A72"/>
</svg>
