<!--
  - Copyright (c) 2022 NetEase, Inc. All rights reserved.
  - Use of this source code is governed by a MIT license that can be
  - found in the LICENSE file.
  -->

<svg width="24" height="24" viewBox="0 0 24 24" fill="none" xmlns="http://www.w3.org/2000/svg">
<path d="M12.5671 21.7523H4.62182C3.97494 21.7359 3.38432 21.4757 2.95072 21.0187C2.51478 20.5617 2.28275 19.9617 2.29916 19.3312V4.71558C2.28041 4.10151 2.5101 3.50151 2.94603 3.04214C3.37963 2.58276 3.96791 2.32026 4.60072 2.30151H17.5546C18.2015 2.31792 18.7921 2.57808 19.2257 3.03511C19.6617 3.49214 19.8937 4.09214 19.8773 4.72261V10.8703C19.8773 11.1937 19.6148 11.4562 19.289 11.4562C18.9656 11.4562 18.7007 11.1937 18.7007 10.8703V4.71558C18.7078 4.37573 18.5929 4.07339 18.3726 3.8437C18.1523 3.61401 17.8546 3.48276 17.5359 3.47339H4.62182C4.31244 3.48276 4.01713 3.61401 3.79916 3.84605C3.57885 4.07808 3.464 4.38042 3.47338 4.69917V19.3406C3.46635 19.6804 3.58119 19.9828 3.8015 20.2125C4.02182 20.4421 4.31947 20.5734 4.63822 20.5828H12.5671C12.8906 20.5828 13.1554 20.8453 13.1554 21.1687C13.1531 21.4898 12.8906 21.7523 12.5671 21.7523Z" fill="#656A72"/>
<path d="M16.3453 7.59839H5.87576C5.55232 7.59839 5.28748 7.33589 5.28748 7.01245C5.28748 6.68901 5.54998 6.42651 5.87576 6.42651H16.3453C16.6687 6.42651 16.9336 6.68901 16.9336 7.01245C16.9336 7.33589 16.6711 7.59839 16.3453 7.59839ZM16.3453 11.1117H5.87576C5.55232 11.1117 5.28748 10.8492 5.28748 10.5257C5.28748 10.2023 5.54998 9.93979 5.87576 9.93979H16.3453C16.6687 9.93979 16.9336 10.2023 16.9336 10.5257C16.9336 10.8492 16.6711 11.1117 16.3453 11.1117ZM11.6929 14.625H5.87576C5.55232 14.625 5.28748 14.3625 5.28748 14.039C5.28748 13.7156 5.54998 13.4531 5.87576 13.4531H11.6929C12.0164 13.4531 12.2812 13.7156 12.2812 14.039C12.2812 14.3625 12.0187 14.625 11.6929 14.625ZM16.5613 16.3945C17.4543 15.2929 17.4543 14.0624 17.4543 12.2835C20.3465 13.3851 19.6645 16.6078 19.7512 17.5828C20.2504 16.9992 20.5481 16.2703 20.602 15.5062C21.352 16.0429 21.7832 16.9171 21.7504 17.8382C21.7879 19.9218 20.1238 21.6398 18.0332 21.6773C15.9426 21.7148 14.2199 20.0554 14.1824 17.9718V17.8382C14.1824 16.5656 15.0754 16.0148 15.0754 14.3249C16.0598 14.4914 16.7231 15.4195 16.5637 16.4015V16.3945H16.5613Z" fill="#656A72"/>
</svg>
