<!-- Copyright (c) 2022 NetEase, Inc. All rights reserved. -->
<!-- Use of this source code is governed by a MIT license that can be -->
<!-- found in the LICENSE file. -->

<svg t="1777012997361" class="icon" viewBox="0 0 1024 1024" version="1.1" xmlns="http://www.w3.org/2000/svg" p-id="5984" width="64" height="64"><path d="M665.6 643.657143c-51.2-29.257143-73.142857-43.885714-102.4-36.571429-43.885714 0-58.514286 21.942857-80.457143 51.2-7.314286 0-36.571429-7.314286-87.771428-58.514285-36.571429-43.885714-51.2-73.142857-36.571429-87.771429 7.314286-7.314286 36.571429-29.257143 36.571429-65.828571 0-29.257143-7.314286-65.828571-43.885715-117.028572-21.942857-36.571429-43.885714-58.514286-80.457143-58.514286-29.257143 0-65.828571 14.628571-95.085714 36.571429-43.885714 36.571429-58.514286 73.142857-58.514286 102.4-7.314286 95.085714 36.571429 204.8 131.657143 314.514286 65.828571 73.142857 146.285714 124.342857 226.742857 153.6 36.571429 14.628571 65.828571 14.628571 102.4 14.628571 36.571429 0 73.142857-7.314286 95.085715-29.257143 36.571429-21.942857 65.828571-80.457143 65.828571-117.028571 7.314286-51.2-36.571429-80.457143-73.142857-102.4z m-29.257143 168.228571c-21.942857 21.942857-80.457143 21.942857-138.971428 0-73.142857-21.942857-146.285714-73.142857-197.485715-131.657143C212.114286 585.142857 168.228571 490.057143 175.542857 409.6c0-21.942857 7.314286-36.571429 29.257143-51.2 21.942857-21.942857 43.885714-21.942857 58.514286-21.942857 7.314286 0 7.314286 0 29.257143 29.257143 14.628571 21.942857 36.571429 51.2 36.571428 73.142857 0 7.314286-7.314286 14.628571-21.942857 29.257143 0 0-7.314286 7.314286-7.314286 14.628571-36.571429 43.885714-14.628571 87.771429 51.2 160.914286 58.514286 58.514286 102.4 80.457143 138.971429 80.457143 7.314286 0 21.942857-7.314286 36.571428-14.628572l7.314286-7.314285c21.942857-29.257143 21.942857-29.257143 36.571429-36.571429 7.314286 0 14.628571 0 58.514285 29.257143 43.885714 29.257143 43.885714 36.571429 43.885715 43.885714 0 21.942857-14.628571 58.514286-36.571429 73.142857zM855.771429 138.971429l-51.2 29.257142c0-29.257143-29.257143-58.514286-58.514286-58.514285H570.514286c-36.571429 7.314286-58.514286 29.257143-58.514286 65.828571v175.542857c0 36.571429 29.257143 58.514286 58.514286 58.514286h175.542857c29.257143 0 58.514286-29.257143 58.514286-58.514286l51.2 29.257143c21.942857 14.628571 51.2 0 51.2-29.257143V168.228571c0-29.257143-29.257143-43.885714-51.2-29.257142z m-109.714286 212.114285H570.514286V175.542857h175.542857v175.542857z m102.4-43.885714l-36.571429-21.942857v-36.571429l36.571429-21.942857v80.457143z" p-id="5985"></path></svg>