<!-- Copyright (c) 2022 NetEase, Inc. All rights reserved. -->
<!-- Use of this source code is governed by a MIT license that can be -->
<!-- found in the LICENSE file. -->

<svg t="1777013070210" class="icon" viewBox="0 0 1024 1024" version="1.1" xmlns="http://www.w3.org/2000/svg" p-id="6288" width="64" height="64"><path d="M848.457143 256L731.428571 336.457143v-14.628572c0-73.142857-65.828571-138.971429-138.971428-138.971428H212.114286c-73.142857 0-138.971429 65.828571-138.971429 138.971428v380.342858c0 73.142857 65.828571 138.971429 138.971429 138.971428h380.342857c73.142857 0 138.971429-65.828571 138.971428-138.971428v-14.628572l117.028572 80.457143c43.885714 29.257143 102.4 0 102.4-51.2V307.2c0-51.2-58.514286-80.457143-102.4-51.2zM658.285714 702.171429c0 36.571429-29.257143 65.828571-65.828571 65.828571H212.114286c-36.571429 0-65.828571-29.257143-65.828572-65.828571V321.828571c0-36.571429 29.257143-65.828571 65.828572-65.828571h380.342857c36.571429 0 65.828571 29.257143 65.828571 65.828571v380.342858z m219.428572 0l-146.285715-95.085715V424.228571l146.285715-95.085714v373.028572z" p-id="6289"></path></svg>
