<!-- Copyright (c) 2022 NetEase, Inc. All rights reserved. -->
<!-- Use of this source code is governed by a MIT license that can be -->
<!-- found in the LICENSE file. -->

<svg t="1777013056577" class="icon" viewBox="0 0 1024 1024" version="1.1" xmlns="http://www.w3.org/2000/svg" p-id="6136" width="64" height="64"><path d="M848.457143 636.342857c-21.942857-21.942857-43.885714-36.571429-65.828572-51.2-29.257143-21.942857-51.2-29.257143-65.828571-36.571428-21.942857-14.628571-43.885714-14.628571-58.514286-14.628572-21.942857 0-36.571429 7.314286-51.2 21.942857-14.628571 14.628571-29.257143 29.257143-36.571428 51.2-7.314286 0-43.885714-7.314286-109.714286-73.142857-43.885714-43.885714-58.514286-65.828571-58.514286-80.457143v-7.314285V438.857143s0-7.314286 7.314286-7.314286c14.628571-14.628571 43.885714-36.571429 51.2-80.457143 0-29.257143-7.314286-73.142857-51.2-138.971428-14.628571-14.628571-29.257143-36.571429-43.885714-43.885715-21.942857-14.628571-36.571429-21.942857-58.514286-21.942857-36.571429 0-80.457143 14.628571-109.714286 43.885715-51.2 36.571429-65.828571 80.457143-65.828571 117.028571-14.628571 117.028571 43.885714 248.685714 153.6 373.028571 73.142857 87.771429 175.542857 146.285714 270.628571 175.542858 43.885714 14.628571 87.771429 21.942857 124.342857 21.942857 43.885714 0 80.457143-7.314286 109.714286-29.257143 21.942857-14.628571 43.885714-36.571429 51.2-65.828572 14.628571-21.942857 21.942857-51.2 21.942857-73.142857 7.314286-29.257143 0-51.2-14.628571-73.142857z m-51.2 65.828572c0 14.628571-7.314286 29.257143-14.628572 51.2-7.314286 14.628571-21.942857 29.257143-29.257142 36.571428-21.942857 7.314286-43.885714 14.628571-73.142858 14.628572s-58.514286-7.314286-95.085714-14.628572c-87.771429-29.257143-168.228571-80.457143-241.371428-160.914286C234.057143 512 190.171429 402.285714 204.8 314.514286c0-21.942857 7.314286-43.885714 36.571429-58.514286 21.942857-29.257143 51.2-36.571429 65.828571-36.571429h7.314286c7.314286 7.314286 14.628571 14.628571 29.257143 36.571429 43.885714 58.514286 43.885714 80.457143 36.571428 87.771429 0 7.314286 0 14.628571-7.314286 14.628571 7.314286 7.314286 0 7.314286-7.314285 14.628571l-21.942857 21.942858c-7.314286 7.314286-14.628571 21.942857-14.628572 36.571428v43.885714c14.628571 29.257143 36.571429 65.828571 80.457143 109.714286 80.457143 73.142857 131.657143 95.085714 168.228571 95.085714 14.628571 0 21.942857-7.314286 36.571429-7.314285 0-7.314286 7.314286-14.628571 7.314286-21.942857 14.628571-21.942857 21.942857-29.257143 29.257143-36.571429 0 0 7.314286-7.314286 14.628571-7.314286h14.628571c14.628571 7.314286 29.257143 14.628571 58.514286 36.571429 29.257143 14.628571 43.885714 29.257143 51.2 36.571428 7.314286 7.314286 7.314286 14.628571 7.314286 21.942858z" p-id="6137"></path></svg>
