<!--
  - Copyright (c) 2022 NetEase, Inc. All rights reserved.
  - Use of this source code is governed by a MIT license that can be
  - found in the LICENSE file.
  -->

<svg width="18" height="18" viewBox="0 0 18 18" fill="none" xmlns="http://www.w3.org/2000/svg">
    <path
        d="M15.7857 14.5714H4.38904L0 16.9927V7.28389V7.2845V1.21429C0 0.543393 0.543393 0 1.21429 0H15.7857C16.456 0 17 0.543393 17 1.21429V13.3571C17 14.0274 16.456 14.5714 15.7857 14.5714ZM15.7857 1.82143C15.7857 1.48629 15.5137 1.21429 15.1786 1.21429H1.82143C1.48629 1.21429 1.21429 1.48629 1.21429 1.82143V9.71368V12.75V14.5757L3.73454 13.3571H15.1786C15.5137 13.3571 15.7857 13.0851 15.7857 12.75V1.82143ZM11.5357 6.07143H3.03571C2.70057 6.07143 2.42857 5.79943 2.42857 5.46429C2.42857 5.12914 2.70057 4.85714 3.03571 4.85714H11.5357C11.8709 4.85714 12.1429 5.12914 12.1429 5.46429C12.1429 5.79943 11.8709 6.07143 11.5357 6.07143ZM3.03571 8.5H6.67857C7.01371 8.5 7.28571 8.772 7.28571 9.10714C7.28571 9.44229 7.01371 9.71429 6.67857 9.71429H3.03571C2.70057 9.71429 2.42857 9.44229 2.42857 9.10714C2.42857 8.772 2.70057 8.5 3.03571 8.5Z"
        fill="#656A72" />
</svg>
