<!--
  - Copyright (c) 2022 NetEase, Inc. All rights reserved.
  - Use of this source code is governed by a MIT license that can be
  - found in the LICENSE file.
  -->

<svg width="18" height="18" viewBox="0 0 18 18" fill="none" xmlns="http://www.w3.org/2000/svg">
    <path
        d="M2.51852 5.14819L8.20762 8.94093C8.53255 9.15755 8.95384 9.1652 9.28642 8.96054L15.4815 5.14819"
        stroke="#656A72" stroke-width="1.29" stroke-linecap="round" />
    <path d="M8.74074 9.29626V17.074" stroke="#656A72" stroke-width="1.29" stroke-linecap="round" />
    <path
        d="M2.47803 4.83247L8.23759 1.3079C8.54803 1.11793 8.93717 1.11162 9.25361 1.29143L15.494 4.8375C15.8068 5.01522 16 5.34722 16 5.70693V12.7931C16 13.1528 15.8068 13.4848 15.494 13.6625L9.25361 17.2086C8.93717 17.3884 8.54803 17.3821 8.23759 17.1921L2.47803 13.6675C2.18107 13.4858 2 13.1627 2 12.8146V5.68543C2 5.33728 2.18107 5.01419 2.47803 4.83247Z"
        stroke="#656A72" stroke-width="1.29" stroke-linecap="round" />
</svg>
