<!-- Copyright (c) 2022 NetEase, Inc. All rights reserved. -->
<!-- Use of this source code is governed by a MIT license that can be -->
<!-- found in the LICENSE file. -->

<svg width="73" height="73" viewBox="0 0 73 73" fill="none" xmlns="http://www.w3.org/2000/svg">
<path d="M46.5 46L53.5 53" stroke="black" stroke-width="0.5"/>
<rect x="50" y="53.6763" width="6.63088" height="25.2171" rx="2" transform="rotate(-44.8482 50 53.6763)" fill="white"/>
<rect x="48" y="52.6763" width="6.63088" height="25.2171" rx="2" transform="rotate(-44.8482 48 52.6763)" fill="#376CF6"/>
<rect x="46.4183" y="54.2498" width="8.86189" height="25.2171" rx="2" transform="rotate(-44.8482 46.4183 54.2498)" fill="#376CF6"/>
<mask id="mask0_6034_14827" style="mask-type:alpha" maskUnits="userSpaceOnUse" x="47" y="48" width="23" height="24">
<rect x="46.3555" y="54.3123" width="8.95052" height="25.2171" rx="2" transform="rotate(-44.8482 46.3555 54.3123)" fill="#376CF6"/>
</mask>
<g mask="url(#mask0_6034_14827)">
<path d="M60.4999 53.4884C60.4999 53.4884 58.4258 58.223 54.267 56.507C52.6053 55.6534 51.86 53.5065 50.1083 54.7909C48.5541 56.3447 51.9225 56.9828 52.7938 56.7583C53.6652 56.5338 54.6485 55.8129 53.2972 53.4887C51.7093 50.7579 46.8788 50.9286 46.8788 50.9286" stroke="#6996FD" stroke-width="0.566846" stroke-linecap="round"/>
<path d="M64.6278 43.2615C64.6278 43.2615 75.3235 43.5824 70.0665 55.9765C67.4638 60.9238 61.0177 63.0912 64.8095 68.3706C69.4135 73.0667 81.2018 68.9092 78.6688 55.9541C67.715 68.1306 68.0007 54.8145 61.0065 58.7901C52.7883 63.4614 59.6041 78.2653 59.6041 78.2653" stroke="#6996FD" stroke-width="0.566846" stroke-linecap="round"/>
</g>
<rect x="50" y="53.6763" width="6.63088" height="25.2171" rx="2" transform="rotate(-44.8482 50 53.6763)" stroke="black" stroke-width="0.5"/>
<path d="M54.7239 28C54.7239 42.7592 42.7592 54.7239 28 54.7239V55.2761C43.0642 55.2761 55.2761 43.0642 55.2761 28H54.7239ZM28 1.2761C42.7592 1.2761 54.7239 13.2408 54.7239 28H55.2761C55.2761 12.9358 43.0642 0.723903 28 0.723903V1.2761ZM1.2761 28C1.2761 13.2408 13.2408 1.2761 28 1.2761V0.723903C12.9358 0.723903 0.723903 12.9358 0.723903 28H1.2761ZM28 54.7239C13.2408 54.7239 1.2761 42.7592 1.2761 28H0.723903C0.723903 43.0642 12.9358 55.2761 28 55.2761V54.7239ZM49.7239 28C49.7239 39.9978 39.9978 49.7239 28 49.7239V50.2761C40.3027 50.2761 50.2761 40.3027 50.2761 28H49.7239ZM28 6.2761C39.9978 6.2761 49.7239 16.0022 49.7239 28H50.2761C50.2761 15.6973 40.3027 5.7239 28 5.7239V6.2761ZM6.2761 28C6.2761 16.0022 16.0022 6.2761 28 6.2761V5.7239C15.6973 5.7239 5.7239 15.6973 5.7239 28H6.2761ZM28 49.7239C16.0022 49.7239 6.2761 39.9978 6.2761 28H5.7239C5.7239 40.3027 15.6973 50.2761 28 50.2761V49.7239Z" fill="black"/>
<path d="M15 22C17 29.5 32.5 35.5 40.5 22" stroke="black" stroke-linecap="round"/>
<path d="M14 22C16 29.5 31.5 35.5 39.5 22" stroke="#F8B62D" stroke-width="4" stroke-linecap="round"/>
<path d="M16 23C18 30.5 33.5 36.5 41.5 23" stroke="black" stroke-linecap="round"/>
<path d="M15.5 32L19.5 28" stroke="black" stroke-linecap="round"/>
<path d="M21 35.5L23.5 30.5" stroke="black" stroke-linecap="round"/>
<path d="M28.5 37V31" stroke="black" stroke-linecap="round"/>
<path d="M36 36L33.5 30.5" stroke="black" stroke-linecap="round"/>
<path d="M41.5 32L37.5 28" stroke="black" stroke-linecap="round"/>
</svg>
