<!--
  - Copyright (c) 2022 NetEase, Inc. All rights reserved.
  - Use of this source code is governed by a MIT license that can be
  - found in the LICENSE file.
  -->

<svg width="28" height="28" viewBox="0 0 28 28" fill="none" xmlns="http://www.w3.org/2000/svg">
<circle cx="14" cy="14" r="14" fill="#4C4C4C"/>
<path fill-rule="evenodd" clip-rule="evenodd" d="M8 9C7.44775 9 7 9.44775 7 10V12C7 12.5522 7.44775 13 8 13H10C10.5522 13 11 12.5522 11 12V10C11 9.44775 10.5522 9 10 9H8ZM8 14C7.44775 14 7 14.4478 7 15V17C7 17.5522 7.44775 18 8 18H10C10.5522 18 11 17.5522 11 17V15C11 14.4478 10.5522 14 10 14H8ZM12 10C12 9.44775 12.4478 9 13 9H15C15.5522 9 16 9.44775 16 10V12C16 12.5522 15.5522 13 15 13H13C12.4478 13 12 12.5522 12 12V10ZM13 14C12.4478 14 12 14.4478 12 15V17C12 17.5522 12.4478 18 13 18H15C15.5522 18 16 17.5522 16 17V15C16 14.4478 15.5522 14 15 14H13ZM17 10C17 9.44775 17.4478 9 18 9H20C20.5522 9 21 9.44775 21 10V12C21 12.5522 20.5522 13 20 13H18C17.4478 13 17 12.5522 17 12V10ZM18 14C17.4478 14 17 14.4478 17 15V17C17 17.5522 17.4478 18 18 18H20C20.5522 18 21 17.5522 21 17V15C21 14.4478 20.5522 14 20 14H18Z" fill="white"/>
</svg>
