<!--
  - Copyright (c) 2022 NetEase, Inc. All rights reserved.
  - Use of this source code is governed by a MIT license that can be
  - found in the LICENSE file.
  -->

<svg width="36" height="36" viewBox="0 0 36 36" fill="none" xmlns="http://www.w3.org/2000/svg">
<path d="M18.375 29.9503V31.874C18.375 32.1724 18.2565 32.4585 18.0455 32.6695C17.8345 32.8805 17.5484 32.999 17.25 32.999C16.9516 32.999 16.6655 32.8805 16.4545 32.6695C16.2435 32.4585 16.125 32.1724 16.125 31.874V29.9503C9.61012 29.3803 4.5 23.9113 4.5 17.249V16.499C4.5 16.2007 4.61853 15.9145 4.82951 15.7035C5.04048 15.4925 5.32663 15.374 5.625 15.374C5.92337 15.374 6.20952 15.4925 6.4205 15.7035C6.63147 15.9145 6.75 16.2007 6.75 16.499V17.249C6.75 23.048 11.451 27.749 17.25 27.749C23.049 27.749 27.75 23.048 27.75 17.249V16.499C27.75 16.2007 27.8685 15.9145 28.0795 15.7035C28.2905 15.4925 28.5766 15.374 28.875 15.374C29.1734 15.374 29.4595 15.4925 29.6705 15.7035C29.8815 15.9145 30 16.2007 30 16.499V17.249C30 23.9116 24.8899 29.3803 18.375 29.9503ZM9.75 10.4953C9.75 6.35527 13.1074 2.99902 17.25 2.99902C21.3907 2.99902 24.75 6.3579 24.75 10.4953V17.2528C24.75 21.3928 21.3926 24.749 17.25 24.749C13.1092 24.749 9.75 21.3901 9.75 17.2528V10.4953ZM12 10.4953V17.2528C12 20.1478 14.3516 22.499 17.25 22.499C20.1502 22.499 22.5 20.1504 22.5 17.2528V10.4953C22.5 7.60027 20.1484 5.24902 17.25 5.24902C14.3497 5.24902 12 7.59765 12 10.4953Z" fill="white"/>
</svg>
