<!--
  - Copyright (c) 2022 NetEase, Inc. All rights reserved.
  - Use of this source code is governed by a MIT license that can be
  - found in the LICENSE file.
  -->

<svg width="26" height="26" viewBox="0 0 26 26" fill="none" xmlns="http://www.w3.org/2000/svg">
<path d="M17.2656 4.0625H20.5156C21.3009 4.0625 21.9375 4.69909 21.9375 5.48438V20.541C21.9375 21.3263 21.3009 21.9629 20.5156 21.9629H17.2656C16.4803 21.9629 15.8438 21.3263 15.8438 20.541V5.48438C15.8438 4.69909 16.4803 4.0625 17.2656 4.0625ZM5.48438 4.0625H8.73438C9.51966 4.0625 10.1562 4.69909 10.1562 5.48438V20.541C10.1562 21.3263 9.51966 21.9629 8.73438 21.9629H5.48438C4.69909 21.9629 4.0625 21.3263 4.0625 20.541V5.48438C4.0625 4.69909 4.69909 4.0625 5.48438 4.0625Z" fill="white"/>
</svg>
