<!--
  - Copyright (c) 2022 NetEase, Inc. All rights reserved.
  - Use of this source code is governed by a MIT license that can be
  - found in the LICENSE file.
  -->

<svg  t="1772693732368" class="icon" viewBox="0 0 1024 1024" version="1.1" xmlns="http://www.w3.org/2000/svg" p-id="5889" width="64" height="64"><path d="M950.857143 804.571429H73.142857a36.571429 36.571429 0 0 1 0-73.142858h73.142857V438.857143a365.714286 365.714286 0 0 1 731.428572 0v292.571428h73.142857a36.571429 36.571429 0 0 1 0 73.142858z m-142.409143-365.714286a296.448 296.448 0 1 0-592.896 0v292.571428h592.896V438.857143z" fill="#656A72" p-id="5890"></path><path d="M402.285714 877.714286a36.571429 36.571429 0 0 0 0 73.142857h219.428572a36.571429 36.571429 0 0 0 0-73.142857h-219.428572zM438.857143 73.142857a73.142857 73.142857 0 0 1 146.285714 0v36.571429H438.857143V73.142857z" fill="#656A72" p-id="5891"></path></svg>
