<!--
  - Copyright (c) 2022 NetEase, Inc. All rights reserved.
  - Use of this source code is governed by a MIT license that can be
  - found in the LICENSE file.
  -->

<svg width="24" height="24" viewBox="0 0 24 24" fill="none" xmlns="http://www.w3.org/2000/svg">
<path d="M12.9429 13.9055C12.8601 14.2894 12.3122 17.0355 14.124 15.4705C14.124 15.4705 15.0152 14.8674 13.7254 16.253C12.4356 17.6403 10.7869 18.0786 10.5954 17.0355C10.7315 15.4483 10.9932 13.8743 11.3779 12.3284C11.4184 11.972 10.9793 12.3284 10.9793 12.3284C10.9793 12.3284 9.70329 13.2342 9.41427 12.7261C9.37372 12.6433 9.81285 12.3284 9.81285 12.3284C9.81285 12.3284 12.4753 10.3648 13.3415 10.7633C14.2042 11.1593 13.0257 13.5207 12.9429 13.9055ZM14.2957 8.94726C14.1971 9.09823 14.0698 9.22831 13.9209 9.33007C13.7721 9.43182 13.6047 9.50327 13.4282 9.54032C13.2518 9.57737 13.0698 9.57931 12.8926 9.54601C12.7154 9.51272 12.5465 9.44485 12.3955 9.34628C12.2445 9.24771 12.1144 9.12038 12.0127 8.97154C11.9109 8.8227 11.8395 8.65527 11.8024 8.47883C11.7654 8.30238 11.7634 8.12036 11.7967 7.94316C11.83 7.76596 11.8979 7.59706 11.9965 7.44609C12.095 7.29512 12.2224 7.16504 12.3712 7.06329C12.5201 6.96153 12.6875 6.89009 12.8639 6.85303C13.0404 6.81598 13.2224 6.81405 13.3996 6.84734C13.5768 6.88063 13.7457 6.9485 13.8967 7.04707C14.0476 7.14564 14.1777 7.27298 14.2795 7.42182C14.3812 7.57065 14.4527 7.73808 14.4897 7.91453C14.5268 8.09098 14.5287 8.273 14.4954 8.45019C14.4621 8.62739 14.3943 8.7963 14.2957 8.94726Z" fill="#60CFA7"/>
<circle cx="12" cy="12" r="10" stroke="#60CFA7" stroke-width="1.72" stroke-linecap="round"/>
</svg>
