<svg xmlns="http://www.w3.org/2000/svg" fill="none" version="1.1" width="22.31353211402893" height="21.411726236343384" viewBox="0 0 22.31353211402893 21.411726236343384"><g><path d="M12.766581057014465,0.9678240900144653Q12.252604057014466,5.701446537109689e-8,11.156836057014464,5.701446537109689e-8Q10.061694257014466,5.701446537109689e-8,9.547345257014465,0.9670894070144653Q9.536349457014465,0.9877631810144654,9.523772357014465,1.0133116270144653L7.380756957014466,5.366944957014465L7.379302657014465,5.369906557014465Q7.064548657014465,6.012014557014465,6.357745257014465,6.114356657014465L6.356963257014465,6.114469157014465L1.5603272870144653,6.802911357014465Q1.5396220670144654,6.805882057014466,1.5226426770144652,6.808721657014465Q0.43554284701446533,6.990422357014466,0.09095740701446531,8.037910057014464Q-0.25187144298553465,9.081837757014465,0.5112834570144653,9.872527257014465Q0.5273523370144653,9.889176457014464,0.5473162870144653,9.908620957014465L4.021250857014465,13.292373057014466L4.023723957014465,13.294778057014465Q4.534452357014466,13.790567057014465,4.416680657014465,14.491303057014465L4.416572957014465,14.491950057014465L4.416414157014465,14.492875057014466L3.5923918570144653,19.279105057014466L3.5918387570144654,19.282289057014466L3.590859057014465,19.287866057014465Q3.3967951570144654,20.396310057014464,4.304478557014465,21.061467057014465Q5.217687757014465,21.730676057014467,6.219360457014465,21.202951057014467L11.045920057014465,18.659694057014466L11.049445057014465,18.657832057014467L11.051667057014466,18.656655057014465Q11.156697057014465,18.601033057014465,11.261816057014466,18.656703057014465L11.264814057014465,18.658290057014465L11.267726057014466,18.659825057014466L16.094090057014466,21.202981057014465Q17.095790057014465,21.730718057014464,18.009053057014466,21.061467057014465Q18.916738057014467,20.396308057014465,18.722438057014465,19.287292057014465L18.721782057014465,19.283565057014464L18.721240057014466,19.280480057014465L17.796104057014464,13.909813057014466L17.795890057014464,13.908667057014465L17.795878057014466,13.908597057014465Q17.777408057014465,13.793565057014465,17.861072057014464,13.712222057014465L17.862708057014466,13.710630057014466L21.766473057014466,9.908372057014466Q21.786254057014464,9.889096357014465,21.801742057014465,9.873062257014466Q22.565227057014464,9.082876357014465,22.222400057014465,8.037794757014465L22.222053057014467,8.036731357014466Q22.221524057014467,8.035128257014465,22.220996057014464,8.033527457014465Q21.875840057014464,6.988449657014465,20.788735057014467,6.808360257014465Q20.773561057014465,6.805844457014465,20.755158057014466,6.803183157014465L15.371278057014464,6.0244527570144655L15.366919057014465,6.023827657014466L15.363408057014466,6.023329857014465Q15.246009057014465,6.006666257014466,15.194109057014465,5.900977257014465L15.192972057014465,5.898659357014465L12.789866057014466,1.0135334770144653Q12.777491057014466,0.9883704190144653,12.766581057014465,0.9678240900144653ZM11.149344057014465,1.8173176070144654Q11.152058057014465,1.8135320570144653,11.156836057014464,1.8135320570144653Q11.161491057014466,1.8135320570144653,11.164065057014465,1.8170783470144654L13.565521057014465,6.698845457014466L13.565677057014465,6.699164057014466Q14.041285057014464,7.6673809570144655,15.108558057014465,7.818865457014465L15.111992057014465,7.819353257014465L15.113526057014464,7.819574457014466L20.493222057014464,8.597700757014465Q20.497844057014465,8.598892357014465,20.499330057014465,8.603418457014465L20.499974057014466,8.605373057014464L20.500009057014466,8.605471757014465Q20.500964057014464,8.608545457014465,20.498626057014466,8.611654357014466L16.597348057014464,12.411490057014465L16.596430057014466,12.412385057014465Q15.837131057014465,13.150598057014465,16.005368057014465,14.196640057014465L16.006705057014464,14.204793057014465L16.008309057014465,14.214268057014465L16.934030057014464,19.588340057014467L16.935329057014464,19.595784057014466L16.935439057014467,19.596416057014466L12.113142057014466,17.055404057014464L12.111229057014466,17.054393057014465L12.110390057014465,17.053948057014466Q11.156696057014466,16.548884057014465,10.202918157014466,17.053994057014464L10.200317457014465,17.055371057014465L10.200003757014466,17.055535057014467L5.377958457014465,19.596414057014464L5.378034257014465,19.595983057014465L5.379060357014465,19.590093057014464L6.2036515570144655,14.800574057014465L6.204054457014466,14.798228057014466L6.204633357014465,14.794828057014465Q6.481231357014465,13.152908057014466,5.286911157014465,11.993526057014465L5.285821557014465,11.992464057014466L1.8151590270144653,8.611900457014466Q1.8124772270144653,8.608252157014466,1.8139564370144652,8.603747457014466Q1.8155199870144654,8.598995357014466,1.8203991670144655,8.597699757014466L6.614611757014465,7.909606057014465L6.615898257014465,7.909420657014465Q8.271677657014465,7.6696730570144656,9.007715357014465,6.168136257014465L9.008350457014465,6.166844057014465L11.149344057014465,1.8173176070144654Z" fill-rule="evenodd" fill="#5B98FF" fill-opacity="1"/></g></svg>