<svg t="1775529944032" class="icon" viewBox="0 0 1024 1024" version="1.1" xmlns="http://www.w3.org/2000/svg" p-id="6136" width="64" height="64"><path d="M785.066667 128c42.24 0 76.8 34.56 76.8 76.8v614.4c0 42.24-34.56 76.8-76.8 76.8H324.266667c-42.24 0-76.8-34.56-76.8-76.8v-115.2h38.4c42.24 0 76.8-34.56 76.8-76.8s-34.56-76.8-76.8-76.8h-38.4v-76.8h38.4c42.24 0 76.8-34.56 76.8-76.8s-34.56-76.8-76.8-76.8h-38.4V204.8c0-42.24 34.56-76.8 76.8-76.8h460.8z m-38.4 192c-19.2 0-34.56 15.36-38.4 34.56v311.04c0 23.04 15.36 38.4 38.4 38.4 19.2 0 34.56-15.36 38.4-34.56V358.4c0-23.04-15.36-38.4-38.4-38.4zM285.866667 588.8c23.04 0 38.4 15.36 38.4 38.4s-15.36 38.4-38.4 38.4H209.066667c-23.04 0-38.4-15.36-38.4-38.4s15.36-38.4 38.4-38.4h76.8z m0-230.4c23.04 0 38.4 15.36 38.4 38.4s-15.36 38.4-38.4 38.4H209.066667c-23.04 0-38.4-15.36-38.4-38.4s15.36-38.4 38.4-38.4h76.8z" fill="#C5C9D2" p-id="6137"></path></svg>