<svg t="1774864989779" class="icon" viewBox="0 0 1024 1024" version="1.1" xmlns="http://www.w3.org/2000/svg" p-id="5984" width="64" height="64"><path d="M511.402667 85.333333q43.946667 0 64.597333 38.784l0.938667 1.834667 96.298666 195.882667 0.085334 0.042666q2.133333 4.266667 6.741333 4.949334h0.170667l0.170666 0.042666 215.893334 31.232 1.365333 0.213334q43.690667 7.253333 57.514667 49.322666 13.738667 41.856-16.938667 73.557334-0.597333 0.682667-1.408 1.450666l-156.501333 152.448-0.085334 0.085334q-3.370667 3.242667-2.56 7.850666l37.077334 215.424v0.128l0.085333 0.128q7.765333 44.501333-28.672 71.168-36.650667 26.837333-76.8 5.674667l-193.536-101.973333-0.085333-0.085334-0.085334-0.042666q-4.224-2.261333-8.533333 0h-0.042667l-0.085333 0.085333-193.578667 101.973333q-40.192 21.205333-76.8-5.632-36.352-26.666667-28.629333-71.125333l0.085333-0.213333v-0.128l33.066667-191.957334v-0.042666q4.693333-28.16-15.744-48l-0.170667-0.085334-139.221333-135.68-1.536-1.450666q-30.592-31.701333-16.810667-73.557334 13.824-42.026667 57.429334-49.322666l1.493333-0.213334 192.341333-27.605333q28.373333-4.096 40.96-29.866667l0.085334-0.085333 85.930666-174.592 0.938667-1.834667q20.608-38.826667 64.554667-38.826666z m2.517333 577.28q65.792 0 125.866667-55.04a32 32 0 0 0 10.282666-23.594666v-0.298667a32 32 0 0 0-32-31.701333h-0.170666a32.085333 32.085333 0 0 0-21.461334 8.405333q-41.642667 38.229333-82.517333 38.229333-41.728 0-88.661333-39.210666a32 32 0 1 0-41.002667 49.109333q64.768 54.101333 129.664 54.101333z" fill="#2A6BF2" p-id="5985"></path></svg>