<svg t="1775530332810" class="icon" viewBox="0 0 1024 1024" version="1.1" xmlns="http://www.w3.org/2000/svg" p-id="6593" width="64" height="64"><path d="M861.866667 204.8c0-42.24-34.56-76.8-76.8-76.8H324.266667c-42.24 0-76.8 34.56-76.8 76.8v115.2h38.4c42.24 0 76.8 34.56 76.8 76.8s-34.56 76.8-76.8 76.8h-38.4v76.8h38.4c42.24 0 76.8 34.56 76.8 76.8s-34.56 76.8-76.8 76.8h-38.4v115.2c0 42.24 34.56 76.8 76.8 76.8h460.8c42.24 0 76.8-34.56 76.8-76.8V204.8z m-115.328 115.2h0.128c23.04 0 38.4 15.36 38.4 38.4v311.04c-3.84 19.157333-19.157333 34.517333-38.314667 34.56H746.666667c-23.04 0-38.4-15.36-38.4-38.4V354.56c3.84-19.2 19.114667-34.517333 38.272-34.56z" fill="#2A6BF2" p-id="6594"></path><path d="M324.266667 627.2c0-23.04-15.36-38.4-38.4-38.4H209.066667c-23.04 0-38.4 15.36-38.4 38.4s15.36 38.4 38.4 38.4h76.8c23.04 0 38.4-15.36 38.4-38.4zM324.266667 396.8c0-23.04-15.36-38.4-38.4-38.4H209.066667c-23.04 0-38.4 15.36-38.4 38.4s15.36 38.4 38.4 38.4h76.8c23.04 0 38.4-15.36 38.4-38.4z" fill="#2A6BF2" p-id="6595"></path></svg>