<svg t="1775529972547" class="icon" viewBox="0 0 1024 1024" version="1.1" xmlns="http://www.w3.org/2000/svg" p-id="6288" width="64" height="64"><path d="M381.226667 64c-180.48 0-327.936 122.325333-327.936 273.706667 0 132.522667 114.56 240.128 263.509333 265.6v177.28s386.389333-230.698667 386.389333-450.944c0-172.16-141.482667-265.642667-321.962666-265.642667zM1023.104 575.744c-9.386667 108.245333-101.418667 188.373333-227.285333 198.528l-18.133334 136.405333-229.674666-212.949333c108.032-87.68 233.856-216.661333 233.856-342.357333 0-9.813333-2.048-18.474667-2.986667-27.818667 5.376 0.213333 11.392 0.341333 15.872 0.725333 150.442667 12.970667 239.104 123.690667 228.352 247.466667z" fill="#C5C9D2" p-id="6289"></path></svg>