<svg t="1774871825434" class="icon" viewBox="0 0 1024 1024" version="1.1" xmlns="http://www.w3.org/2000/svg" p-id="6288" width="64" height="64"><path d="M853.333333 689.929078c7.262411-7.262411 21.787234-14.524823 29.049646-14.524823 14.524823 0 29.049645 7.262411 36.312056 14.524823 7.262411 7.262411 14.524823 21.787234 14.524823 36.312057v108.93617c0 14.524823 14.524823 29.049645 29.049646 29.049645s29.049645-14.524823 29.049645-29.049645V718.978723c0-29.049645-7.262411-58.099291-21.787234-72.624113-14.524823-14.524823-36.312057-21.787234-65.361702-21.787234-14.524823 0-29.049645 0-36.312057 7.262411-7.262411 0-14.524823 7.262411-14.524823 7.262412h-7.262411c0-7.262411-7.262411-14.524823-14.524823-14.524823h-14.524822c-14.524823 0-29.049645 14.524823-29.049646 29.049645v174.297873c0 14.524823 14.524823 29.049645 29.049646 29.049645s29.049645-14.524823 29.049645-29.049645V726.241135c-7.262411-14.524823 0-29.049645 7.262411-36.312057z m-319.546099-145.248227c-14.524823 0-29.049645 14.524823-29.049645 29.049645v261.446809c0 14.524823 14.524823 29.049645 29.049645 29.049645h181.560284c14.524823 0 29.049645-14.524823 29.049645-29.049645s-14.524823-29.049645-29.049645-29.049645H584.624113c-14.524823 0-21.787234-7.262411-21.787234-21.787234v-43.574469c0-14.524823 7.262411-21.787234 21.787234-21.787234h116.198582c14.524823 0 29.049645-14.524823 29.049645-29.049645s-14.524823-14.524823-29.049645-14.524823H584.624113c-14.524823 0-21.787234-7.262411-21.787234-21.787234v-36.312056c0-14.524823 7.262411-21.787234 21.787234-21.787235h123.460993c14.524823 0 29.049645-14.524823 29.049646-29.049645s-14.524823-29.049645-29.049646-29.049645H533.787234z" p-id="6289"></path><path d="M962.269504 871.489362c-14.524823 0-36.312057-14.524823-36.312057-36.312057V726.241135c0-14.524823 0-29.049645-7.262412-36.312057-7.262411-7.262411-14.524823-14.524823-29.049645-14.524823-7.262411 0-21.787234 0-29.049645 7.262412-7.262411 7.262411-14.524823 21.787234-14.524823 36.312056v108.936171c0 14.524823-14.524823 36.312057-36.312057 36.312056s-36.312057-14.524823-36.312056-36.312056V660.879433c0-14.524823 14.524823-36.312057 36.312056-36.312057h14.524823c7.262411 0 14.524823 7.262411 14.524823 14.524823 7.262411-7.262411 14.524823-7.262411 14.524822-14.524823 14.524823-7.262411 21.787234-7.262411 43.574468-7.262411 29.049645 0 50.836879 7.262411 65.361703 29.049645 14.524823 14.524823 21.787234 43.574468 21.787234 72.624113v116.198582c7.262411 21.787234-7.262411 36.312057-21.787234 36.312057z m-79.886525-196.085107c14.524823 0 29.049645 7.262411 36.312056 14.524823 7.262411 7.262411 14.524823 21.787234 14.524823 43.574468v108.93617c0 14.524823 14.524823 21.787234 21.787234 21.787234 14.524823 0 21.787234-14.524823 21.787234-21.787234V718.978723c0-29.049645-7.262411-50.836879-21.787234-65.361702-14.524823-14.524823-36.312057-21.787234-65.361702-21.787234-14.524823 0-29.049645 0-36.312057 7.262412-7.262411 0-7.262411 7.262411-14.524822 7.262411h-7.262412l-7.262411-7.262411c0-7.262411 0-7.262411-7.262411-7.262412H802.496454c-14.524823 0-21.787234 14.524823-21.787234 21.787234v174.297873c0 14.524823 14.524823 21.787234 21.787234 21.787234s21.787234-14.524823 21.787234-21.787234V726.241135c0-14.524823 7.262411-29.049645 14.524823-43.574468 21.787234-7.262411 36.312057-7.262411 43.574468-7.262412z m-159.77305 196.085107H533.787234c-14.524823 0-36.312057-14.524823-36.312057-36.312057V573.730496c0-14.524823 14.524823-36.312057 36.312057-36.312056h174.297872c14.524823 0 29.049645 14.524823 29.049646 29.049645s-14.524823 29.049645-29.049646 29.049645H584.624113c-7.262411 0-14.524823 7.262411-14.524822 14.524823v36.312057c0 7.262411 7.262411 14.524823 14.524822 14.524823h116.198582c14.524823 0 29.049645 14.524823 29.049645 29.049645s-7.262411 43.574468-29.049645 43.574468H584.624113c-7.262411 0-14.524823 7.262411-14.524822 14.524823v43.574468c0 7.262411 7.262411 14.524823 14.524822 14.524823h130.723405c14.524823 0 29.049645 14.524823 29.049645 29.049645s-7.262411 36.312057-21.787234 36.312057zM533.787234 551.943262c-7.262411 0-21.787234 14.524823-21.787234 21.787234v261.446809c0 14.524823 14.524823 21.787234 21.787234 21.787234h181.560284c14.524823 0 21.787234-7.262411 21.787234-21.787234s-7.262411-21.787234-21.787234-21.787234H584.624113c-14.524823 0-21.787234-14.524823-21.787234-21.787234v-43.574468c0-14.524823 7.262411-21.787234 21.787234-21.787234h116.198582c14.524823 0 21.787234-7.262411 21.787234-21.787234s-7.262411-21.787234-21.787234-21.787234H584.624113c-14.524823 0-21.787234-14.524823-21.787234-21.787234v-43.574468c0-14.524823 14.524823-21.787234 21.787234-21.787235h123.460993c14.524823 0 21.787234-7.262411 21.787234-21.787234s-7.262411-21.787234-14.524822-21.787234H533.787234zM504.737589 980.425532C243.29078 980.425532 25.41844 769.815603 25.41844 501.106383c0-21.787234 14.524823-36.312057 36.312056-36.312057s36.312057 14.524823 36.312057 36.312057c0 225.134752 181.560284 406.695035 406.695036 406.695035 21.787234 0 36.312057 14.524823 36.312056 36.312057s-14.524823 36.312057-36.312056 36.312057zM947.744681 537.41844c-21.787234 0-36.312057-14.524823-36.312057-36.312057 0-225.134752-181.560284-406.695035-406.695035-406.695035-14.524823 0-36.312057-14.524823-36.312057-29.049646s14.524823-36.312057 36.312057-36.312057c261.446809 0 479.319149 210.609929 479.319149 479.319149 0 14.524823-14.524823 29.049645-36.312057 29.049646z" p-id="6290"></path><path d="M221.503546 0c-14.524823 0-29.049645 14.524823-29.049645 29.049645V79.886525c0 14.524823-7.262411 21.787234-21.787234 21.787234H61.730496c-14.524823 0-29.049645 14.524823-29.049645 29.049645V297.758865c0 14.524823 14.524823 29.049645 29.049645 29.049646H76.255319c7.262411 0 14.524823-7.262411 14.524823-14.524823s0-7.262411 7.262411-7.262411h72.624114c14.524823 0 21.787234 7.262411 21.787234 21.787234v101.673759c0 14.524823 14.524823 29.049645 29.049645 29.049645s29.049645-14.524823 29.049645-29.049645V319.546099c0-14.524823 7.262411-21.787234 21.787235-21.787234h72.624113c7.262411 0 7.262411 0 7.262411 7.262412s7.262411 14.524823 14.524823 14.524822h14.524823c14.524823 0 29.049645-14.524823 29.049645-29.049645V130.723404c0-14.524823-14.524823-29.049645-29.049645-29.049645H272.340426c-14.524823 0-21.787234-14.524823-21.787235-21.787234V29.049645c0-14.524823-14.524823-29.049645-29.049645-29.049645zM112.567376 246.921986c-14.524823 0-21.787234-14.524823-21.787234-21.787234v-50.83688c0-14.524823 7.262411-21.787234 21.787234-21.787234h58.099291c14.524823 0 21.787234 7.262411 21.787234 21.787234V225.134752c0 14.524823-7.262411 21.787234-21.787234 21.787234h-58.099291z m159.77305 0c-14.524823 0-21.787234-14.524823-21.787235-21.787234v-50.83688c0-14.524823 7.262411-21.787234 21.787235-21.787234h58.09929c14.524823 0 21.787234 7.262411 21.787234 21.787234V225.134752c0 14.524823-7.262411 21.787234-21.787234 21.787234h-58.09929z" p-id="6291"></path><path d="M221.503546 450.269504c-14.524823 0-29.049645-14.524823-29.049645-29.049646V319.546099c0-7.262411-7.262411-14.524823-14.524823-14.524822h-72.624113s-7.262411 0-7.262412 7.262411c0 14.524823-7.262411 21.787234-21.787234 21.787234H61.730496C47.205674 326.808511 32.680851 312.283688 32.680851 297.758865V130.723404c0-21.787234 14.524823-36.312057 36.312057-36.312056h108.93617c7.262411 0 14.524823-7.262411 14.524823-14.524823V29.049645c0-14.524823 14.524823-29.049645 29.049645-29.049645s29.049645 14.524823 29.049645 29.049645V79.886525c0 7.262411 7.262411 14.524823 14.524823 14.524823h108.93617c21.787234 0 36.312057 14.524823 36.312057 36.312056V297.758865c0 14.524823-14.524823 29.049645-29.049645 29.049646H366.751773c-14.524823 0-21.787234-7.262411-21.787234-21.787234 0 0 0-7.262411-7.262411-7.262412h-72.624114c-7.262411 0-14.524823 7.262411-14.524823 14.524823v101.673759c0 21.787234-14.524823 36.312057-29.049645 36.312057zM98.042553 297.758865h72.624114c14.524823 0 21.787234 14.524823 21.787234 21.787234v101.673759c7.262411 14.524823 14.524823 21.787234 29.049645 21.787234s21.787234-7.262411 21.787234-21.787234V319.546099c0-14.524823 14.524823-21.787234 29.049646-21.787234h72.624113c7.262411 0 7.262411 0 7.262411 7.262412s7.262411 14.524823 14.524823 14.524822h14.524823c14.524823 0 21.787234-7.262411 21.787234-21.787234V130.723404c0-14.524823-14.524823-21.787234-21.787234-21.787234H272.340426c-14.524823-7.262411-29.049645-14.524823-29.049646-29.049645V29.049645C243.29078 14.524823 236.028369 7.262411 221.503546 7.262411s-21.787234 7.262411-21.787234 21.787234V79.886525c0 14.524823-14.524823 21.787234-21.787234 21.787234H61.730496c-14.524823 0-21.787234 14.524823-21.787234 21.787234V297.758865c0 14.524823 7.262411 21.787234 21.787234 21.787234H76.255319c7.262411 0 14.524823-7.262411 14.524823-14.524822s0-7.262411 7.262411-7.262412z m232.397163-50.836879h-58.09929c-14.524823 0-29.049645-7.262411-29.049646-21.787234v-50.83688c0-14.524823 14.524823-21.787234 21.787234-21.787234h58.099291c14.524823 0 21.787234 14.524823 21.787234 21.787234V225.134752c7.262411 14.524823 0 21.787234-14.524823 21.787234z m-58.09929-87.148936c-7.262411 0-14.524823 7.262411-14.524823 14.524822V225.134752c0 7.262411 7.262411 14.524823 14.524823 14.524822h58.09929c7.262411 0 14.524823-7.262411 14.524823-14.524822v-50.83688c0-7.262411-7.262411-14.524823-14.524823-14.524822h-58.09929zM170.666667 246.921986h-58.099291c-14.524823 0-29.049645-7.262411-29.049646-21.787234v-50.83688c0-14.524823 14.524823-21.787234 21.787235-21.787234h58.09929c14.524823 0 21.787234 14.524823 21.787234 21.787234V225.134752c14.524823 14.524823 0 21.787234-14.524822 21.787234z m-58.099291-87.148936c-7.262411 0-14.524823 7.262411-14.524823 14.524822V225.134752c0 7.262411 7.262411 14.524823 14.524823 14.524822h58.099291c7.262411 0 14.524823-7.262411 14.524822-14.524822v-50.83688c0-7.262411-7.262411-14.524823-14.524822-14.524822h-58.099291z" p-id="6292"></path></svg>