<svg t="1774871851628" class="icon" viewBox="0 0 1024 1024" version="1.1" xmlns="http://www.w3.org/2000/svg" p-id="6443" width="64" height="64"><path d="M731.428571 987.428571H197.485714c-87.771429 0-160.914286-73.142857-160.914285-160.914285V197.485714C36.571429 109.714286 109.714286 36.571429 197.485714 36.571429H731.428571c87.771429 0 160.914286 73.142857 160.914286 160.914285v29.257143c0 21.942857-14.628571 36.571429-36.571428 36.571429s-36.571429-14.628571-36.571429-36.571429v-29.257143c0-51.2-36.571429-87.771429-87.771429-87.771428H197.485714c-51.2 0-87.771429 36.571429-87.771428 87.771428v629.028572c0 51.2 36.571429 87.771429 87.771428 87.771428H731.428571c51.2 0 87.771429-36.571429 87.771429-87.771428v-29.257143c0-21.942857 14.628571-36.571429 36.571429-36.571429s36.571429 14.628571 36.571428 36.571429v29.257143c0 87.771429-73.142857 160.914286-160.914286 160.914285z" p-id="6444"></path><path d="M950.857143 548.571429H541.257143c-14.628571 0-36.571429-14.628571-36.571429-36.571429s14.628571-36.571429 36.571429-36.571429H950.857143c21.942857 0 36.571429 14.628571 36.571428 36.571429s-14.628571 36.571429-36.571428 36.571429z" p-id="6445"></path><path d="M950.857143 548.571429c-7.314286 0-21.942857 0-29.257143-7.314286l-153.6-153.6c-14.628571-14.628571-14.628571-36.571429 0-51.2s36.571429-14.628571 51.2 0l153.6 153.6c14.628571 14.628571 14.628571 36.571429 0 51.2 0 7.314286-14.628571 7.314286-21.942857 7.314286z" p-id="6446"></path><path d="M797.257143 702.171429c-7.314286 0-21.942857 0-29.257143-7.314286-14.628571-14.628571-14.628571-36.571429 0-51.2l153.6-153.6c14.628571-14.628571 36.571429-14.628571 51.2 0s14.628571 36.571429 0 51.2l-153.6 153.6c-7.314286 7.314286-14.628571 7.314286-21.942857 7.314286z" p-id="6447"></path></svg>