<svg t="1774872704176" class="icon" viewBox="0 0 1024 1024" version="1.1" xmlns="http://www.w3.org/2000/svg" p-id="6750" width="64" height="64"><path d="M554.666667 281.6H128c-17.066667 0-25.6-8.533333-25.6-25.6s8.533333-25.6 25.6-25.6h426.666667c17.066667 0 29.866667 12.8 29.866666 25.6s-12.8 25.6-29.866666 25.6zM554.666667 452.266667H128c-17.066667 0-25.6-12.8-25.6-25.6s8.533333-25.6 25.6-25.6h426.666667c17.066667 0 29.866667 12.8 29.866666 25.6s-12.8 25.6-29.866666 25.6zM554.666667 627.2H128c-17.066667 0-25.6-12.8-25.6-29.866667s12.8-29.866667 25.6-29.866666h426.666667c17.066667 0 29.866667 12.8 29.866666 29.866666s-12.8 29.866667-29.866666 29.866667zM554.666667 797.866667H128c-17.066667 0-25.6-12.8-25.6-29.866667s12.8-29.866667 25.6-29.866667h426.666667c17.066667 0 29.866667 12.8 29.866666 29.866667s-12.8 29.866667-29.866666 29.866667zM725.333333 776.533333c-8.533333 0-12.8-4.266667-17.066666-8.533333-12.8-8.533333-12.8-29.866667 0-38.4l196.266666-217.6-196.266666-217.6c-8.533333-12.8-8.533333-29.866667 0-38.4s29.866667-8.533333 38.4 0l200.533333 221.866667c17.066667 17.066667 17.066667 46.933333 0 64l-200.533333 221.866666c-4.266667 8.533333-12.8 12.8-21.333334 12.8z m179.2-260.266666z" p-id="6751"></path></svg>