<!-- Copyright (c) 2022 NetEase, Inc. All rights reserved. -->
<!-- Use of this source code is governed by a MIT license that can be -->
<!-- found in the LICENSE file. -->

<svg width="16" height="16" viewBox="0 0 16 16" fill="none" xmlns="http://www.w3.org/2000/svg">
<rect width="16" height="16" transform="matrix(-1 0 0 1 16 0)" fill="white"/>
<path d="M5.10333 3.51229C4.86301 3.27197 4.86301 2.88233 5.10333 2.64201C5.34365 2.40168 5.73329 2.40168 5.97361 2.64201L5.10333 3.51229ZM10.4615 8.00023L10.8967 7.56508C11.137 7.80541 11.137 8.19505 10.8967 8.43537L10.4615 8.00023ZM6.28131 13.0508C6.04098 13.2911 5.65134 13.2911 5.41102 13.0508C5.1707 12.8104 5.1707 12.4208 5.41102 12.1805L6.28131 13.0508ZM5.97361 2.64201L10.8967 7.56508L10.0264 8.43537L5.10333 3.51229L5.97361 2.64201ZM10.8967 8.43537L6.28131 13.0508L5.41102 12.1805L10.0264 7.56508L10.8967 8.43537Z" fill="#999999"/>
</svg>
