<svg t="1774871938010" class="icon" viewBox="0 0 1024 1024" version="1.1" xmlns="http://www.w3.org/2000/svg" p-id="6598" width="64" height="64"><path d="M769.2288 911.36a173.4144 173.4144 0 0 0 63.8976-68.9152l137.728-269.4656a173.312 173.312 0 0 0 0-157.8496l-137.728-269.4656a173.4656 173.4656 0 0 0-154.368-94.4128H365.2096A173.3632 173.3632 0 0 0 211.456 144.384L70.8608 413.8496a173.3632 173.3632 0 0 0 0 160.4096l140.6464 269.4144a173.3632 173.3632 0 0 0 153.7024 93.184h313.5488c31.8976 0 63.232-8.8064 90.4704-25.4464z m-302.7456-267.264a175.104 175.104 0 1 1 134.0416-323.584 175.104 175.104 0 0 1-134.0416 323.584z" fill="#C5C9D2" p-id="6599"></path></svg>