<!--
  - Copyright (c) 2022 NetEase, Inc. All rights reserved.
  - Use of this source code is governed by a MIT license that can be
  - found in the LICENSE file.
  -->

<svg width="24" height="24" viewBox="0 0 24 24" fill="none" xmlns="http://www.w3.org/2000/svg">
<path d="M22.7699 10.246C22.6392 9.55516 22.2154 9.10842 21.6727 9.10842H21.5786C20.1121 9.10842 18.9193 7.91563 18.9193 6.44871C18.9193 5.9853 19.1416 5.4569 19.1502 5.4359C19.4208 4.82706 19.2132 4.08095 18.6658 3.69802L15.914 2.16581L15.8735 2.14601C15.323 1.90727 14.5695 2.06008 14.159 2.48774C13.8619 2.79412 12.8378 3.66772 12.0564 3.66772C11.2648 3.66772 10.2384 2.7766 9.93982 2.4644C9.53004 2.03362 8.78432 1.8719 8.22758 2.11023L5.37777 3.67161L5.33499 3.69884C4.78757 4.08024 4.57919 4.82632 4.84825 5.43283C4.85754 5.45501 5.08074 5.9791 5.08074 6.44873C5.08074 7.91566 3.88792 9.10845 2.42144 9.10845H2.31025C1.7846 9.10845 1.36081 9.55516 1.23018 10.246C1.22045 10.2947 1 11.4638 1 12.4011C1 13.3373 1.22045 14.506 1.23018 14.5542C1.36081 15.2455 1.7846 15.6926 2.32733 15.6926H2.42144C3.88792 15.6926 5.08074 16.8854 5.08074 18.3519C5.08074 18.8185 4.85757 19.3449 4.84902 19.3651C4.57921 19.9751 4.78606 20.72 5.3319 21.1011L8.03164 22.6158L8.07285 22.6345C8.63116 22.8802 9.38617 22.72 9.79442 22.2737C10.1715 21.8662 11.1933 21.0202 11.9436 21.0202C12.7569 21.0202 13.8044 21.9673 14.1061 22.3001C14.3844 22.6049 14.8121 22.7885 15.2499 22.7885C15.4544 22.7885 15.648 22.748 15.8253 22.6718L18.6246 21.1291L18.6658 21.1026C19.2132 20.7201 19.4216 19.9751 19.1518 19.3683C19.1425 19.3457 18.9193 18.8216 18.9193 18.352C18.9193 16.8855 20.1121 15.6927 21.5786 15.6927H21.6883C22.2147 15.6927 22.6392 15.2455 22.7699 14.5542C22.7792 14.506 23 13.3373 23 12.4012C23 11.4637 22.7792 10.2946 22.7699 10.246ZM21.4045 12.4011C21.4045 13.0068 21.2839 13.7852 21.2287 14.1102C19.0289 14.2906 17.3237 16.1288 17.3237 18.3519C17.3237 18.9794 17.5228 19.5805 17.6285 19.8569L15.2406 21.1757C15.1231 21.0529 14.7763 20.7029 14.3044 20.3514C13.4755 19.7372 12.6807 19.4234 11.9436 19.4234C11.2127 19.4234 10.4242 19.7294 9.59922 20.3359C9.12956 20.678 8.78745 21.0186 8.66768 21.1445L6.37073 19.8585C6.48271 19.568 6.67634 18.9747 6.67634 18.3519C6.67634 16.1288 4.97111 14.2906 2.77213 14.1102C2.71614 13.7852 2.5956 13.0068 2.5956 12.4011C2.5956 11.7942 2.71614 11.0154 2.77213 10.6904C4.97111 10.5104 6.67634 8.67182 6.67634 6.44873C6.67634 5.82473 6.47728 5.22173 6.37152 4.94567L8.81857 3.60084C8.92509 3.7074 9.27422 4.04912 9.75164 4.38893C10.565 4.96939 11.3395 5.26332 12.0564 5.26332C12.7663 5.26332 13.5353 4.97485 14.3433 4.40565C14.8246 4.06741 15.1729 3.73035 15.274 3.63509L17.6293 4.94334C17.5228 5.21783 17.3237 5.81889 17.3237 6.44873C17.3237 8.67182 19.0289 10.5104 21.2287 10.6904C21.2839 11.0162 21.4045 11.7981 21.4045 12.4011Z" fill="#F9B751"/>
<path d="M11.9516 8.4751C9.79384 8.4751 8.03809 10.2309 8.03809 12.3887C8.03809 14.5468 9.79387 16.3018 11.9516 16.3018C14.1094 16.3018 15.8652 14.5468 15.8652 12.3887C15.8652 10.2309 14.1094 8.4751 11.9516 8.4751ZM14.2696 12.3887C14.2696 13.6666 13.23 14.7062 11.9516 14.7062C10.6733 14.7062 9.63443 13.6666 9.63443 12.3887C9.63443 11.1115 10.6733 10.0715 11.9516 10.0715C13.23 10.0715 14.2696 11.1115 14.2696 12.3887Z" fill="#F9B751"/>
</svg>
