<svg width="110" height="90" viewBox="0 0 110 90" fill="none" xmlns="http://www.w3.org/2000/svg">
<path d="M54 5.55102C54 4.69441 54.6944 4 55.551 4H104.02C104.877 4 105.571 4.69442 105.571 5.55102V53.6327C105.571 54.4893 104.877 55.1837 104.02 55.1837H55.551C54.6944 55.1837 54 54.4893 54 53.6327V5.55102Z" fill="#2A6BF2"/>
<path d="M101 49.5L104.5 53" stroke="#FECD2E" stroke-linecap="round"/>
<path d="M105.5 47.5L104.5 49" stroke="#FECD2E" stroke-linecap="round"/>
<path d="M101.5 37C101.9 37.4 103.667 39.1667 104.5 40" stroke="#FECD2E" stroke-linecap="round"/>
<path d="M101.5 42.5L102.5 47.5" stroke="#FECD2E" stroke-linecap="round"/>
<path d="M103.5 37L102.5 43.5" stroke="#FECD2E" stroke-linecap="round"/>
<path d="M104 25V26" stroke="#FECD2E" stroke-linecap="round"/>
<path d="M102.5 21C101.5 20 100.1 18 102.5 18" stroke="#FECD2E" stroke-linecap="round"/>
<rect x="48" y="4" width="51.5714" height="51.1837" rx="1.55102" fill="#F6F8FA"/>
<path d="M57.5 55.1837H98.0204C98.877 55.1837 99.5714 54.4893 99.5714 53.6327V5.55102C99.5714 4.69442 98.877 4 98.0204 4H49.551C48.6944 4 48 4.69378 48 5.55038C48 18.051 48 31.5848 48 41.5" stroke="black" stroke-linecap="round"/>
<path d="M73.3545 11.1738C73.3545 11.1738 81.4974 11.3677 84.4056 14.2759C90.0281 19.8983 87.5076 32.6942 87.5076 32.6942C87.5076 32.6942 96.01 30.5306 99.4998 41" stroke="black" stroke-linecap="round"/>
<path d="M68.9472 55.0205V45.5102C68.9472 45.5102 65.0697 47.4925 59.835 45.9415C54.1405 43.9592 54.4064 33.5329 55.9574 25.0023C57.8961 11.4308 66.039 11.4308 66.039 11.4308C66.039 11.4308 72.6308 10.4615 74.1818 11.4308C79.337 17.6173 80.4656 23.2896 80.6429 27.4796M84.7157 33.6837C88.1075 35.4083 91.6308 39.2378 91.6308 45.9415C94.8926 46.4308 97.4796 48.0205 99.4796 51.5205" stroke="black" stroke-linecap="round"/>
<path d="M68.5 55C68.5 53.5 67.5 45.5 67.5 45.5C67.5 45.5 69 45 71.5 43.5C72.8879 42.6673 74.5 40.5 74.5 40.5C74.5 40.5 71.6875 51.3543 70 55H68.5Z" fill="black"/>
<path d="M61.3691 14.7168C61.3691 14.7168 62.4638 19.9945 65.7017 21.9271C67.3207 22.8934 68.7177 22.3813 68.5992 20.5851C68.2738 19.4246 67.0541 18.8519 66.6441 20.6518C66.234 22.4518 69.2306 25.1261 70.9578 25.2195C72.6851 25.3129 73.3268 23.8813 73.0569 23.0904C72.8545 22.4972 71.9898 22.7431 71.8447 23.5747C71.6415 24.7389 71.9669 25.8994 74.3547 27.2038C75.7186 27.8737 78.3835 28.8665 78.3835 28.8665" stroke="black" stroke-linecap="round"/>
<path d="M80.5283 27.4591C80.9936 27.1489 85.3754 25.1044 85.957 30.1457C85.957 33.6925 81.9008 36.7542 81.2096 37.2501C81.1479 37.2944 81.1183 37.3683 81.1312 37.4432L84.1775 55.1836" stroke="black" stroke-linecap="round" stroke-linejoin="round"/>
<path d="M61.0043 24.5508C61.7795 28.4291 58.4836 30.9495 59.6468 32.3059C60.6162 33.4362 62.7489 32.3059 62.7489 32.3059" stroke="black" stroke-linecap="round"/>
<path d="M68.3145 45.6835C69.4777 45.3604 71.6104 44.3264 72.7736 43.1631" stroke="black" stroke-linecap="round"/>
<path d="M5 47.0412V72.1194C5 72.4256 5.33827 72.611 5.59638 72.4462L14.1122 67.0106H52.6939C53.3363 67.0106 53.8571 66.4898 53.8571 65.8473V47.0412C53.8571 46.3987 53.3363 45.8779 52.6939 45.8779H6.16327C5.52081 45.8779 5 46.3987 5 47.0412Z" fill="#2A6BF2"/>
<path d="M62.7754 39.0917C63.6155 39.738 65.6836 40.1386 67.2346 36.5713" stroke="black" stroke-linecap="round"/>
<path d="M70.9998 62.3262H39.5099C38.8675 62.3262 38.3467 62.847 38.3467 63.4894V80.3874C38.3467 81.0298 38.8675 81.5507 39.5099 81.5507H74.0201L80.5771 85.8127C81.093 86.148 81.7752 85.7778 81.7752 85.1625V63.4894C81.7752 62.847 81.2544 62.3262 80.6119 62.3262C79.2998 62.3262 78.1234 62.3262 76.9998 62.3262" stroke="black" stroke-linecap="round"/>
<path d="M28.1753 32.9544L30.6767 48.4988C30.7245 48.7959 30.4303 49.0319 30.1506 48.9207L15.3209 43.0245C15.0427 42.914 14.9894 42.5433 15.2252 42.3589L27.5535 32.7106C27.786 32.5287 28.1284 32.6629 28.1753 32.9544Z" stroke="#F87F81"/>
<circle cx="41.061" cy="24.9389" r="2.71429" fill="#FECD2E"/>
<circle cx="49.9287" cy="71.8057" r="1.5" stroke="black"/>
<circle cx="58.8467" cy="71.8057" r="1.5" stroke="black"/>
<circle cx="67.7656" cy="71.8057" r="1.5" stroke="black"/>
<circle cx="25.9388" cy="73.0208" r="1.93878" fill="#F87F81"/>
<rect x="38.3076" y="78.0615" width="5.42857" height="5.42857" rx="0.77551" transform="rotate(45 38.3076 78.0615)" fill="#FECD2E"/>
<rect x="92.9814" y="58.6738" width="3.87755" height="3.87755" rx="0.77551" transform="rotate(45 92.9814 58.6738)" fill="#F87F81"/>
</svg>
