<!-- Copyright (c) 2022 NetEase, Inc. All rights reserved. -->
<!-- Use of this source code is governed by a MIT license that can be -->
<!-- found in the LICENSE file. -->

<svg width="32" height="32" viewBox="0 0 32 32" fill="none" xmlns="http://www.w3.org/2000/svg">
<path fill-rule="evenodd" clip-rule="evenodd" d="M18.449 22.616L25.6861 22.3543L15.0742 11.2515L11.137 14.9524L18.449 22.616Z" fill="#2A6BF2"/>
<path fill-rule="evenodd" clip-rule="evenodd" d="M27.5608 15.8512C25.1984 18.1316 22.9861 20.2251 21.4862 21.7204C21.1112 22.2064 20.4737 22.5802 19.4238 22.5428C18.7113 22.5428 18.1114 22.2438 17.6989 21.7578H17.6614C18.1114 22.2438 18.8613 22.9914 18.8613 22.9914C19.2738 23.4026 19.8363 23.6643 20.5112 23.7017H20.5487C20.5862 23.7017 20.6237 23.7017 20.6237 23.7017H25.9484C26.6234 23.7017 27.2233 23.5148 27.6733 23.141C27.6733 23.141 27.7108 23.1036 27.7483 23.1036C27.7858 23.0662 27.7858 23.0662 27.8233 23.0288C28.1233 22.7297 28.9482 21.9821 29.8857 21.0849C31.3106 19.1036 30.8981 12.2624 27.5608 15.8512Z" fill="#2A6BF2"/>
<path fill-rule="evenodd" clip-rule="evenodd" d="M31.4611 13.1636C31.4611 12.416 31.2361 11.7805 30.7862 11.2945L20.7742 1.12626L20.6618 1.08888C20.3993 0.677662 19.9118 0.453362 19.2368 0.378596L19.1243 0.341213L12.6372 0.154297C12.6372 0.154297 24.8615 12.8272 29.6237 17.7244L29.6612 17.7618C29.6987 17.7992 29.7362 17.8365 29.7362 17.8365C30.1487 18.2851 30.3362 18.8833 30.2612 19.5936C30.1862 20.2665 29.8862 20.8646 29.4737 21.3132V21.3506C29.8487 21.0141 30.3737 20.5281 30.5987 20.3038L30.6362 20.2665C30.6737 20.2291 30.7112 20.2291 30.7112 20.2291C31.1612 19.7805 31.4236 19.1823 31.4611 18.5094V13.1636Z" fill="#2A6BF2"/>
<path fill-rule="evenodd" clip-rule="evenodd" d="M13.8368 26.804C14.6993 28.6357 15.3367 28.4862 16.4617 29.4955C16.4617 30.9535 15.2617 32.0002 13.7993 32.0002C12.3369 32.0002 11.137 30.9161 11.137 29.4582C11.1745 28.0002 12.3744 26.804 13.8368 26.804Z" fill="#2A6BF2"/>
<path fill-rule="evenodd" clip-rule="evenodd" d="M20.5869 0.897197C20.5494 0.859813 20.5119 0.82243 20.4744 0.785047C20.0244 0.336449 19.4244 0.0747663 18.7495 0.0373832L13.4623 0C12.6748 0 11.9624 0.299066 11.4749 0.785047L1.05048 11.1028L1.01299 11.215C0.600509 11.514 0.375522 11.9626 0.300526 12.6355L0.263029 12.7477L0.113037 19.215C0.113037 19.215 13.0498 6.65421 18.037 1.86916C18.487 1.42056 19.1245 1.15888 19.9119 1.23365C20.4744 1.27103 20.9993 1.45794 21.4118 1.75701C21.1118 1.45794 20.7744 1.1215 20.5869 0.897197Z" fill="#2A6BF2"/>
<path fill-rule="evenodd" clip-rule="evenodd" d="M1.91239 13.6845C1.46242 13.1985 1.19993 12.6003 1.23743 11.9274C1.23743 11.2172 1.53741 10.5817 2.02489 10.1331C1.53741 10.5817 0.787455 11.2546 0.787455 11.2546C0.787455 11.2546 0.787455 11.2546 0.787455 11.2919C0.337481 11.7405 0 12.3013 0 13.0116L0.0374979 18.32V18.3574C0.0374979 18.3947 0.0374979 18.3947 0.0374979 18.4321V18.5069C0.0749958 19.2919 0.487472 20.0022 1.08744 20.4508V20.4882L11.9993 31.2919L13.9867 31.9648H20.1364C20.0989 32.0022 6.67462 18.5069 1.91239 13.6845Z" fill="#2A6BF2"/>
</svg>
