<!--
  - Copyright (c) 2022 NetEase, Inc. All rights reserved.
  - Use of this source code is governed by a MIT license that can be
  - found in the LICENSE file.
  -->

<svg width="28" height="28" viewBox="0 0 28 28" fill="none" xmlns="http://www.w3.org/2000/svg">
<path d="M10.4248 1.75C5.48976 1.75 1.45776 5.09425 1.45776 9.23475C1.45776 12.8573 4.59026 15.8008 8.66251 16.4973V21.3448C8.66251 21.3448 19.229 15.036 19.229 9.01425C19.229 4.30675 15.3598 1.75 10.4248 1.75Z" fill="#2A6BF2"/>
<path d="M27.9756 15.7428C27.7201 18.702 25.2036 20.893 21.7614 21.1713L21.2661 24.9005L14.9854 19.0783C17.9394 16.6808 21.3799 13.1545 21.3799 9.71755C21.3799 9.44805 21.3239 9.2118 21.2976 8.9563C21.4446 8.96155 21.6091 8.96505 21.7316 8.97555C25.8459 9.3308 28.2696 12.3583 27.9756 15.7428Z" fill="#9CC0FF"/>
</svg>
