<!--
  - Copyright (c) 2022 NetEase, Inc. All rights reserved.
  - Use of this source code is governed by a MIT license that can be
  - found in the LICENSE file.
  -->

<svg width="28" height="28" viewBox="0 0 28 28" fill="none" xmlns="http://www.w3.org/2000/svg">
<path d="M21.4667 3.49951C22.6217 3.49951 23.5667 4.44451 23.5667 5.59951V22.3995C23.5667 23.5545 22.6217 24.4995 21.4667 24.4995H8.86675C7.71175 24.4995 6.76675 23.5545 6.76675 22.3995V19.2495H7.81675C8.97175 19.2495 9.91675 18.3045 9.91675 17.1495C9.91675 15.9945 8.97175 15.0495 7.81675 15.0495H6.76675V12.9495H7.81675C8.97175 12.9495 9.91675 12.0045 9.91675 10.8495C9.91675 9.69451 8.97175 8.74951 7.81675 8.74951H6.76675V5.59951C6.76675 4.44451 7.71175 3.49951 8.86675 3.49951H21.4667ZM20.4167 8.74951C19.8917 8.74951 19.4717 9.16951 19.3667 9.69451V18.1995C19.3667 18.8295 19.7867 19.2495 20.4167 19.2495C20.9417 19.2495 21.3617 18.8295 21.4667 18.3045V9.79951C21.4667 9.16951 21.0467 8.74951 20.4167 8.74951ZM7.81675 16.0995C8.44675 16.0995 8.86675 16.5195 8.86675 17.1495C8.86675 17.7795 8.44675 18.1995 7.81675 18.1995H5.71675C5.08675 18.1995 4.66675 17.7795 4.66675 17.1495C4.66675 16.5195 5.08675 16.0995 5.71675 16.0995H7.81675ZM7.81675 9.79951C8.44675 9.79951 8.86675 10.2195 8.86675 10.8495C8.86675 11.4795 8.44675 11.8995 7.81675 11.8995H5.71675C5.08675 11.8995 4.66675 11.4795 4.66675 10.8495C4.66675 10.2195 5.08675 9.79951 5.71675 9.79951H7.81675Z" fill="#C5C9D2"/>
</svg>
