<!--
  - Copyright (c) 2022 NetEase, Inc. All rights reserved.
  - Use of this source code is governed by a MIT license that can be
  - found in the LICENSE file.
  -->

<svg width="28" height="28" viewBox="0 0 28 28" fill="none" xmlns="http://www.w3.org/2000/svg">
<path d="M21.4666 3.49951C22.6216 3.49951 23.5666 4.44451 23.5666 5.59951V22.3995C23.5666 23.5545 22.6216 24.4995 21.4666 24.4995H8.8666C7.7116 24.4995 6.7666 23.5545 6.7666 22.3995V19.2495H7.8166C8.9716 19.2495 9.9166 18.3045 9.9166 17.1495C9.9166 15.9945 8.9716 15.0495 7.8166 15.0495H6.7666V12.9495H7.8166C8.9716 12.9495 9.9166 12.0045 9.9166 10.8495C9.9166 9.69451 8.9716 8.74951 7.8166 8.74951H6.7666V5.59951C6.7666 4.44451 7.7116 3.49951 8.8666 3.49951H21.4666Z" fill="#2A6BF2"/>
<path d="M20.4165 8.75C19.8915 8.75 19.4715 9.17 19.3665 9.695V18.2C19.3665 18.83 19.7865 19.25 20.4165 19.25C20.9415 19.25 21.3615 18.83 21.4665 18.305V9.8C21.4665 9.17 21.0465 8.75 20.4165 8.75ZM7.8165 16.1C8.4465 16.1 8.8665 16.52 8.8665 17.15C8.8665 17.78 8.4465 18.2 7.8165 18.2H5.7165C5.0865 18.2 4.6665 17.78 4.6665 17.15C4.6665 16.52 5.0865 16.1 5.7165 16.1H7.8165ZM7.8165 9.8C8.4465 9.8 8.8665 10.22 8.8665 10.85C8.8665 11.48 8.4465 11.9 7.8165 11.9H5.7165C5.0865 11.9 4.6665 11.48 4.6665 10.85C4.6665 10.22 5.0865 9.8 5.7165 9.8H7.8165Z" fill="#9CC0FF"/>
</svg>
