<!--
  - Copyright (c) 2022 NetEase, Inc. All rights reserved.
  - Use of this source code is governed by a MIT license that can be
  - found in the LICENSE file.
  -->

<svg width="36" height="36" viewBox="0 0 36 36" fill="none" xmlns="http://www.w3.org/2000/svg">
    <circle cx="18" cy="18" r="18" fill="#53C3F3" />
    <path
        d="M23.3601 18.8086C22.8223 18.8086 22.2897 18.9145 21.7928 19.1203C21.296 19.3262 20.8445 19.6278 20.4642 20.0081C20.0839 20.3884 19.7822 20.8399 19.5764 21.3368C19.3706 21.8337 19.2646 22.3662 19.2646 22.9041C19.2646 23.4419 19.3706 23.9744 19.5764 24.4713C19.7822 24.9682 20.0839 25.4197 20.4642 25.8C20.8445 26.1803 21.296 26.482 21.7928 26.6878C22.2897 26.8936 22.8223 26.9995 23.3601 26.9995C24.4463 26.9995 25.488 26.568 26.256 25.8C27.0241 25.0319 27.4556 23.9902 27.4556 22.9041C27.4556 21.8179 27.0241 20.7762 26.256 20.0081C25.488 19.2401 24.4463 18.8086 23.3601 18.8086ZM20.3067 22.9041C20.3067 22.5031 20.3857 22.106 20.5391 21.7356C20.6926 21.3651 20.9175 21.0285 21.201 20.745C21.4846 20.4614 21.8212 20.2365 22.1916 20.0831C22.5621 19.9296 22.9591 19.8507 23.3601 19.8507C24.0323 19.8526 24.6848 20.0784 25.2144 20.4923L20.7857 24.5309C20.4748 24.0451 20.309 23.4807 20.3079 22.9041H20.3067ZM23.3601 25.9575C22.6878 25.9552 22.0353 25.729 21.5058 25.3147L25.9357 21.2761C26.2349 21.7494 26.4135 22.3045 26.4135 22.9041C26.4135 23.7139 26.0918 24.4905 25.5192 25.0631C24.9466 25.6358 24.1699 25.9575 23.3601 25.9575Z"
        fill="white" />
    <path
        d="M19.9793 19.5042C20.0282 19.5178 20.0771 19.5337 20.1317 19.5337C20.204 19.5726 20.2842 19.5946 20.3663 19.598C20.4483 19.6014 20.5301 19.5862 20.6053 19.5534C20.6806 19.5206 20.7475 19.4712 20.8009 19.4088C20.8543 19.3465 20.8929 19.2728 20.9137 19.1934C20.9345 19.1139 20.937 19.0308 20.921 18.9503C20.9051 18.8697 20.871 18.7939 20.8215 18.7284C20.7719 18.6629 20.7082 18.6095 20.635 18.5723C20.5618 18.535 20.4812 18.5148 20.3991 18.5133L20.4059 18.4985C20.3865 18.4917 20.3672 18.4871 20.349 18.4792L20.3388 18.4769C20.2065 18.4281 20.073 18.3829 19.9383 18.3415C21.4627 17.4735 22.5025 15.8524 22.5025 13.9719C22.4826 12.6464 21.9421 11.382 20.9978 10.4517C20.0534 9.52146 18.781 9 17.4554 9C16.1298 9 14.8575 9.52146 13.9131 10.4517C12.9688 11.382 12.4283 12.6464 12.4084 13.9719C12.4084 15.9115 13.5141 17.5759 15.1193 18.4211C13.6643 18.9318 12.3973 19.8696 11.4839 21.112C10.5706 22.3544 10.0534 23.8435 10 25.3846H10.0091C10.008 25.3993 10.0011 25.4107 10.0011 25.4255C10.0011 25.7281 10.2469 25.975 10.5506 25.975C10.9294 25.975 11.2138 25.7293 11.2138 25.4255C11.2138 25.4107 11.207 25.3993 11.2059 25.3846H11.2173C11.3572 21.8841 14.1182 19.2004 17.6528 19.2004C18.4719 19.2004 19.2535 19.2368 19.9759 19.511L19.9793 19.503V19.5042ZM17.456 17.8967C16.4148 17.8967 15.4162 17.4831 14.6799 16.7468C13.9437 16.0105 13.5301 15.012 13.5301 13.9707C13.5301 12.9295 13.9437 11.9309 14.6799 11.1947C15.4162 10.4584 16.4148 10.0448 17.456 10.0448C18.4972 10.0448 19.4958 10.4584 20.2321 11.1947C20.9683 11.9309 21.382 12.9295 21.382 13.9707C21.382 15.012 20.9683 16.0105 20.2321 16.7468C19.4958 17.4831 18.4972 17.8967 17.456 17.8967Z"
        fill="white" />
</svg>
