<svg width="16" height="16" viewBox="0 0 16 16" fill="none" xmlns="http://www.w3.org/2000/svg">
    <path
        d="M8 0C3.584 0 0 3.584 0 8C0 12.416 3.584 16 8 16C12.416 16 16 12.416 16 8C16 3.584 12.416 0 8 0ZM11.584 11.5733C11.3707 11.7867 11.0293 11.7867 10.8267 11.5733L7.968 8.69333L5.06667 11.5627C4.85333 11.776 4.512 11.776 4.29867 11.5627C4.08533 11.3493 4.08533 11.008 4.29867 10.8053L7.21067 7.92533L4.45867 5.17333C4.24533 4.96 4.24533 4.61867 4.45867 4.416C4.672 4.20267 5.01333 4.20267 5.216 4.416L7.968 7.17867L10.7627 4.416C10.976 4.20267 11.3173 4.20267 11.5307 4.416C11.744 4.62933 11.744 4.97067 11.5307 5.17333L8.72533 7.94667L11.5733 10.816C11.7867 11.0187 11.7867 11.36 11.584 11.5733Z"
        fill="#DBDDE4" />
</svg>
