<!--
  - Copyright (c) 2022 NetEase, Inc. All rights reserved.
  - Use of this source code is governed by a MIT license that can be
  - found in the LICENSE file.
  -->

<svg width="36" height="36" viewBox="0 0 36 36" fill="none" xmlns="http://www.w3.org/2000/svg">
    <circle cx="18" cy="18" r="18" fill="#BE65D9" />
    <path
        d="M18.6833 19.3121C19.0728 19.0989 19.4347 18.832 19.7589 18.5148C20.6829 17.6111 21.1918 16.4095 21.1918 15.1315C21.1918 13.8535 20.6829 12.6519 19.7589 11.7482C18.835 10.8445 17.6065 10.3469 16.2998 10.3469C14.9931 10.3469 13.7646 10.8445 12.8406 11.7482C11.9166 12.6519 11.4078 13.8535 11.4078 15.1315C11.4078 16.4096 11.9166 17.6111 12.8406 18.5148C13.1649 18.8319 13.5268 19.0989 13.9163 19.312C10.7962 20.2199 8.40796 22.8654 8.0041 26.1641C7.96887 26.4518 8.17881 26.713 8.47302 26.7475C8.76728 26.782 9.03426 26.5766 9.0695 26.2888C9.50685 22.7165 12.6152 20.0227 16.2998 20.0227C19.9844 20.0227 23.0927 22.7165 23.5301 26.2888C23.5627 26.5554 23.7943 26.7512 24.0621 26.7512C24.0834 26.7512 24.1049 26.75 24.1266 26.7474C24.4208 26.713 24.6307 26.4518 24.5955 26.164C24.1916 22.8654 21.8033 20.2199 18.6833 19.3121ZM12.4808 15.1315C12.4808 13.0719 14.194 11.3963 16.2998 11.3963C18.4056 11.3963 20.1188 13.0719 20.1188 15.1315C20.1188 17.1911 18.4056 18.8667 16.2998 18.8667C14.194 18.8667 12.4808 17.1911 12.4808 15.1315ZM27.9964 26.1641C27.7865 24.4496 27.1163 22.8103 26.0583 21.4234C25.1715 20.2608 24.0326 19.3002 22.735 18.614C23.1833 18.2314 23.5659 17.7764 23.8613 17.2695C24.3145 16.4917 24.554 15.6049 24.554 14.7049C24.554 13.7195 24.2701 12.7605 23.733 11.9318C23.2106 11.1258 22.4731 10.4765 21.6 10.054C21.3345 9.92554 21.0127 10.0319 20.8813 10.2917C20.7499 10.5514 20.8587 10.8662 21.1242 10.9947C21.821 11.3318 22.4097 11.8501 22.8267 12.4936C23.2547 13.1541 23.481 13.9188 23.481 14.7049C23.481 15.423 23.2901 16.1302 22.929 16.7499C22.5784 17.3515 22.0745 17.8622 21.4719 18.2265C21.2198 18.3789 21.1418 18.7023 21.2976 18.9488C21.3228 18.9886 21.3525 19.0239 21.3857 19.0546C21.44 19.1342 21.517 19.2002 21.6129 19.2421C23.0282 19.8601 24.268 20.8314 25.1983 22.051C26.1442 23.291 26.7434 24.7565 26.931 26.2889C26.9636 26.5554 27.1952 26.7513 27.463 26.7513C27.4843 26.7513 27.5058 26.75 27.5275 26.7475C27.8217 26.713 28.0316 26.4518 27.9964 26.1641Z"
        fill="white" />
</svg>
