<!--
  - Copyright (c) 2022 NetEase, Inc. All rights reserved.
  - Use of this source code is governed by a MIT license that can be
  - found in the LICENSE file.
  -->

<svg width="28" height="28" viewBox="0 0 28 28" fill="none" xmlns="http://www.w3.org/2000/svg">
    <circle cx="14" cy="14" r="13" fill="#60CFA7" stroke="white" stroke-width="2" />
    <path
        d="M14.0073 11.9028C12.4257 11.9028 11.1369 13.1892 11.1369 14.7732C11.1369 16.3548 12.4233 17.6436 14.0073 17.6436C15.5913 17.6436 16.8777 16.3572 16.8777 14.7732C16.8753 13.1892 15.5889 11.9028 14.0073 11.9028Z"
        fill="white" />
    <path
        d="M20.7224 10.1565H18.8144C18.4496 10.1565 18.116 9.95008 17.9552 9.62368L17.3384 8.38528C17.1752 8.05888 16.844 7.85248 16.4792 7.85248H11.5208C11.156 7.85248 10.8248 8.05888 10.6616 8.38288L10.0424 9.62368C9.87923 9.95008 9.54803 10.1541 9.18323 10.1541H7.27763C6.74723 10.1541 6.31763 10.5837 6.31763 11.1141V19.1853C6.31763 19.7157 6.74723 20.1453 7.27763 20.1453H20.72C21.2504 20.1453 21.68 19.7157 21.68 19.1853V11.1165C21.6824 10.5861 21.2528 10.1565 20.7224 10.1565ZM14.0072 18.5997C11.8952 18.5997 10.1768 16.8813 10.1768 14.7693C10.1768 12.6573 11.8952 10.9389 14.0072 10.9389C16.1192 10.9389 17.8376 12.6573 17.8376 14.7693C17.8376 16.8813 16.1192 18.5997 14.0072 18.5997Z"
        fill="white" />
</svg>
