<svg width="20" height="20" viewBox="0 0 20 20" fill="none" xmlns="http://www.w3.org/2000/svg">
<mask id="path-1-inside-1_18101_21059" fill="white">
<path d="M17.0469 14.7655H17.0482V14.7573L17.0469 14.7655Z"/>
</mask>
<path d="M17.0469 14.7655H17.0482V14.7573L17.0469 14.7655Z" fill="#656A72"/>
<path d="M17.0469 14.7655L17.0189 14.7608L17.0135 14.7938H17.0469V14.7655ZM17.0482 14.7655V14.7938H17.0766V14.7655H17.0482ZM17.0482 14.7573H17.0766L17.0203 14.7527L17.0482 14.7573ZM17.0469 14.7655V14.7938H17.0482V14.7655V14.7372H17.0469V14.7655ZM17.0482 14.7655H17.0766V14.7573H17.0482H17.0199V14.7655H17.0482ZM17.0482 14.7573L17.0203 14.7527L17.0189 14.7608L17.0469 14.7655L17.0748 14.7701L17.0762 14.762L17.0482 14.7573Z" fill="#656A72" mask="url(#path-1-inside-1_18101_21059)"/>
<path d="M15.8333 4.1665C16.7538 4.1665 17.5 4.9127 17.5 5.83317L17.5 14.9998C17.5 15.9203 16.7538 16.6665 15.8333 16.6665L4.16667 16.6665C3.2462 16.6665 2.5 15.9203 2.5 14.9998L2.5 5.83317C2.5 4.9127 3.24619 4.16651 4.16667 4.1665M9.16667 4.16651L10.8333 4.1665" stroke="#656A72" stroke-width="1.25" stroke-linecap="round"/>
<path d="M6.66675 2.5V5.83333" stroke="#656A72" stroke-width="1.25" stroke-linecap="round"/>
<path d="M13.3333 2.5V5.83333" stroke="#656A72" stroke-width="1.25" stroke-linecap="round"/>
<path d="M2.5 9.1665H16.9444" stroke="#656A72" stroke-width="1.25" stroke-linecap="round"/>
</svg>
