<svg width="20" height="20" viewBox="0 0 20 20" fill="none" xmlns="http://www.w3.org/2000/svg">
    <path d="M2.18303 8.06596L16.8836 1.94018C17.0432 1.87377 17.2266 1.90287 17.3576 2.01557C17.4219 2.07081 17.4695 2.14282 17.4952 2.22356C17.5209 2.30429 17.5236 2.39058 17.5031 2.47279L13.8412 17.1208C13.8224 17.1959 13.7849 17.2649 13.7321 17.3215C13.6793 17.378 13.613 17.4203 13.5395 17.4443C13.3901 17.4931 13.226 17.4615 13.1053 17.3609L9.9258 14.7117C9.74397 14.5603 9.47678 14.5728 9.30979 14.7402L7.67893 16.3699C7.61499 16.4334 7.53369 16.4767 7.44525 16.4941C7.35681 16.5116 7.26517 16.5026 7.18186 16.4681C7.09856 16.4337 7.02729 16.3754 6.97704 16.3006C6.92678 16.2257 6.89978 16.1377 6.89944 16.0476V12.6031C6.89944 12.4818 6.94748 12.3656 7.03323 12.2796L13.6653 5.6476L5.83557 11.5208C5.66604 11.6478 5.43127 11.6417 5.26877 11.506L2.06643 8.83842C2.0062 8.78811 1.95993 8.72314 1.93208 8.64976C1.90424 8.57639 1.89575 8.49708 1.90744 8.41947C1.91919 8.34185 1.95071 8.26856 1.99897 8.20665C2.04724 8.14474 2.11062 8.09628 2.18303 8.06596Z" fill="#CCCCCC"/>
</svg>
