<!--
  - Copyright (c) 2022 NetEase, Inc. All rights reserved.
  - Use of this source code is governed by a MIT license that can be
  - found in the LICENSE file.
  -->

<svg width="48" height="48" viewBox="0 0 48 48" fill="none" xmlns="http://www.w3.org/2000/svg">
<circle cx="24" cy="24" r="24" fill="white"/>
<circle cx="24" cy="24" r="24" fill="white"/>
<path d="M32.7186 21.1581C32.7186 20.9739 32.6382 20.8095 32.5134 20.6927L25.5204 14.6539C25.4091 14.5593 25.267 14.5 25.1101 14.5C24.759 14.5 24.476 14.7837 24.476 15.134V17.8074C19.1305 18.6701 15.3671 22.5998 15 27.6431C15.0173 27.8569 15.1928 28.0269 15.4103 28.0269C15.4944 28.0269 15.5735 28.0015 15.639 27.9583L15.6402 27.962C16.5635 27.3063 17.3619 26.8175 17.9848 26.4887C19.4964 25.6569 21.8435 24.9852 24.476 24.7151V27.192C24.476 27.543 24.7591 27.826 25.1101 27.826C25.2596 27.826 25.3943 27.7698 25.5031 27.6826L32.4974 21.6426L32.4961 21.6407C32.6321 21.5251 32.7186 21.3515 32.7186 21.1581ZM25.7441 25.7997V23.3401L25.0631 23.3908C22.3082 23.596 18.6411 24.3975 16.5684 25.8806C17.5782 22.1678 20.7905 19.5112 25.1842 18.9877L25.7441 18.921V16.522L31.1143 21.1612L25.7441 25.7997Z" fill="#656A72"/>
<path d="M26 29.5L32 29.5" stroke="#656A72" stroke-width="1.3" stroke-linecap="round" stroke-linejoin="round"/>
<path d="M16 33H32" stroke="#656A72" stroke-width="1.3" stroke-linecap="round" stroke-linejoin="round"/>
</svg>
