<svg width="20" height="20" viewBox="0 0 20 20" fill="none" xmlns="http://www.w3.org/2000/svg">
<path d="M13.257 1.00073C14.5289 1.00086 15.6936 1.71402 16.2726 2.84546L18.962 8.10815C19.457 9.07683 19.457 10.2236 18.962 11.1912L16.2726 16.4539C15.9887 17.0092 15.5565 17.475 15.0245 17.8005C14.4925 18.126 13.8807 18.2987 13.257 18.2986H7.13293C6.514 18.2985 5.90631 18.1283 5.37708 17.8074C4.84807 17.4865 4.41712 17.0269 4.13098 16.4783L1.38489 11.2166C1.13239 10.7328 1.00012 10.1948 1.00012 9.64917C1.0002 9.10368 1.13246 8.56634 1.38489 8.08276L4.13098 2.82007C4.41734 2.27149 4.84883 1.81169 5.37805 1.49097C5.9072 1.17037 6.51424 1.00072 7.13293 1.00073H13.257ZM10.42 6.00073C9.971 6.00077 9.52631 6.08963 9.11145 6.26147C8.69656 6.43336 8.31963 6.68513 8.00208 7.00269C7.68452 7.32024 7.43275 7.69717 7.26086 8.11206C7.08902 8.52692 7.00016 8.97161 7.00012 9.42065C7.00012 9.86981 7.08898 10.3153 7.26086 10.7302C7.43274 11.145 7.68459 11.5221 8.00208 11.8396C8.31962 12.1571 8.69658 12.409 9.11145 12.5808C9.52631 12.7527 9.971 12.8415 10.42 12.8416C11.3271 12.8416 12.1976 12.481 12.839 11.8396C13.4804 11.1982 13.8409 10.3278 13.8409 9.42065C13.8409 8.51374 13.4802 7.64401 12.839 7.00269C12.1976 6.36127 11.3271 6.00073 10.42 6.00073Z" fill="#2A6BF2"/>
</svg>
