<!--
  - Copyright (c) 2022 NetEase, Inc. All rights reserved.
  - Use of this source code is governed by a MIT license that can be
  - found in the LICENSE file.
  -->

<svg width="18" height="18" viewBox="0 0 18 18" fill="none" xmlns="http://www.w3.org/2000/svg">
    <path
        d="M10.425 4.3396H3.17279L5.4302 2.2102C5.75421 1.88219 5.83554 1.56218 5.51686 1.24751C5.18219 0.916831 4.83818 0.918164 4.5035 1.24751L1.4634 4.2636C1.28073 4.44761 0.974055 4.69295 1.00339 4.93962L1.01672 5.03963L1.00339 5.14096C0.975389 5.3863 1.13673 5.52097 1.31273 5.69965L4.38883 8.72508C4.72351 9.05442 5.18219 9.16242 5.51686 8.83175C5.83554 8.51707 5.59687 8.03572 5.28086 7.71704L3.17679 5.69965L10.425 5.66631C13.0598 5.66631 15.6532 7.98905 15.6532 10.5865C15.6532 13.1839 13.0598 15.6666 10.425 15.6666H3.4528C2.98212 15.6666 2.83411 15.8666 2.83411 16.3386C2.83411 16.8107 2.98078 17 3.4528 17H10.4264C14.0518 17 16.9866 14.1186 16.9866 10.5865C16.9866 7.05702 14.0531 4.3396 10.425 4.3396Z"
        fill="#656A72" />
</svg>
