<svg width="20" height="20" viewBox="0 0 20 20" fill="none" xmlns="http://www.w3.org/2000/svg">
<path d="M9.98572 0C15.0226 0 18.9718 2.60947 18.972 7.41406C18.972 13.5604 8.18689 20 8.18689 20V15.0527C4.03053 14.3418 0.833432 11.337 0.833374 7.63965C0.833374 3.41355 4.9487 4.79061e-05 9.98572 0ZM9.58337 3.41699C9.03109 3.41699 8.58337 3.86471 8.58337 4.41699V9.16699C8.58355 9.71913 9.0312 10.167 9.58337 10.167H13.5004C14.0524 10.1668 14.5002 9.71902 14.5004 9.16699C14.5004 8.61482 14.0525 8.16717 13.5004 8.16699H10.5834V4.41699C10.5834 3.86471 10.1357 3.41699 9.58337 3.41699Z" fill="#2A6BF2"/>
</svg>
