<!--
  - Copyright (c) 2022 NetEase, Inc. All rights reserved.
  - Use of this source code is governed by a MIT license that can be
  - found in the LICENSE file.
  -->

<svg width="48" height="48" viewBox="0 0 48 48" fill="none" xmlns="http://www.w3.org/2000/svg">
<circle cx="24" cy="24" r="24" fill="white"/>
<path d="M34 22.0154C34 21.8075 33.9093 21.6219 33.7684 21.4901L25.875 14.6737C25.7494 14.567 25.589 14.5 25.4118 14.5C25.0156 14.5 24.6961 14.8202 24.6961 15.2157V18.2333C18.6624 19.207 14.4144 23.6427 14 29.3354C14.0195 29.5767 14.2176 29.7686 14.4632 29.7686C14.558 29.7686 14.6473 29.74 14.7213 29.6911L14.7227 29.6953C15.7648 28.9552 16.666 28.4035 17.3692 28.0324C19.0754 27.0935 21.7246 26.3352 24.6962 26.0304V28.8262C24.6962 29.2224 25.0156 29.5419 25.4119 29.5419C25.5807 29.5419 25.7327 29.4784 25.8555 29.38L33.7503 22.5623L33.7489 22.5601C33.9024 22.4297 34 22.2337 34 22.0154ZM26.1275 27.2546V24.4784L25.3589 24.5356C22.2492 24.7672 18.11 25.6719 15.7704 27.346C16.9102 23.1551 20.536 20.1564 25.4956 19.5656L26.1275 19.4902V16.7824L32.1892 22.0189L26.1275 27.2546Z" fill="#656A72"/>
</svg>
