<svg width="20" height="20" viewBox="0 0 20 20" fill="none" xmlns="http://www.w3.org/2000/svg">
<path d="M14.9999 1.66724C15.2188 1.66724 15.4355 1.71035 15.6377 1.7941C15.8399 1.87786 16.0237 2.00063 16.1784 2.15539C16.3332 2.31016 16.456 2.49389 16.5397 2.6961C16.6235 2.89831 16.6666 3.11503 16.6666 3.3339V17.5522C16.6667 17.6961 16.6296 17.8375 16.5588 17.9627C16.4881 18.088 16.3862 18.1928 16.2629 18.2669C16.1397 18.3411 15.9993 18.3821 15.8556 18.3859C15.7118 18.3898 15.5695 18.3564 15.4424 18.2889L10.3899 15.6072C10.2696 15.5433 10.1354 15.5099 9.99909 15.5099C9.86281 15.5099 9.72861 15.5433 9.60825 15.6072L4.55825 18.2881C4.43125 18.3557 4.28891 18.3893 4.14508 18.3856C4.00124 18.3819 3.86082 18.341 3.73748 18.2669C3.61414 18.1928 3.51209 18.088 3.44125 17.9628C3.37041 17.8376 3.3332 17.6961 3.33325 17.5522V3.3339C3.33325 3.11503 3.37636 2.89831 3.46012 2.6961C3.54388 2.49389 3.66664 2.31016 3.82141 2.15539C3.97617 2.00063 4.1599 1.87786 4.36211 1.7941C4.56432 1.71035 4.78105 1.66724 4.99992 1.66724H14.9999ZM13.3691 6.0289C13.2853 5.95853 13.1884 5.90535 13.084 5.87241C12.9796 5.83948 12.8698 5.82742 12.7608 5.83694C12.6517 5.84646 12.5456 5.87736 12.4486 5.92789C12.3515 5.97841 12.2653 6.04757 12.1949 6.1314L8.98409 9.95307L7.83242 8.64974L7.75909 8.5764C7.59985 8.43751 7.3938 8.3643 7.18263 8.37157C6.97146 8.37884 6.77094 8.46606 6.62164 8.61557C6.47234 8.76508 6.38541 8.96573 6.37843 9.17691C6.37146 9.38809 6.44497 9.59403 6.58409 9.75307L8.37575 11.7822L8.44659 11.8531C8.52983 11.9271 8.62707 11.9837 8.73256 12.0194C8.83804 12.0552 8.94963 12.0695 9.06072 12.0614C9.17182 12.0533 9.28017 12.0231 9.37936 11.9724C9.47856 11.9217 9.56659 11.8517 9.63825 11.7664L13.4716 7.20307L13.5341 7.11974C13.6443 6.94905 13.6883 6.74399 13.6579 6.54311C13.6276 6.34222 13.5248 6.15936 13.3691 6.0289Z" fill="#C5C9D2"/>
</svg>
