<!--
  - Copyright (c) 2022 NetEase, Inc. All rights reserved.
  - Use of this source code is governed by a MIT license that can be
  - found in the LICENSE file.
  -->

<svg width="18" height="18" viewBox="0 0 18 18" fill="none" xmlns="http://www.w3.org/2000/svg">
<path d="M1.28636 16.7203C1.368 16.8085 1.467 16.8789 1.57713 16.927C1.68727 16.9752 1.80617 17 1.92636 17C2.04656 17 2.16546 16.9752 2.2756 16.927C2.38573 16.8789 2.48473 16.8085 2.56636 16.7203L5.82008 13.5203V16.0266C5.82008 16.4003 6.08636 16.7203 6.46008 16.7203H6.88636C7.26008 16.7203 7.52636 16.5066 7.58008 16.134V11.1203C7.58008 10.9603 7.52636 10.8003 7.42008 10.6403C7.31379 10.5866 7.15379 10.4803 6.94008 10.4803H6.62008L1.92636 10.4266C1.55379 10.4266 1.28636 10.7466 1.23379 11.1203V11.6003C1.28636 12.0266 1.60636 12.2403 1.98008 12.2403H4.43379L1.23379 15.4403C0.913793 15.814 0.913793 16.4003 1.28636 16.7203Z" fill="#656A72"/>
<path d="M16.7593 1.28051C16.6778 1.19214 16.5788 1.12161 16.4686 1.07338C16.3585 1.02514 16.2396 1.00024 16.1193 1.00024C15.9991 1.00024 15.8801 1.02514 15.77 1.07338C15.6598 1.12161 15.5609 1.19214 15.4793 1.28051L12.2267 4.48051V1.92051C12.2267 1.54794 11.9593 1.22794 11.5867 1.22794H11.1067C10.733 1.22794 10.4667 1.44051 10.413 1.81422V6.50794L10.4667 6.88051C10.4667 7.04051 10.5193 7.20051 10.6267 7.36051C10.733 7.41422 10.893 7.52051 11.1067 7.52051H16.1193C16.493 7.52051 16.7593 7.20051 16.813 6.82794V6.34794C16.7593 5.92051 16.4393 5.65422 16.0667 5.65422H13.5593L16.7593 2.50794C16.914 2.34101 17 2.12181 17 1.89422C17 1.66663 16.914 1.44743 16.7593 1.28051Z" fill="#656A72"/>
</svg>
