<svg t="1772444434635" class="icon" viewBox="0 0 1024 1024" version="1.1" xmlns="http://www.w3.org/2000/svg" p-id="6074" width="64" height="64"><path d="M603.9552 774.7584l16.384-46.4384h85.504l16.4864 46.4384h47.0528l-76.288-220.3648h-55.1936l-78.4896 220.3648h44.544z m28.1088-83.3536l31.6416-94.1056h1.1776l29.3888 94.1056h-62.208z" p-id="6075"></path><path d="M122.112 177.9712c0-30.8224 25.0368-55.8592 55.9104-55.808h362.8544c30.8736 0 55.9104 25.088 55.808 55.9616v362.8544c0 30.8224-24.9856 55.808-55.808 55.808h-363.008c-30.8224 0-55.808-24.9856-55.808-55.808v-363.008z m51.2 0v363.0592q0 1.8944 1.3312 3.2256 1.3312 1.3312 3.2256 1.3312h363.0592q1.8944 0 3.2256-1.3312 1.3312-1.3312 1.3312-3.2768v-363.008q0-1.8944-1.3312-3.2256-1.3312-1.3312-3.2768-1.3312h-363.008q-1.8944 0-3.2256 1.3312-1.3312 1.3312-1.3312 3.1744v0.0512z" p-id="6076"></path><path d="M427.2128 596.7872v249.2416a55.7568 55.7568 0 0 0 55.808 55.808h363.008c30.7712 0.0512 55.808-24.9344 55.7568-55.808V483.2256a55.7568 55.7568 0 0 0-55.808-55.9104h-249.2928v51.2h249.344q1.8944 0 3.2256 1.3312 1.3312 1.3824 1.3312 3.2256v363.008q0 1.9968-1.3312 3.328-1.3312 1.3312-3.2256 1.3312h-363.008q-1.9456 0-3.2768-1.3312-1.3312-1.3312-1.3312-3.2256v-249.344h-51.2z" p-id="6077"></path><path d="M237.4144 416.9728h39.8336v-21.4528h57.4464v102.4h42.1888v-102.4H435.712v17.92h43.3152V277.5552H376.832v-29.8496c-0.1536-7.68 1.0752-15.36 3.584-22.5792a9.216 9.216 0 0 0 1.1264-3.6352c0-0.768-2.7136-1.536-8.192-2.3552h-39.936V277.504H237.4144v139.4176h0.0512z m39.8336-105.984h57.4464v52.3776H277.248V310.9888z m158.3104 52.3776H376.7296V310.9888h58.8288v52.3776z" p-id="6078"></path><path d="M715.3152 130.5088q73.7792 0 125.952 52.1728 52.224 52.1728 52.224 125.952a25.6 25.6 0 0 1-51.2 0q0-52.5824-37.2224-89.7536-37.1712-37.1712-89.7536-37.1712a25.6 25.6 0 0 1 0-51.2zM308.5312 893.5936q-73.7792 0-125.952-52.224-52.224-52.1728-52.224-125.952a25.6 25.6 0 0 1 51.2 0q0 52.5824 37.2224 89.7536 37.1712 37.2224 89.7536 37.2224a25.6 25.6 0 0 1 0 51.2z" p-id="6079"></path></svg>