<!--
  - Copyright (c) 2022 NetEase, Inc. All rights reserved.
  - Use of this source code is governed by a MIT license that can be
  - found in the LICENSE file.
  -->

<svg width="18" height="18" viewBox="0 0 18 18" fill="none" xmlns="http://www.w3.org/2000/svg">
<path d="M10.6537 7.24C10.7353 7.32837 10.8342 7.3989 10.9444 7.44713C11.0545 7.49537 11.1735 7.52027 11.2937 7.52027C11.414 7.52027 11.5329 7.49537 11.6431 7.44713C11.7532 7.3989 11.8522 7.32837 11.9337 7.24L15.1863 4.04V6.6C15.1863 6.97257 15.4537 7.29257 15.8263 7.29257H16.3063C16.68 7.29257 16.9463 7.08 17 6.70629V2.01257L16.9463 1.64C16.9463 1.48 16.8937 1.32 16.7863 1.16C16.68 1.10629 16.52 1 16.3063 1H11.2937C10.92 1 10.6537 1.32 10.6 1.69257V2.17257C10.6537 2.6 10.9737 2.86629 11.3463 2.86629H13.8537L10.6537 6.01257C10.499 6.1795 10.4131 6.39869 10.4131 6.62629C10.4131 6.85388 10.499 7.07307 10.6537 7.24ZM7.29371 10.7063C7.21208 10.6181 7.11308 10.5477 7.00295 10.4995C6.89281 10.4514 6.77391 10.4266 6.65371 10.4266C6.53352 10.4266 6.41462 10.4514 6.30448 10.4995C6.19435 10.5477 6.09535 10.6181 6.01371 10.7063L2.76 13.9063V11.4C2.76 11.0263 2.49371 10.7063 2.12 10.7063H1.69371C1.32 10.7063 1.05371 10.92 1 11.2926V16.3063C1 16.4663 1.05371 16.6263 1.16 16.7863C1.26629 16.84 1.42629 16.9463 1.64 16.9463H1.96L6.65371 17C7.02629 17 7.29371 16.68 7.34629 16.3063V15.8263C7.29371 15.4 6.97371 15.1863 6.6 15.1863H4.14629L7.34629 11.9863C7.66629 11.6126 7.66629 11.0263 7.29371 10.7063Z" fill="#656A72"/>
</svg>
