<!-- Copyright (c) 2022 NetEase, Inc. All rights reserved. -->
<!-- Use of this source code is governed by a MIT license that can be -->
<!-- found in the LICENSE file. -->

<svg width="30" height="30" viewBox="0 0 30 30" fill="none" xmlns="http://www.w3.org/2000/svg">
<path d="M22.147 17.1906V13.8102C22.147 13.4721 22.2597 13.0829 22.4154 12.921L26.1154 9.11247C27.3261 7.86685 28.7193 7.51652 28.7193 8.85228V22.1505C28.7193 23.4842 27.3261 23.136 26.1154 21.8903L22.4154 18.0818C22.2597 17.922 22.147 17.5307 22.147 17.1906ZM20.3974 20.9418C20.3974 21.4851 20.1815 22.0062 19.7973 22.3904C19.4131 22.7746 18.892 22.9905 18.3487 22.9905H4.0486C3.50524 22.9905 2.98414 22.7746 2.59993 22.3904C2.21572 22.0062 1.99988 21.4851 1.99988 20.9418V10.0569C1.99988 9.51357 2.21572 8.99247 2.59993 8.60826C2.98414 8.22405 3.50524 8.00821 4.0486 8.00821H18.3487C18.892 8.00821 19.4131 8.22405 19.7973 8.60826C20.1815 8.99247 20.3974 9.51357 20.3974 10.0569V20.9418Z" fill="#656A72"/>
</svg>
