<!--
  - Copyright (c) 2022 NetEase, Inc. All rights reserved.
  - Use of this source code is governed by a MIT license that can be
  - found in the LICENSE file.
  -->

<svg width="18" height="18" viewBox="0 0 18 18" fill="none" xmlns="http://www.w3.org/2000/svg">
    <path
        d="M14.9978 17.1021L14.9978 17.1026C14.9978 17.1465 14.9865 17.1897 14.9649 17.2279C14.9433 17.2661 14.9122 17.2981 14.8746 17.3207L15.2061 17.8715L14.8746 17.3207C14.837 17.3434 14.7941 17.3559 14.7503 17.3571C14.7064 17.3582 14.6629 17.348 14.6242 17.3274L14.6241 17.3274L9.18456 14.4403C9.18452 14.4403 9.18448 14.4403 9.18444 14.4402C8.96204 14.3222 8.71408 14.2604 8.46228 14.2604C8.21043 14.2604 7.96243 14.3222 7.74 14.4403L2.30315 17.3265L2.30243 17.3269C2.26367 17.3475 2.22023 17.3578 2.17633 17.3566C2.13244 17.3555 2.08958 17.343 2.05194 17.3204L1.72092 17.8715L2.05194 17.3204C2.01429 17.2978 1.98315 17.2658 1.96153 17.2276C1.93991 17.1894 1.92856 17.1462 1.92857 17.1023V17.1021V1.79437C1.92857 1.64315 1.95836 1.49341 2.01623 1.3537C2.07409 1.21399 2.15891 1.08705 2.26584 0.980126C2.37277 0.873199 2.49971 0.788379 2.63942 0.73051C2.77912 0.672642 2.92886 0.642857 3.08008 0.642857H13.8463C13.9975 0.642857 14.1472 0.672642 14.2869 0.73051L14.5316 0.139897L14.2869 0.730511C14.4266 0.788379 14.5536 0.873199 14.6605 0.980126C14.7674 1.08705 14.8523 1.21399 14.9101 1.3537C14.968 1.49341 14.9978 1.64315 14.9978 1.79437V17.1021Z"
        stroke="#656A72" stroke-width="1.28571" />
    <path d="M5.14286 8.35714L8.24999 10.8758L12.2143 4.5" stroke="#656A72" stroke-width="1.28571"
        stroke-linecap="round" stroke-linejoin="round" />
</svg>
