<svg t="1772444904121" class="icon" viewBox="0 0 1024 1024" version="1.1" xmlns="http://www.w3.org/2000/svg" p-id="6604" width="64" height="64"><path d="M912.0256 208.0256H427.8784l-50.3808-94.208a63.9488 63.9488 0 0 0-56.4224-33.792H112.0256c-35.328 0-64 28.672-64 64v735.9488c0 35.328 28.672 64 64 64h799.9488c35.328 0 64-28.672 64-64V272.0256c0-35.2768-28.672-64-64-64zM112.0256 144.0256H321.024l68.4544 128h522.4448v97.9456l-1.1776-0.1024H113.2544l-1.28 0.1024V144.0256z m0 735.9488v-96l1.2288-350.1056 798.72 1.2288v348.928h0.1024v95.9488H111.9744z" fill="#656A72" p-id="6605"></path></svg>