<!--
  - Copyright (c) 2022 NetEase, Inc. All rights reserved.
  - Use of this source code is governed by a MIT license that can be
  - found in the LICENSE file.
  -->

<svg width="32" height="32" viewBox="0 0 32 32" fill="none" xmlns="http://www.w3.org/2000/svg">
<path d="M28.6098 4.46355L3.06915 14.3192C1.62982 14.8746 1.66588 15.6817 3.14254 16.1199L9.31372 17.951L11.8228 25.4169C12.1513 26.3944 13.0095 26.6005 13.7435 25.8733L16.9806 22.6667L23.3704 27.3492C24.2006 27.9576 25.0541 27.6374 25.2782 26.6276L29.941 5.61686C30.1645 4.60998 29.5693 4.09332 28.6098 4.46355ZM24.7232 9.21402L13.8288 18.9206C13.6329 19.0951 13.4556 19.441 13.4284 19.6971L12.9474 24.2189C12.8934 24.7266 12.7184 24.7476 12.5569 24.2609L10.4489 17.9066C10.3664 17.658 10.4794 17.3533 10.6996 17.2212L24.5156 8.93429C25.3961 8.40623 25.4898 8.53094 24.7232 9.21402Z" fill="#A3A4A5"/>
</svg>
