<svg xmlns="http://www.w3.org/2000/svg" xmlns:xlink="http://www.w3.org/1999/xlink" fill="none" version="1.1" width="9.244507789611816" height="9.2445068359375" viewBox="0 0 9.244507789611816 9.2445068359375"><g><path d="M4.62225,3.74225C4.62225,3.74225,8.18226,0.182254,8.18226,0.182254C8.29895,0.0655587,8.45722,-3.88829e-9,8.62225,1.72961e-16C8.78729,3.88829e-9,8.94556,0.0655587,9.06226,0.182254C9.17895,0.298949,9.24451,0.457222,9.24451,0.622254C9.24451,0.787286,9.17895,0.945559,9.06226,1.06225C9.06226,1.06225,5.50226,4.62225,5.50226,4.62225C5.50226,4.62225,9.06226,8.18225,9.06226,8.18225C9.17895,8.29895,9.24451,8.45722,9.24451,8.62225C9.24451,8.78729,9.17895,8.94556,9.06226,9.06225C8.94556,9.17895,8.78729,9.24451,8.62225,9.24451C8.45722,9.24451,8.29895,9.17895,8.18226,9.06225C8.18226,9.06225,4.62225,5.50225,4.62225,5.50225C4.62225,5.50225,1.06225,9.06225,1.06225,9.06225C0.945559,9.17895,0.787286,9.24451,0.622254,9.24451C0.457222,9.24451,0.298949,9.17895,0.182254,9.06225C0.0655588,8.94556,1.22958e-9,8.78729,6.91842e-17,8.62225C-1.22958e-9,8.45722,0.0655588,8.29895,0.182254,8.18225C0.182254,8.18225,3.74225,4.62225,3.74225,4.62225C3.74225,4.62225,0.182254,1.06225,0.182254,1.06225C0.0655588,0.945559,-2.45917e-9,0.787286,6.91842e-17,0.622254C2.45917e-9,0.457222,0.0655588,0.298949,0.182254,0.182254C0.298949,0.0655587,0.457222,2.45917e-9,0.622254,1.72961e-16C0.787286,-2.45917e-9,0.945559,0.0655587,1.06225,0.182254C1.06225,0.182254,4.62225,3.74225,4.62225,3.74225Z" fill="#666666" fill-opacity="1"/></g></svg>