<svg width="18" height="18" viewBox="0 0 18 18" fill="none" xmlns="http://www.w3.org/2000/svg">
<path d="M9.50002 3.0763C11.3585 3.0763 12.8698 4.54522 12.87 6.3622V6.84804C12.87 7.20838 12.5708 7.49686 12.2074 7.4971C11.8437 7.4971 11.5438 7.20853 11.5438 6.84804V6.3622C11.5436 5.26621 10.6312 4.37347 9.50002 4.37347C8.3688 4.37347 7.45642 5.26621 7.45624 6.3622V7.47199H9.55121C10.8198 7.47199 11.568 8.87378 10.8242 9.8886L9.58792 11.576C9.37475 11.8668 8.9614 11.9331 8.66454 11.7267C8.36616 11.519 8.29564 11.1121 8.51 10.8197L9.74729 9.13329C9.85633 8.98436 9.7503 8.76916 9.55121 8.76916H7.45624V10.5386C7.45618 10.8991 7.15628 11.1867 6.79268 11.1867C6.42929 11.1865 6.13015 10.8989 6.13009 10.5386V6.3622C6.13027 4.54522 7.64152 3.0763 9.50002 3.0763Z" fill="#656A72"/>
<path fill-rule="evenodd" clip-rule="evenodd" d="M9.58405 0C11.4851 3.41309e-05 13.1132 0.675931 14.2618 1.89214C15.406 3.10377 16.0274 4.80122 16.0274 6.76787C16.0273 8.08466 15.7428 9.06898 15.2759 9.89343C14.8264 10.6871 14.2206 11.3049 13.6494 11.887L13.6253 11.9121C12.9235 12.6274 12.2372 13.3309 11.6839 14.3693L11.6829 14.3683L11.681 14.3731V14.3751L10.9933 15.6355C10.1554 17.1729 8.78926 18 7.00228 18C5.81747 17.9999 4.79027 17.5984 4.06313 16.8342C3.34072 16.0749 2.97267 15.0194 2.97266 13.811V6.79878C2.97266 4.81918 3.61867 3.11322 4.79622 1.89697C5.97697 0.677705 7.64516 0 9.58405 0ZM9.58405 1.2962C7.972 1.2962 6.66511 1.85301 5.7592 2.78847C4.85042 3.72693 4.29783 5.09606 4.29783 6.79878V13.811C4.29785 14.7649 4.58617 15.4799 5.03383 15.9504C5.47685 16.416 6.13359 16.7037 7.00228 16.7038C7.6435 16.7038 8.19601 16.5664 8.66454 16.2875C9.13294 16.0087 9.51691 15.5888 9.82359 15.0261L10.5094 13.7666C11.1548 12.5567 11.9571 11.7382 12.6526 11.0293L12.6681 11.0138C13.2648 10.4056 13.7577 9.89886 14.1169 9.26465C14.4652 8.64962 14.7021 7.88509 14.7022 6.76787C14.7022 5.06724 14.1667 3.7033 13.2872 2.77205C12.4121 1.84573 11.1497 1.29623 9.58405 1.2962Z" fill="#656A72"/>
</svg>
