<?xml version="1.0" standalone="no"?><!DOCTYPE svg PUBLIC "-//W3C//DTD SVG 1.1//EN" "http://www.w3.org/Graphics/SVG/1.1/DTD/svg11.dtd"><svg class="icon" width="32px" height="32.00px" viewBox="0 0 1024 1024" version="1.1" xmlns="http://www.w3.org/2000/svg"><path d="M0 0m93.090909 0l837.818182 0q93.090909 0 93.090909 93.090909l0 837.818182q0 93.090909-93.090909 93.090909l-837.818182 0q-93.090909 0-93.090909-93.090909l0-837.818182q0-93.090909 93.090909-93.090909Z" fill="#F16C00" /><path d="M754.432 452.305455a63.534545 63.534545 0 0 1-9.402182 22.772363c-3.735273 5.725091-7.528727 9.553455-11.333818 7.610182-3.735273 0-5.666909-24.715636-7.470545-28.555636a74.274909 74.274909 0 0 1-5.66691-20.875637c-1.873455-15.220364-7.540364-28.625455-17.000727-34.280727-9.402182-7.610182-22.551273-13.335273-39.552-17.163636-18.443636-3.607273-35.84-11.403636-50.874182-22.772364-15.069091-11.450182-32.011636-20.945455-41.425454-32.395636-9.460364-9.495273-16.989091-11.438545-20.736-9.495273-5.666909 1.885091-7.528727 7.610182-7.528727 13.335273v353.908363c0 9.565091-1.861818 20.945455-5.66691 32.395637-3.746909 11.438545-5.666909 22.830545-15.06909 34.210909-9.413818 11.450182-22.609455 19.060364-39.552 26.670545-16.989091 7.610182-37.678545 11.438545-60.346182 13.335273a135.726545 135.726545 0 0 1-67.816728-13.335273 135.330909 135.330909 0 0 1-47.080727-36.165818C296.576 726.283636 290.909091 711.063273 290.909091 692.002909c0-17.105455 7.586909-34.210909 24.529454-49.431273 15.080727-15.220364 32.011636-26.670545 50.885819-32.395636 18.804364-5.713455 35.805091-9.495273 52.747636-9.495273 16.989091 0 43.345455 0 56.552727 3.84 13.137455 3.770182 22.597818 5.713455 30.138182 7.610182v-336.872727c0-11.438545 3.735273-20.875636 9.402182-28.485818 5.666909-7.610182 15.069091-11.450182 24.482909-13.335273 9.460364-1.885091 16.989091 0 22.656 5.725091 5.666909 3.770182 0 11.438545 7.482182 18.990545a699.869091 699.869091 0 0 0 22.667636 28.555637c9.402182 11.438545 20.677818 20.945455 35.746909 30.440727 13.207273 9.495273 24.529455 15.220364 33.943273 20.945454 9.402182 3.770182 18.862545 7.610182 26.402909 11.438546 7.528727 3.781818 16.942545 7.563636 24.471273 13.277091 7.540364 5.725091 16.989091 13.335273 26.344727 24.785454 9.460364 11.438545 15.069091 20.875636 17.000727 32.325819 0 11.438545 0 22.830545-1.931636 32.325818v0.058182z" fill="#FFFFFF" /></svg>