<svg width="26" height="20" viewBox="0 0 26 20" fill="none" xmlns="http://www.w3.org/2000/svg">
<path d="M2.0023 8.06102L0 15.4026V1.31579C0.000391787 0.966945 0.139145 0.632497 0.385818 0.385823C0.632492 0.13915 0.96694 0.00039673 1.31579 4.93624e-06H7.56776C7.74062 -0.000470094 7.91187 0.0333446 8.07157 0.0994919C8.23128 0.165639 8.37628 0.262805 8.49819 0.385367L11.1936 3.08076C11.2179 3.1053 11.2469 3.12476 11.2788 3.138C11.3108 3.15125 11.345 3.15801 11.3796 3.1579H20.7895C21.1383 3.15829 21.4728 3.29704 21.7194 3.54372C21.9661 3.79039 22.1049 4.12484 22.1053 4.47369V6.31579H4.28717C3.76783 6.31664 3.26311 6.4878 2.85039 6.80305C2.43767 7.11829 2.13975 7.5602 2.0023 8.06102V8.06102ZM24.749 7.88553C24.6267 7.72417 24.4686 7.59346 24.2871 7.50372C24.1056 7.41397 23.9057 7.36766 23.7033 7.36842H4.28717C3.99854 7.36897 3.71807 7.46419 3.48877 7.63948C3.25947 7.81477 3.094 8.06044 3.01776 8.33882L0.29046 18.3388C0.237375 18.534 0.229984 18.7387 0.268861 18.9372C0.307737 19.1356 0.391835 19.3224 0.514624 19.4831C0.637412 19.6438 0.795587 19.774 0.976863 19.8637C1.15814 19.9533 1.35764 20 1.55987 20H20.976C21.2646 19.9995 21.5451 19.9042 21.7744 19.7289C22.0037 19.5537 22.1691 19.308 22.2454 19.0296L24.9727 9.02961C25.0265 8.8346 25.0343 8.62975 24.9955 8.43122C24.9566 8.23268 24.8722 8.04588 24.7488 7.88553H24.749Z" fill="#656A72"/>
</svg>
