<?xml version="1.0" standalone="no"?><!DOCTYPE svg PUBLIC "-//W3C//DTD SVG 1.1//EN" "http://www.w3.org/Graphics/SVG/1.1/DTD/svg11.dtd"><svg class="icon" width="32px" height="32.00px" viewBox="0 0 1024 1024" version="1.1" xmlns="http://www.w3.org/2000/svg"><path d="M0 0m93.090909 0l837.818182 0q93.090909 0 93.090909 93.090909l0 837.818182q0 93.090909-93.090909 93.090909l-837.818182 0q-93.090909 0-93.090909-93.090909l0-837.818182q0-93.090909 93.090909-93.090909Z" fill="#FA4E4E" /><path d="M705.186909 643.991273c-40.145455-2.978909-78.789818-17.885091-110.010182-44.718546-60.939636 13.416727-118.923636 32.802909-176.896 56.645818C372.200727 737.896727 329.099636 779.636364 291.933091 779.636364c-7.435636 0-16.349091-1.489455-22.295273-5.957819-16.360727-7.447273-25.274182-23.854545-25.274182-40.250181 0-13.416727 2.967273-50.676364 144.186182-111.790546 32.698182-59.624727 57.984-120.738909 78.789818-184.832-17.838545-35.770182-56.482909-123.717818-29.730909-168.436363 8.925091-16.395636 26.763636-25.332364 46.08-23.854546 14.871273 0 29.730909 7.458909 38.656 19.386182 19.316364 26.833455 17.838545 83.467636-7.447272 166.946909a449.431273 449.431273 0 0 0 92.171636 119.237818c31.220364-5.957818 62.440727-10.426182 93.649454-10.426182 69.864727 1.489455 80.279273 34.280727 78.778182 53.655273 0 50.676364-49.047273 50.676364-74.309818 50.676364z m-416.232727 92.416l4.468363-1.489455c20.805818-7.447273 37.154909-22.353455 49.047273-41.739636-22.295273 8.948364-40.133818 23.854545-53.515636 43.229091z m197.701818-447.162182h-4.456727c-1.477818 0-4.456727 0-5.934546 1.489454-5.946182 25.332364-1.489455 52.165818 8.913455 76.020364 8.913455-25.344 8.913455-52.177455 1.489454-77.509818z m10.414545 216.122182l-1.489454 2.990545-1.489455-1.489454c-13.381818 34.280727-28.241455 68.561455-44.590545 101.352727l2.978909-1.489455v2.978909a863.883636 863.883636 0 0 1 101.073455-29.812363l-1.477819-1.489455h4.456728c-22.295273-22.353455-43.112727-47.697455-59.461819-73.041454z m202.170182 79.010909c-13.381818 0-25.274182 0-38.656 2.978909 14.871273 7.447273 29.730909 10.426182 44.602182 11.915636 10.402909 1.501091 20.805818 0 29.719273-2.978909 0-4.468364-5.934545-11.915636-35.665455-11.915636z" fill="#FFFFFF" /></svg>