<?xml version="1.0" standalone="no"?><!DOCTYPE svg PUBLIC "-//W3C//DTD SVG 1.1//EN" "http://www.w3.org/Graphics/SVG/1.1/DTD/svg11.dtd"><svg class="icon" width="32px" height="32.00px" viewBox="0 0 1024 1024" version="1.1" xmlns="http://www.w3.org/2000/svg"><path d="M0 0m93.090909 0l837.818182 0q93.090909 0 93.090909 93.090909l0 837.818182q0 93.090909-93.090909 93.090909l-837.818182 0q-93.090909 0-93.090909-93.090909l0-837.818182q0-93.090909 93.090909-93.090909Z" fill="#FF9333" /><path d="M407.621818 791.272727V581.888h149.178182C673.838545 581.888 733.090909 530.967273 733.090909 429.847273 733.090909 329.472 674.56 279.272727 557.498182 279.272727H349.090909v512h58.530909z m146.315637-260.305454H407.621818V330.181818h146.315637c40.680727 0 70.667636 7.889455 90.647272 25.099637 19.991273 15.057455 29.975273 40.157091 29.975273 74.58909 0 34.408727-9.984 59.508364-29.265455 75.997091-19.979636 16.500364-49.954909 25.099636-91.345454 25.099637z" fill="#FFFFFF" /></svg>