<?xml version="1.0" standalone="no"?><!DOCTYPE svg PUBLIC "-//W3C//DTD SVG 1.1//EN" "http://www.w3.org/Graphics/SVG/1.1/DTD/svg11.dtd"><svg class="icon" width="32px" height="32.00px" viewBox="0 0 1024 1024" version="1.1" xmlns="http://www.w3.org/2000/svg"><path d="M0 0m93.090909 0l837.818182 0q93.090909 0 93.090909 93.090909l0 837.818182q0 93.090909-93.090909 93.090909l-837.818182 0q-93.090909 0-93.090909-93.090909l0-837.818182q0-93.090909 93.090909-93.090909Z" fill="#CCCCCC" /><path d="M349.090909 439.272727c0-32 6.516364-57.6 13.032727-73.6s19.549091-32 35.84-44.8c16.290909-16 32.581818-25.6 55.389091-32 19.549091-6.4 39.098182-9.6 61.905455-9.6 45.614545 0 81.454545 12.8 114.036363 38.4C658.618182 343.272727 674.909091 375.272727 674.909091 416.872727c0 19.2-6.516364 35.2-13.032727 51.2-6.516364 16-22.807273 35.2-48.872728 57.6-26.065455 22.4-35.84 38.4-45.614545 48-9.774545 9.6-13.032727 22.4-19.549091 35.2-6.516364 12.8-3.258182 22.4-3.258182 54.4h-65.163636c0-32 3.258182-48 6.516363-64s9.774545-28.8 19.549091-41.6 19.549091-28.8 42.356364-51.2c22.807273-22.4 39.098182-38.4 45.614545-48 6.516364-9.6 13.032727-25.6 13.032728-48 0-22.4-9.774545-38.4-26.065455-54.4-16.290909-16-39.098182-25.6-68.421818-25.6-65.163636 0-97.745455 44.8-97.745455 108.8H349.090909zM544.581818 791.272727h-65.163636v-64h65.163636V791.272727z" fill="#FFFFFF" /></svg>