<?xml version="1.0" standalone="no"?><!DOCTYPE svg PUBLIC "-//W3C//DTD SVG 1.1//EN" "http://www.w3.org/Graphics/SVG/1.1/DTD/svg11.dtd"><svg class="icon" width="32px" height="32.00px" viewBox="0 0 1024 1024" version="1.1" xmlns="http://www.w3.org/2000/svg"><path d="M0 0m93.090909 0l837.818182 0q93.090909 0 93.090909 93.090909l0 837.818182q0 93.090909-93.090909 93.090909l-837.818182 0q-93.090909 0-93.090909-93.090909l0-837.818182q0-93.090909 93.090909-93.090909Z" fill="#4876F9" /><path d="M465.454545 418.897455c21.236364 0 41.262545 4.561455 60.19491 13.614545a137.658182 137.658182 0 0 1 38.551272 27.310545c11.485091 11.485091 20.596364 24.354909 27.298909 38.493091-9.111273 9.122909-20.084364 13.626182-32.896 13.626182a48.989091 48.989091 0 0 1-13.614545-2.024727 94.894545 94.894545 0 0 0-30.941091-30.929455 91.787636 91.787636 0 0 0-48.535273-13.626181 92.951273 92.951273 0 0 0-35.258182 6.923636 91.717818 91.717818 0 0 0-30.545454 20.375273l-69.829818 69.853091a91.729455 91.729455 0 0 0-20.375273 30.533818 93.44 93.44 0 0 0 0 70.528 90.298182 90.298182 0 0 0 20.363636 30.545454 91.426909 91.426909 0 0 0 30.545455 20.363637 93.696 93.696 0 0 0 35.316364 6.935272 92.951273 92.951273 0 0 0 35.258181-6.923636 91.717818 91.717818 0 0 0 30.533819-20.375273l48.896-48.896a183.074909 183.074909 0 0 0 59.438545 6.004364c-1.838545 2.013091-3.688727 4.037818-5.585455 6.004364l-69.841454 69.841454a136.936727 136.936727 0 0 1-45.777455 30.533818 139.985455 139.985455 0 0 1-105.960727-0.058182 138.24 138.24 0 0 1-45.765818-30.475636 137.309091 137.309091 0 0 1-30.533818-45.719273A140.032 140.032 0 0 1 256 628.363636c0-18.176 3.525818-36.189091 10.391273-52.980363a137.309091 137.309091 0 0 1 30.533818-45.719273l69.829818-69.841455c1.326545-1.326545 3.351273-3.176727 6.004364-5.655272a137.716364 137.716364 0 0 1 43.461818-26.263273 141.498182 141.498182 0 0 1 49.221818-9.006545zM628.386909 256c18.176 0 36.189091 3.525818 52.980364 10.391273 17.024 6.865455 32.267636 17.082182 45.765818 30.533818a136.436364 136.436364 0 0 1 30.533818 45.719273 140.288 140.288 0 0 1-0.116364 105.984 137.437091 137.437091 0 0 1-30.475636 45.707636l-69.829818 69.841455c-1.326545 1.396364-3.351273 3.234909-6.004364 5.666909a136.448 136.448 0 0 1-43.461818 26.263272c-15.755636 5.934545-32.430545 8.994909-49.291636 8.994909-21.178182 0-41.262545-4.549818-60.194909-13.614545a137.658182 137.658182 0 0 1-38.551273-27.310545 137.413818 137.413818 0 0 1-27.298909-38.493091c9.053091-9.122909 20.014545-13.626182 32.896-13.626182 4.503273 0 9.064727 0.698182 13.614545 2.024727a94.72 94.72 0 0 0 30.882909 30.929455 91.927273 91.927273 0 0 0 48.535273 13.626181 92.951273 92.951273 0 0 0 35.258182-6.923636 91.136 91.136 0 0 0 30.545454-20.375273l69.829819-69.841454a90.868364 90.868364 0 0 0 20.375272-30.545455 93.44 93.44 0 0 0 0-70.528 91.147636 91.147636 0 0 0-20.363636-30.533818 91.426909 91.426909 0 0 0-30.545455-20.375273 93.626182 93.626182 0 0 0-35.258181-6.935272 92.951273 92.951273 0 0 0-35.258182 6.935272 91.136 91.136 0 0 0-30.545455 20.363637l-48.942545 48.896a183.074909 183.074909 0 0 0-59.438546-6.004364c1.838545-2.013091 3.688727-4.037818 5.655273-6.004364l69.829818-69.841454a137.425455 137.425455 0 0 1 45.719273-30.475636c17.256727-6.981818 34.909091-10.507636 53.154909-10.449455z" fill="#FFFFFF" /></svg>