<svg width="21" height="26" viewBox="0 0 21 26" fill="none" xmlns="http://www.w3.org/2000/svg">
<path d="M10.426 26H10.4C9.945 26 9.516 25.818 9.204 25.48C8.957 25.22 6.734 22.867 4.511 19.903C1.521 15.886 0 12.675 0 10.387C0 4.654 4.667 0 10.4 0C16.133 0 20.8 4.654 20.8 10.387C20.8 11.778 20.267 13.481 19.201 15.457C18.187 17.355 16.653 19.565 14.638 22.009L14.625 22.022L11.635 25.428C11.336 25.792 10.894 26 10.426 26V26ZM10.4 15.236C13.091 15.236 15.262 13.052 15.262 10.374C15.262 7.696 13.091 5.525 10.4 5.525C7.709 5.525 5.525 7.696 5.525 10.387C5.525 13.078 7.709 15.236 10.4 15.236Z" fill="#656A72"/>
</svg>
