<svg width="16" height="16" viewBox="0 0 16 16" fill="none" xmlns="http://www.w3.org/2000/svg">
<mask id="mask0_18775_6106" style="mask-type:alpha" maskUnits="userSpaceOnUse" x="0" y="0" width="16" height="16">
<rect width="16" height="16" transform="matrix(1 0 0 -1 0 16)" fill="#D9D9D9"/>
</mask>
<g mask="url(#mask0_18775_6106)">
<path d="M7.63284 13.8906C7.89161 14.0615 8.24357 14.0325 8.47139 13.8047L13.1381 9.13802C13.3984 8.87767 13.3984 8.45566 13.1381 8.19531C12.8777 7.93496 12.4557 7.93496 12.1953 8.19531L8.00003 12.3906L3.80472 8.19531C3.54437 7.93496 3.12236 7.93496 2.86201 8.19531C2.60166 8.45566 2.60166 8.87767 2.86201 9.13802L7.52868 13.8047L7.63284 13.8906Z" fill="#1861DF"/>
<path d="M7.63284 8.55731C7.89161 8.7282 8.24357 8.69919 8.47139 8.47137L13.1381 3.80471C13.3984 3.54436 13.3984 3.12235 13.1381 2.862C12.8777 2.60165 12.4557 2.60165 12.1953 2.862L8.00003 7.05731L3.80472 2.862C3.54437 2.60165 3.12236 2.60165 2.86201 2.862C2.60166 3.12235 2.60166 3.54436 2.86201 3.80471L7.52868 8.47137L7.63284 8.55731Z" fill="#1861DF"/>
</g>
</svg>
