<svg width="24" height="24" viewBox="0 0 24 24" fill="none" xmlns="http://www.w3.org/2000/svg">
<mask id="path-1-inside-1_18091_8981" fill="white">
<path d="M20.4562 17.7191H20.4579V17.7094L20.4562 17.7191Z"/>
</mask>
<path d="M20.4562 17.7191H20.4579V17.7094L20.4562 17.7191Z" fill="#656A72"/>
<path d="M20.4562 17.7191L20.4227 17.7136L20.4161 17.7531H20.4562V17.7191ZM20.4579 17.7191V17.7531H20.4918V17.7191H20.4579ZM20.4579 17.7094H20.4918L20.4243 17.7038L20.4579 17.7094ZM20.4562 17.7191V17.7531H20.4579V17.7191V17.6852H20.4562V17.7191ZM20.4579 17.7191H20.4918V17.7094H20.4579H20.4239V17.7191H20.4579ZM20.4579 17.7094L20.4243 17.7038L20.4227 17.7136L20.4562 17.7191L20.4898 17.7247L20.4914 17.7149L20.4579 17.7094Z" fill="#656A72" mask="url(#path-1-inside-1_18091_8981)"/>
<path d="M19 5C20.1046 5 21 5.89543 21 7L21 18C21 19.1046 20.1046 20 19 20L5.00001 20C3.89544 20 3.00001 19.1046 3 18L3 7C3 5.89543 3.89543 5 5 5M11 5L13 5" stroke="#656A72" stroke-width="1.5" stroke-linecap="round"/>
<path d="M8 3V7" stroke="#656A72" stroke-width="1.5" stroke-linecap="round"/>
<path d="M16 3V7" stroke="#656A72" stroke-width="1.5" stroke-linecap="round"/>
<path d="M3 11H20.3333" stroke="#656A72" stroke-width="1.5" stroke-linecap="round"/>
</svg>
