<!--
  - Copyright (c) 2022 NetEase, Inc. All rights reserved.
  - Use of this source code is governed by a MIT license that can be
  - found in the LICENSE file.
  -->

<svg width="24" height="24" viewBox="0 0 24 24" fill="none" xmlns="http://www.w3.org/2000/svg">
<path d="M12.2499 19.9668V21.2493C12.2499 21.4482 12.1709 21.6389 12.0303 21.7796C11.8896 21.9202 11.6989 21.9993 11.4999 21.9993C11.301 21.9993 11.1103 21.9202 10.9696 21.7796C10.829 21.6389 10.7499 21.4482 10.7499 21.2493V19.9668C6.40669 19.5868 2.99994 15.9408 2.99994 11.4993V10.9993C2.99994 10.8004 3.07896 10.6096 3.21961 10.4689C3.36026 10.3283 3.55103 10.2493 3.74994 10.2493C3.94885 10.2493 4.13962 10.3283 4.28027 10.4689C4.42092 10.6096 4.49994 10.8004 4.49994 10.9993V11.4993C4.49994 15.3653 7.63394 18.4993 11.4999 18.4993C15.3659 18.4993 18.4999 15.3653 18.4999 11.4993V10.9993C18.4999 10.8004 18.579 10.6096 18.7196 10.4689C18.8603 10.3283 19.051 10.2493 19.2499 10.2493C19.4489 10.2493 19.6396 10.3283 19.7803 10.4689C19.9209 10.6096 19.9999 10.8004 19.9999 10.9993V11.4993C19.9999 15.941 16.5932 19.5868 12.2499 19.9668ZM6.49994 6.99677C6.49994 4.23677 8.73819 1.99927 11.4999 1.99927C14.2604 1.99927 16.4999 4.23852 16.4999 6.99677V11.5018C16.4999 14.2618 14.2617 16.4993 11.4999 16.4993C8.73944 16.4993 6.49994 14.26 6.49994 11.5018V6.99677ZM7.99994 6.99677V11.5018C7.99994 13.4318 9.56769 14.9993 11.4999 14.9993C13.4334 14.9993 14.9999 13.4335 14.9999 11.5018V6.99677C14.9999 5.06677 13.4322 3.49927 11.4999 3.49927C9.56644 3.49927 7.99994 5.06502 7.99994 6.99677Z" fill="#656A72"/>
</svg>
