<svg width="18" height="18" viewBox="0 0 18 18" fill="none" xmlns="http://www.w3.org/2000/svg">
<path fill-rule="evenodd" clip-rule="evenodd" d="M8.54558 1.62895C9.2596 1.06814 10.3067 1.57745 10.3067 2.48544V15.515C10.3065 16.4228 9.25954 16.9321 8.54558 16.3715L6.37712 14.6669H2.02347C1.18192 14.6667 0.500175 13.9839 0.5 13.1424V4.85807C0.500018 4.01639 1.18182 3.33375 2.02347 3.33356H6.37712L8.54558 1.62895ZM7.00536 4.49893C6.89055 4.5891 6.74823 4.63812 6.60224 4.63819H2.02347C1.90226 4.63839 1.8036 4.73682 1.80358 4.85807V13.1424C1.80376 13.2635 1.90236 13.3621 2.02347 13.3623H6.60224C6.74827 13.3623 6.89053 13.4113 7.00536 13.5015L8.99895 15.0679H9.00105L9.00209 15.0669V2.93358L9.00105 2.93253H8.99895L7.00536 4.49893Z" fill="#656A72"/>
<path d="M14.385 3.35031C14.6155 3.07384 15.0266 3.0364 15.3033 3.26655C16.8222 4.53244 17.5 6.8349 17.5 9.00022C17.4999 11.1655 16.8223 13.467 15.3033 14.7329C15.0266 14.9633 14.6156 14.9266 14.385 14.6501C14.1544 14.3734 14.1922 13.9614 14.4688 13.7308C15.5655 12.8166 16.1964 10.9767 16.1964 9.00022C16.1964 7.02376 15.5655 5.18392 14.4688 4.26962C14.1921 4.03906 14.1545 3.62704 14.385 3.35031Z" fill="#656A72"/>
<path d="M11.7695 5.9669C12.0001 5.69022 12.411 5.65254 12.6877 5.88314C13.5526 6.60403 13.9034 7.87045 13.9034 9.00022C13.9033 10.13 13.5526 11.3965 12.6877 12.1173C12.4111 12.3477 12.0001 12.31 11.7695 12.0335C11.539 11.7569 11.5758 11.3459 11.8522 11.1153C12.2951 10.7462 12.5987 9.94136 12.5987 9.00022C12.5987 8.05906 12.2951 7.25435 11.8522 6.88517C11.5757 6.65457 11.539 6.24356 11.7695 5.9669Z" fill="#656A72"/>
</svg>
