<svg width="24" height="24" viewBox="0 0 24 24" fill="none" xmlns="http://www.w3.org/2000/svg">
<circle cx="15" cy="8" r="4" stroke="#656A72" stroke-width="1.5" stroke-linejoin="round"/>
<path d="M9 18C9 14.6863 11.6863 12 15 12C18.3137 12 21 14.6863 21 18V19.0588C21 19.5786 20.5786 20 20.0588 20H9.94118C9.42138 20 9 19.5786 9 19.0588V18Z" stroke="#656A72" stroke-width="1.5"/>
<path d="M8.75 6.25C8.91954 6.25 9.08642 6.26141 9.25 6.2832C9.10916 6.75561 9.02558 7.25227 9.00586 7.76562C8.92184 7.75611 8.83656 7.75 8.75 7.75C7.50736 7.75 6.5 8.75736 6.5 10C6.5 11.2426 7.50736 12.25 8.75 12.25C9.06071 12.25 9.35676 12.1871 9.62598 12.0732L9.62109 12.0781C9.07175 12.5774 8.59271 13.1524 8.19922 13.7861C6.11225 14.0562 4.5 15.8395 4.5 18V19.1768C4.50015 19.2171 4.53286 19.2498 4.57324 19.25H7V19.4736C7 19.9398 7.12847 20.3752 7.34863 20.75H4.57324C3.70443 20.7498 3.00016 20.0456 3 19.1768V18C3 15.7125 4.33552 13.7366 6.26953 12.8105C5.49158 12.1234 5 11.1196 5 10C5 7.92893 6.67893 6.25 8.75 6.25Z" fill="#656A72"/>
</svg>
