<svg xmlns="http://www.w3.org/2000/svg" xmlns:xlink="http://www.w3.org/1999/xlink" fill="none" version="1.1" width="30" height="30" viewBox="0 0 30 30"><defs><clipPath id="master_svg0_3002_058254"><rect x="0" y="0" width="30" height="30" rx="0"/></clipPath></defs><g clip-path="url(#master_svg0_3002_058254)"><g><g><path d="M3.4775390625,23.9537498046875L3.4775390625,4.9890498046875Q3.4775390625,4.8766498046875,3.4885563625,4.7647898046875Q3.4995737625,4.6529298046875,3.5215023625,4.5426798046875Q3.5434309625,4.4324398046875,3.5760595625,4.3248798046875Q3.6086880625,4.2173198046875005,3.6517030625,4.1134698046875Q3.6947170625,4.0096198046875,3.7477030625,3.9104898046875Q3.8006890625,3.8113598046875,3.8631370625,3.7179098046875003Q3.9255840625,3.6244458046875,3.9968910625,3.5375578046875003Q4.0681980625000005,3.4506698046875,4.1476790625,3.3711898046875Q4.2271590625,3.2917088046875,4.3140470625,3.2204018046875Q4.4009350625,3.1490948046875,4.4943990625,3.0866478046875Q4.5878490625,3.0241998046875,4.6869790625,2.9712138046875Q4.7861090625,2.9182278046875,4.8899590625,2.8752138046875Q4.9938090625000005,2.8321988046875,5.1013690625,2.7995703046875Q5.2089290625,2.7669417046875,5.3191690625,2.7450131046875Q5.4294190625,2.7230845046875,5.5412790625,2.7120671046875Q5.6531390625,2.7010498046875,5.7655390625,2.7010498046875L20.6232390625,2.7010498046875Q20.7356390625,2.7010498046875,20.8475390625,2.7120671046875Q20.9593390625,2.7230845046875,21.0696390625,2.7450131046875Q21.1798390625,2.7669417046875,21.2874390625,2.7995703046875Q21.3949390625,2.8321988046875,21.4988390625,2.8752138046875Q21.6026390625,2.9182278046875,21.7017390625,2.9712138046875Q21.8009390625,3.0241998046875,21.8943390625,3.0866478046875Q21.9878390625,3.1490948046875,22.0747390625,3.2204018046875Q22.1616390625,3.2917088046875,22.2410390625,3.3711898046875Q22.3205390625,3.4506698046875,22.3918390625,3.5375578046875003Q22.4631390625,3.6244458046875,22.5256390625,3.7179098046875003Q22.5880390625,3.8113598046875,22.6410390625,3.9104898046875Q22.6940390625,4.0096198046875,22.7370390625,4.1134698046875Q22.7800390625,4.2173198046875005,22.8127390625,4.3248798046875Q22.8453390625,4.4324398046875,22.8672390625,4.5426798046875Q22.8892390625,4.6529298046875,22.9002390625,4.7647898046875Q22.9112390625,4.8766498046875,22.9112390625,4.9890498046875L22.9112390625,10.180899804687499Q22.1596390625,11.0630898046875,21.7061390625,11.7238098046875L17.4502390625,17.9237498046875L13.5586390625,7.4443898046875C13.5479390625,7.4135098046875,13.5356390625,7.3831598046875,13.5218390625,7.3534698046875L13.5085390625,7.3261098046875C13.4022890625,7.1165798046875,13.2219390625,6.9560998046875,13.0040190625,6.8771898046875L12.9924090625,6.8730798046875C12.8980190625,6.8403598046875,12.7990090625,6.8236698046875,12.6993090625,6.8236698046875L12.6902890625,6.8237198046875L12.6900090625,6.8237198046875C12.5827890625,6.8247998046875,12.4766090625,6.8451798046875,12.3763390625,6.8839298046875C12.1136590625,6.9854298046875,11.9169590625,7.2020498046875,11.8329190625,7.4648198046875L7.6276690625,19.5506498046875C7.5929390625,19.6504498046875,7.5751990625,19.7555498046875,7.5751990625,19.8614498046875L7.5751990625,19.8632498046875C7.5754590625,20.0008498046875,7.6056690625,20.1366498046875,7.6636490625,20.2609498046875C7.7675090625,20.4834498046875,7.9537590625,20.6547498046875,8.1814490625,20.7371498046875C8.279279062499999,20.7726498046875,8.3823290625,20.7907498046875,8.486149062500001,20.7907498046875L8.5188390625,20.7901498046875C8.892269062499999,20.7764498046875,9.2196390625,20.5315498046875,9.3447590625,20.1719498046875L10.328539062499999,17.3445498046875L15.2869390625,17.3445498046875L16.1445390625,19.6540498046875C16.1579390625,19.6901498046875,16.1734390625,19.7250498046875,16.1907390625,19.7586498046875L15.2438390625,21.1380498046875Q14.3358390625,22.4609498046875,14.4684390625,24.0701498046875L14.6474390625,26.2417498046875L5.7655390625,26.2417498046875Q5.6531390625,26.2417498046875,5.5412790625,26.2307498046875Q5.4294190625,26.2197498046875,5.3191690625,26.1978498046875Q5.2089290625,26.1759498046875,5.1013690625,26.1432498046875Q4.9938090625000005,26.1106498046875,4.8899590625,26.0676498046875Q4.7861090625,26.0246498046875,4.6869790625,25.9716498046875Q4.5878490625,25.9186498046875,4.4943990625,25.8561498046875Q4.4009350625,25.7937498046875,4.3140470625,25.7224498046875Q4.2271590625,25.6511498046875,4.1476790625,25.5716498046875Q4.0681980625000005,25.4921498046875,3.9968910625,25.4052498046875Q3.9255840625,25.3183498046875,3.8631370625,25.2249498046875Q3.8006890625,25.1314498046875,3.7477030625,25.0323498046875Q3.6947170625,24.9332498046875,3.6517030625,24.8293498046875Q3.6086880625,24.7255498046875,3.5760595625,24.6179498046875Q3.5434309625,24.5104498046875,3.5215023625,24.4001498046875Q3.4995737625,24.2899498046875,3.4885563625,24.1780498046875Q3.4775390625,24.0661498046875,3.4775390625,23.9537498046875ZM14.5967390625,15.4860498046875L10.9751890625,15.4860498046875L12.7270190625,10.4513698046875L14.5967390625,15.4860498046875Z" fill-rule="evenodd" fill="#656A72" fill-opacity="1"/></g><g><path d="M21.909704907836915,14.882341305847168L23.346174907836915,12.789667305847168C23.703734907836914,12.268765905847168,24.410384907836914,12.144187305847169,24.924524907836915,12.511414305847168L27.494514907836916,14.347041305847167C28.008614907836915,14.714271305847168,28.135514907836914,15.434241305847168,27.778014907836912,15.955141305847167L26.268904907836912,18.15359130584717L21.909704907836915,14.882341305847168ZM20.865834907836913,16.403071305847167L16.330237865836914,23.01057130584717L16.413564207836913,26.073371305847168C16.434702907836915,26.85037130584717,17.189079907836913,27.389271305847167,17.912084907836913,27.143771305847167L20.762044907836916,26.176071305847167L25.225054907836913,19.674301305847166L20.865834907836913,16.403071305847167Z" fill-rule="evenodd" fill="#656A72" fill-opacity="1"/></g></g></g></svg>