<!-- Copyright (c) 2022 NetEase, Inc. All rights reserved. -->
<!-- Use of this source code is governed by a MIT license that can be -->
<!-- found in the LICENSE file. -->

<svg width="24" height="24" viewBox="0 0 24 24" fill="none" xmlns="http://www.w3.org/2000/svg">
<path d="M1.83984 5.60645H14.6846C15.0134 5.60645 15.329 5.73724 15.5615 5.96973C15.7941 6.2023 15.9248 6.51776 15.9248 6.84668V16.624C15.9247 16.9528 15.794 17.2685 15.5615 17.501C15.329 17.7334 15.0134 17.8643 14.6846 17.8643H1.83984C1.51105 17.8642 1.19539 17.7335 0.962891 17.501C0.730398 17.2685 0.599686 16.9528 0.599609 16.624V6.84668C0.599616 6.51785 0.730419 6.20229 0.962891 5.96973C1.19539 5.73723 1.51105 5.60654 1.83984 5.60645ZM23.3828 5.60352C23.3906 5.63348 23.4004 5.68399 23.4004 5.76465V17.709C23.4004 17.7887 23.3905 17.8392 23.3828 17.8691C23.3695 17.8688 23.3518 17.8716 23.3291 17.8682C23.1014 17.8335 22.7118 17.6372 22.2793 17.2402L22.0918 17.0576L18.7812 13.6504C18.7801 13.6484 18.7789 13.6457 18.7773 13.6426C18.7671 13.6222 18.7535 13.5886 18.7402 13.5439C18.7131 13.4524 18.6963 13.3456 18.6963 13.2539V10.2178C18.6963 10.1274 18.7121 10.0218 18.7393 9.93066C18.7525 9.88617 18.7668 9.85291 18.7773 9.83203C18.7852 9.81646 18.788 9.81412 18.7832 9.82031L22.0918 6.41699C22.5977 5.89658 23.0688 5.64522 23.3291 5.60547C23.3518 5.60201 23.3695 5.6039 23.3828 5.60352Z" stroke="#333333" stroke-width="1.2"/>
</svg>
