<!-- Copyright (c) 2022 NetEase, Inc. All rights reserved. -->
<!-- Use of this source code is governed by a MIT license that can be -->
<!-- found in the LICENSE file. -->

<svg width="24" height="24" viewBox="0 0 24 24" fill="none" xmlns="http://www.w3.org/2000/svg">
<g clip-path="url(#clip0_10021_10628)">
<path d="M2.70078 9.5708C2.11896 10.1526 1.70007 10.7766 1.45333 11.4264C0.691786 13.4259 0.867251 14.3833 1.14952 14.8346C1.38513 15.2156 1.81895 15.4321 2.47346 15.496C3.01478 15.5476 5.75976 15.7603 6.74271 14.8086C7.27409 14.2512 7.27764 13.8346 7.28214 13.3082C7.28522 12.9656 7.28854 12.5796 7.44932 12.1886C7.58547 11.8611 7.76071 11.5093 8.11258 11.1574L8.14668 11.1233C9.94684 9.37901 14.0532 9.37879 15.8526 11.1238C16.2267 11.4856 16.4096 11.8498 16.5509 12.1886C16.7117 12.5796 16.715 12.9656 16.7174 13.3061C16.7217 13.8351 16.7262 14.2512 17.2445 14.7956C18.2398 15.7596 20.9848 15.5483 21.5242 15.4963C22.1922 15.4321 22.6125 15.2182 22.8507 14.8346C23.1321 14.3828 23.3064 13.4243 22.5467 11.4266C22.2881 10.7465 21.842 10.0963 21.2173 9.49151C16.2215 4.65109 7.77869 4.65109 2.78223 9.49081L2.70078 9.5708Z" stroke="#333333" stroke-width="1.2"/>
</g>
<defs>
<clipPath id="clip0_10021_10628">
<rect width="24" height="24" fill="white"/>
</clipPath>
</defs>
</svg>
