<svg xmlns="http://www.w3.org/2000/svg" xmlns:xlink="http://www.w3.org/1999/xlink" fill="none" version="1.1" width="36" height="36" viewBox="0 0 36 36"><g><g><ellipse cx="18" cy="18" rx="18" ry="18" fill="#854FE2" fill-opacity="1"/></g><g><g><rect x="8.5" y="10.5" width="19" height="13" rx="3.5" fill-opacity="0" stroke-opacity="1" stroke="#FFFFFF" fill="none" stroke-width="1"/></g><g><rect x="20" y="14.5" width="2" height="5" rx="1" fill="#FFFFFF" fill-opacity="1"/></g><g><rect x="14" y="14.5" width="2" height="5" rx="1" fill="#FFFFFF" fill-opacity="1"/></g><g><path d="M29,19C29,19.276139999999998,29.223858,19.5,29.5,19.5C29.776142,19.5,30,19.276139999999998,30,19L30,15C30,14.723858,29.776142,14.5,29.5,14.5C29.223858,14.5,29,14.723858,29,15L29,19Z" fill="#FFFFFF" fill-opacity="1"/></g><g><path d="M6,19C6,19.276139999999998,6.223858,19.5,6.5,19.5C6.776142,19.5,7,19.276139999999998,7,19L7,15C7,14.723858,6.776142,14.5,6.5,14.5C6.223858,14.5,6,14.723858,6,15L6,19Z" fill="#FFFFFF" fill-opacity="1"/></g><g transform="matrix(0,-1,1,0,-16,38)"><path d="M11,39.5C11,39.7761,11.223858,40,11.5,40C11.776142,40,12,39.7761,12,39.5L12,27.5C12,27.223858,11.776142,27,11.5,27C11.223858,27,11,27.223858,11,27.5L11,39.5Z" fill="#FFFFFF" fill-opacity="1"/></g></g></g></svg>