<!--
  - Copyright (c) 2022 NetEase, Inc. All rights reserved.
  - Use of this source code is governed by a MIT license that can be
  - found in the LICENSE file.
  -->

<svg width="36" height="36" viewBox="0 0 36 36" fill="none" xmlns="http://www.w3.org/2000/svg">
    <circle cx="18" cy="18" r="18" fill="#537FF4"/>
    <path d="M22.7103 20.7269C22.7401 20.6684 22.7581 20.6046 22.7633 20.5392C22.7684 20.4737 22.7607 20.4079 22.7404 20.3455C22.7201 20.2831 22.6877 20.2252 22.6451 20.1753C22.6025 20.1254 22.5504 20.0844 22.4919 20.0546C21.8905 19.7508 21.2585 19.5116 20.6066 19.3413C22.3278 18.4108 23.4997 16.59 23.4997 14.4993C23.4999 11.4672 21.0325 9 17.9999 9C14.9673 9 12.5 11.4672 12.5 14.5C12.5 16.5819 13.663 18.3968 15.373 19.3306C11.9114 20.2303 9.41847 22.904 9.00339 26.4418C8.98798 26.5735 9.02552 26.706 9.10774 26.81C9.18997 26.914 9.31016 26.9811 9.44187 26.9966C9.46134 26.9989 9.48093 27.0001 9.50055 27C9.623 26.9999 9.74114 26.9548 9.83258 26.8733C9.92401 26.7919 9.98238 26.6797 9.99662 26.5581C10.4497 22.6966 13.7411 19.9999 17.9999 19.9999C19.4285 19.9999 20.8259 20.3269 22.038 20.9452C22.1561 21.0053 22.2932 21.016 22.4193 20.9751C22.5453 20.9341 22.6499 20.8449 22.7103 20.7269ZM13.4999 14.5C13.4999 12.0186 15.5184 10.0001 17.9999 10.0001C20.4813 10.0001 22.4998 12.0186 22.4998 14.5C22.4998 16.9815 20.4813 19 17.9999 19C15.5184 19 13.4999 16.9813 13.4999 14.5ZM19.9998 22.4999C19.9998 22.5655 20.0127 22.6306 20.0378 22.6913C20.0629 22.752 20.0997 22.8071 20.1462 22.8535C20.1926 22.9 20.2478 22.9368 20.3085 22.9619C20.3692 22.987 20.4342 22.9999 20.4999 22.9999H26.4998C26.6324 22.9999 26.7596 22.9472 26.8533 22.8534C26.9471 22.7597 26.9998 22.6325 26.9998 22.4999C26.9998 22.3672 26.9471 22.2401 26.8533 22.1463C26.7596 22.0525 26.6324 21.9998 26.4998 21.9998H20.4999C20.4342 21.9998 20.3692 22.0127 20.3085 22.0378C20.2478 22.0629 20.1926 22.0997 20.1462 22.1462C20.0997 22.1926 20.0629 22.2478 20.0378 22.3085C20.0127 22.3691 19.9998 22.4342 19.9998 22.4999ZM26.4998 23.9998H20.4999C20.3673 23.9998 20.2401 24.0525 20.1463 24.1462C20.0525 24.24 19.9998 24.3672 19.9998 24.4998C19.9998 24.6324 20.0525 24.7596 20.1463 24.8534C20.2401 24.9472 20.3673 24.9999 20.4999 24.9999H26.4998C26.5654 24.9999 26.6304 24.9869 26.6911 24.9618C26.7518 24.9367 26.8069 24.8998 26.8533 24.8534C26.8998 24.807 26.9366 24.7518 26.9617 24.6912C26.9869 24.6305 26.9998 24.5655 26.9998 24.4998C26.9998 24.4342 26.9869 24.3691 26.9617 24.3085C26.9366 24.2478 26.8998 24.1927 26.8533 24.1462C26.8069 24.0998 26.7518 24.063 26.6911 24.0378C26.6304 24.0127 26.5654 23.9998 26.4998 23.9998ZM26.4998 25.9997H20.4999C20.3673 25.9997 20.2401 26.0524 20.1463 26.1462C20.0525 26.24 19.9998 26.3672 19.9998 26.4998C19.9998 26.6324 20.0525 26.7596 20.1463 26.8534C20.2401 26.9471 20.3673 26.9998 20.4999 26.9998H26.4998C26.6324 26.9998 26.7596 26.9471 26.8533 26.8534C26.9471 26.7596 26.9998 26.6324 26.9998 26.4998C26.9998 26.3672 26.9471 26.24 26.8533 26.1462C26.7596 26.0524 26.6324 25.9997 26.4998 25.9997Z" fill="white"/>
</svg>

