<!-- Copyright (c) 2022 NetEase, Inc. All rights reserved. -->
<!-- Use of this source code is governed by a MIT license that can be -->
<!-- found in the LICENSE file. -->

<svg width="98" height="85" viewBox="0 0 98 85" fill="none" xmlns="http://www.w3.org/2000/svg">
<path d="M31.28 77C30.28 77 32.2798 81 32.2798 81L37.2798 80.5C37.2798 80.5 36.7798 79.5 35.2798 80C35.7798 79.5 35.7798 79 35.7798 79C35.7798 78.5 34.7798 78.5 34.7798 78.5C34.7798 78.5 34.2798 76 33.7798 76C33.2798 76 33.2798 78 32.7798 78C32.2798 78 32.28 77 31.28 77Z" fill="black"/>
<path d="M77.1441 10.1809C77.6781 9.83363 79.5478 8.5526 80.2308 7.22236C80.2717 7.1426 80.394 7.14319 80.4327 7.22406C81.0776 8.5715 82.5267 9.86813 82.9071 10.1944C82.9551 10.2355 82.955 10.3098 82.9066 10.3504C82.5207 10.6737 81.0418 11.9406 80.4095 12.8815C80.371 12.9387 80.2876 12.944 80.2431 12.8913C79.1346 11.5793 77.6238 10.6368 77.149 10.358C77.0828 10.3191 77.0797 10.2228 77.1441 10.1809Z" fill="#FECD2E"/>
<path d="M77.1104 8.91404C77.5055 8.59972 78.8546 7.46895 79.3903 6.27911C79.4298 6.19148 79.5683 6.19214 79.6049 6.281C80.1025 7.48931 81.1519 8.63635 81.4307 8.92861C81.4689 8.96857 81.4688 9.03132 81.4302 9.07084C81.1461 9.36186 80.0678 10.4906 79.581 11.3486C79.5431 11.4153 79.4468 11.4206 79.4027 11.3578C78.5768 10.1809 77.4704 9.33589 77.115 9.08051C77.059 9.04024 77.0564 8.95699 77.1104 8.91404Z" stroke="black" stroke-width="0.5" stroke-linecap="round"/>
<path d="M83.1443 14.089C83.5415 13.8266 84.6519 13.0447 85.115 12.2205C85.1589 12.1423 85.284 12.143 85.3248 12.2228C85.7537 13.0613 86.6222 13.8555 86.9072 14.1029C86.9549 14.1443 86.9548 14.2191 86.9065 14.2598C86.6151 14.5056 85.7182 15.2829 85.2995 15.8823C85.26 15.9389 85.1765 15.944 85.1316 15.8917C84.4308 15.0767 83.5052 14.4813 83.1487 14.2679C83.0827 14.2285 83.0802 14.1314 83.1443 14.089Z" fill="#FECD2E"/>
<path d="M83.1104 13.9132C83.4003 13.6789 84.1857 13.0024 84.5505 12.2763C84.5937 12.1905 84.7369 12.1915 84.7761 12.2792C85.1075 13.0203 85.7246 13.7093 85.9308 13.9281C85.9687 13.9683 85.9687 14.0315 85.9302 14.0712C85.7176 14.2903 85.0732 14.9726 84.7496 15.516C84.7103 15.582 84.6133 15.5873 84.5685 15.525C84.049 14.8026 83.3793 14.2751 83.1148 14.0813C83.0591 14.0405 83.0567 13.9565 83.1104 13.9132Z" stroke="black" stroke-width="0.5" stroke-linecap="round"/>
<path d="M19 13.5H17" stroke="black" stroke-width="0.5" stroke-linecap="round"/>
<path d="M20.4999 11.5L18.9883 10.1904" stroke="black" stroke-width="0.5" stroke-linecap="round"/>
<path d="M23 9.5L22.5 8" stroke="black" stroke-width="0.5" stroke-linecap="round"/>
<path d="M34 41.9996C34 49.7568 34 54.3329 32.5 56.9995C46 49.5 70 59.7995 70 56.9995C68 54.4998 67 51.9998 68 42.9996C67.5 38.4996 76 36.9996 76 36.9996C76 36.9996 71 24 61 22.9991C54.5 21.4988 46 21.999 40 22.4996C29.5 23.3755 26 36.4996 26 36.4996C27 36.9996 33.5 38.4996 34 41.9996Z" fill="white"/>
<mask id="mask0_6031_14409" style="mask-type:alpha" maskUnits="userSpaceOnUse" x="26" y="21" width="50" height="37">
<path d="M34 41.9996C34 49.7568 34 54.3329 32.5 56.9995C46 49.5 70 59.7995 70 56.9995C68 54.4998 67 51.9998 68 42.9996C67.5 38.4996 76 36.9996 76 36.9996C76 36.9996 71 24 61 22.9991C54.5 21.4988 46 21.999 40 22.4996C29.5 23.3755 26 36.4996 26 36.4996C27 36.9996 33.5 38.4996 34 41.9996Z" fill="white"/>
</mask>
<g mask="url(#mask0_6031_14409)">
<path d="M29.7263 17.1978C29.7263 17.1978 32.8291 27.0219 43.3684 20.5471C46.4424 18.6587 50.5703 15.1265 48.3209 11.3249C46.0716 7.5234 39.287 12.6051 39.287 12.6051" stroke="#6996FD" stroke-width="0.6" stroke-linecap="round"/>
</g>
<path d="M32 41.9996C32 49.7568 32 54.3329 30.5 56.9995C44 49.5 68 59.7995 68 56.9995C66 54.4998 65 51.9998 66 42.9996C65.5 38.4996 74 36.9996 74 36.9996C74 36.9996 69 24 59 22.9991C52.5 21.4988 44 21.999 38 22.4996C27.5 23.3755 24 36.4996 24 36.4996C25 36.9996 31.5 38.4996 32 41.9996Z" stroke="black" stroke-width="0.5"/>
<path d="M48.0001 71.5C48.5001 72.5 49.5 74 51 74C52.0001 74 50.5002 70.5 50.5002 70.5C50.5002 70.5 47.5001 70.5 48.0001 71.5Z" fill="black"/>
<path fill-rule="evenodd" clip-rule="evenodd" d="M64.6298 48.6384C64.6298 48.6384 75.1299 49.6386 75.6298 61.1384C75.6298 65.6386 72 73.5 51 73.5C50.5 72.5 51.1297 69.6384 51.1297 69.6384C51.1297 69.6384 33.1298 72.1386 25.6298 68.6386C15.6299 62.1385 24.1299 51.1384 29.6299 49.1384C37.1299 44.6384 64.6298 48.6384 64.6298 48.6384ZM48.6299 62.6387L36.1299 59.6387C36.1299 59.6387 41.6299 57.6387 49.6299 57.6387C57.6299 57.6387 61.6299 59.6387 61.6299 59.6387L48.6299 62.6387Z" fill="#2A6BF2"/>
<path d="M75.6298 61.1384H75.88L75.8795 61.1275L75.6298 61.1384ZM64.6298 48.6384L64.5937 48.8861L64.6061 48.8873L64.6298 48.6384ZM51 73.5L50.7764 73.6118L50.8455 73.75H51V73.5ZM51.1297 69.6384L51.3739 69.6921L51.4511 69.3414L51.0954 69.3908L51.1297 69.6384ZM25.6298 68.6386L25.4935 68.8482L25.5082 68.8577L25.524 68.8651L25.6298 68.6386ZM29.6299 49.1384L29.7153 49.3733L29.7379 49.3651L29.7585 49.3527L29.6299 49.1384ZM36.1299 59.6387L36.0444 59.4037L35.2633 59.6878L36.0715 59.8818L36.1299 59.6387ZM48.6299 62.6387L48.5715 62.8818L48.6288 62.8955L48.6861 62.8823L48.6299 62.6387ZM61.6299 59.6387L61.6861 59.8823L62.3635 59.726L61.7417 59.4151L61.6299 59.6387ZM75.8795 61.1275C75.6256 55.2861 72.824 52.0902 70.0753 50.3643C68.7058 49.5044 67.3538 49.0115 66.3446 48.7334C65.8397 48.5942 65.4196 48.5085 65.1245 48.4575C64.977 48.432 64.8606 48.4151 64.7804 48.4046C64.7403 48.3993 64.7093 48.3956 64.6879 48.3932C64.6773 48.392 64.669 48.3911 64.6632 48.3905C64.6603 48.3902 64.6581 48.39 64.6564 48.3898C64.6556 48.3897 64.655 48.3897 64.6545 48.3896C64.6542 48.3896 64.654 48.3896 64.6539 48.3896C64.6536 48.3895 64.6535 48.3895 64.6298 48.6384C64.6061 48.8873 64.606 48.8873 64.6059 48.8873C64.606 48.8873 64.6059 48.8873 64.606 48.8873C64.6062 48.8873 64.6065 48.8873 64.6069 48.8874C64.6078 48.8874 64.6094 48.8876 64.6115 48.8878C64.6159 48.8883 64.6227 48.889 64.6319 48.89C64.6503 48.8921 64.6783 48.8954 64.7152 48.9003C64.7891 48.91 64.8988 48.9259 65.0393 48.9502C65.3204 48.9988 65.7245 49.0811 66.2118 49.2154C67.1871 49.4842 68.4913 49.9601 69.8094 50.7877C72.4357 52.4368 75.134 55.4908 75.38 61.1493L75.8795 61.1275ZM51 73.75C61.525 73.75 67.7427 71.781 71.3354 69.2101C74.9396 66.6308 75.8798 63.4612 75.8798 61.1384H75.3798C75.3798 63.3158 74.505 66.327 71.0444 68.8035C67.5722 71.2882 61.475 73.25 51 73.25V73.75ZM51.1297 69.6384C50.8856 69.5847 50.8856 69.5847 50.8856 69.5848C50.8856 69.5848 50.8855 69.5849 50.8855 69.5849C50.8855 69.585 50.8855 69.5852 50.8854 69.5854C50.8853 69.5858 50.8852 69.5864 50.885 69.5872C50.8847 69.5887 50.8842 69.591 50.8836 69.5938C50.8823 69.5996 50.8805 69.608 50.8782 69.619C50.8736 69.6409 50.8669 69.6728 50.8586 69.7137C50.8421 69.7954 50.8191 69.9128 50.7931 70.0568C50.7413 70.3443 50.6772 70.7389 50.629 71.1661C50.5808 71.5924 50.5477 72.0566 50.5594 72.4816C50.5709 72.8988 50.6259 73.3109 50.7764 73.6118L51.2236 73.3882C51.124 73.1891 51.0703 72.8685 51.0592 72.4679C51.0484 72.0751 51.079 71.6364 51.1258 71.2223C51.1725 70.8091 51.2346 70.4258 51.2852 70.1455C51.3104 70.0056 51.3328 69.8916 51.3487 69.8129C51.3567 69.7736 51.363 69.7431 51.3674 69.7226C51.3695 69.7123 51.3712 69.7046 51.3723 69.6994C51.3729 69.6969 51.3733 69.695 51.3736 69.6937C51.3737 69.6931 51.3738 69.6927 51.3738 69.6924C51.3739 69.6923 51.3739 69.6922 51.3739 69.6921C51.3739 69.6921 51.3739 69.6921 51.3739 69.6921C51.3739 69.6921 51.3739 69.6921 51.1297 69.6384ZM25.524 68.8651C27.4377 69.7582 30.0026 70.2615 32.7548 70.5203C35.5114 70.7794 38.476 70.7948 41.2009 70.7008C43.9265 70.6068 46.4164 70.4032 48.2248 70.2231C49.1292 70.1331 49.8634 70.0489 50.3718 69.9872C50.626 69.9563 50.8238 69.9311 50.9581 69.9135C51.0253 69.9047 51.0767 69.8979 51.1113 69.8932C51.1286 69.8909 51.1417 69.8891 51.1506 69.8879C51.155 69.8873 51.1584 69.8868 51.1606 69.8865C51.1618 69.8864 51.1626 69.8862 51.1632 69.8862C51.1635 69.8861 51.1637 69.8861 51.1639 69.8861C51.164 69.886 51.1641 69.886 51.1297 69.6384C51.0954 69.3908 51.0953 69.3908 51.0952 69.3908C51.0951 69.3908 51.0949 69.3908 51.0947 69.3909C51.0941 69.3909 51.0934 69.3911 51.0923 69.3912C51.0902 69.3915 51.087 69.3919 51.0828 69.3925C51.0742 69.3937 51.0614 69.3954 51.0445 69.3977C51.0105 69.4023 50.9599 69.409 50.8934 69.4177C50.7604 69.4351 50.5642 69.4601 50.3115 69.4908C49.8063 69.5522 49.0756 69.6359 48.1753 69.7256C46.3743 69.9049 43.8956 70.1076 41.1837 70.2011C38.471 70.2947 35.5294 70.2789 32.8016 70.0225C30.0694 69.7656 27.5718 69.269 25.7355 68.412L25.524 68.8651ZM29.5444 48.9034C28.1256 49.4194 26.5331 50.5066 25.1015 51.9382C23.6682 53.3715 22.3819 55.1642 21.586 57.1061C20.79 59.0485 20.4801 61.1523 21.021 63.1947C21.5629 65.2411 22.9508 67.1954 25.4935 68.8482L25.766 68.429C23.3088 66.8317 22.0092 64.9735 21.5043 63.0667C20.9983 61.156 21.2822 59.1659 22.0487 57.2958C22.8153 55.4252 24.0603 53.6866 25.4551 52.2917C26.8516 50.8952 28.3842 49.8574 29.7153 49.3733L29.5444 48.9034ZM64.6298 48.6384C64.6658 48.391 64.6656 48.391 64.6654 48.391C64.6652 48.3909 64.6648 48.3909 64.6644 48.3908C64.6635 48.3907 64.6622 48.3905 64.6605 48.3902C64.6572 48.3898 64.6521 48.389 64.6454 48.3881C64.632 48.3861 64.6121 48.3833 64.5858 48.3796C64.5333 48.3721 64.4554 48.3611 64.3535 48.3469C64.1496 48.3187 63.85 48.2778 63.466 48.2274C62.6981 48.1267 61.5931 47.9878 60.2438 47.8353C57.5455 47.5303 53.8687 47.1704 49.9563 46.9513C46.0451 46.7323 41.8927 46.6536 38.245 46.9125C34.6097 47.1704 31.4315 47.7659 29.5013 48.924L29.7585 49.3527C31.5783 48.2609 34.6501 47.6688 38.2804 47.4112C41.8983 47.1545 46.0272 47.232 49.9284 47.4505C53.8285 47.6689 57.4954 48.0278 60.1877 48.3321C61.5336 48.4843 62.6356 48.6228 63.401 48.7232C63.7836 48.7734 64.0821 48.8141 64.2847 48.8422C64.3861 48.8563 64.4635 48.8672 64.5155 48.8746C64.5415 48.8783 64.5611 48.8811 64.5742 48.883C64.5808 48.8839 64.5857 48.8846 64.589 48.8851C64.5906 48.8853 64.5918 48.8855 64.5926 48.8856C64.593 48.8857 64.5933 48.8857 64.5935 48.8858C64.5937 48.8858 64.5938 48.8858 64.6298 48.6384ZM36.0715 59.8818L48.5715 62.8818L48.6882 62.3956L36.1882 59.3956L36.0715 59.8818ZM49.6299 57.3887C45.6094 57.3887 42.2169 57.8912 39.8284 58.394C38.634 58.6455 37.6902 58.8971 37.044 59.0862C36.7209 59.1808 36.4722 59.2598 36.3036 59.3153C36.2193 59.343 36.1551 59.3649 36.1117 59.38C36.09 59.3875 36.0734 59.3934 36.0622 59.3974C36.0566 59.3994 36.0523 59.4009 36.0493 59.402C36.0478 59.4025 36.0467 59.4029 36.0459 59.4032C36.0455 59.4034 36.0452 59.4035 36.0449 59.4036C36.0448 59.4036 36.0447 59.4036 36.0446 59.4037C36.0445 59.4037 36.0444 59.4037 36.1299 59.6387C36.2153 59.8736 36.2153 59.8736 36.2153 59.8736C36.2153 59.8736 36.2153 59.8736 36.2154 59.8736C36.2155 59.8736 36.2156 59.8735 36.2159 59.8734C36.2164 59.8732 36.2173 59.8729 36.2185 59.8725C36.2209 59.8716 36.2246 59.8703 36.2296 59.8685C36.2397 59.8649 36.255 59.8595 36.2755 59.8524C36.3166 59.8382 36.3783 59.8171 36.4601 59.7902C36.6235 59.7363 36.867 59.659 37.1845 59.5661C37.8195 59.3802 38.7508 59.1319 39.9314 58.8833C42.2929 58.3861 45.6504 57.8887 49.6299 57.8887V57.3887ZM61.6299 59.6387C61.7417 59.4151 61.7416 59.415 61.7415 59.415C61.7414 59.4149 61.7413 59.4149 61.7412 59.4148C61.7409 59.4147 61.7406 59.4145 61.7403 59.4144C61.7395 59.414 61.7386 59.4135 61.7374 59.4129C61.7349 59.4117 61.7315 59.4101 61.7271 59.4079C61.7184 59.4037 61.7057 59.3976 61.6891 59.3898C61.6559 59.3743 61.6071 59.3519 61.5426 59.3237C61.4136 59.2673 61.2219 59.1874 60.9677 59.0921C60.4591 58.9014 59.7 58.6485 58.6905 58.3961C56.6713 57.8913 53.6509 57.3887 49.6299 57.3887V57.8887C53.6088 57.8887 56.5885 58.386 58.5692 58.8812C59.5597 59.1288 60.3007 59.376 60.7921 59.5603C61.0378 59.6524 61.2212 59.7288 61.3422 59.7818C61.4027 59.8082 61.4476 59.8288 61.4769 59.8426C61.4916 59.8494 61.5023 59.8546 61.5092 59.8579C61.5126 59.8596 61.5151 59.8608 61.5166 59.8615C61.5173 59.8619 61.5178 59.8621 61.518 59.8623C61.5182 59.8623 61.5182 59.8624 61.5182 59.8624C61.5182 59.8624 61.5182 59.8623 61.5182 59.8623C61.5182 59.8623 61.5181 59.8623 61.6299 59.6387ZM48.6861 62.8823L61.6861 59.8823L61.5737 59.3951L48.5737 62.3951L48.6861 62.8823Z" fill="black"/>
<mask id="mask1_6031_14409" style="mask-type:alpha" maskUnits="userSpaceOnUse" x="21" y="47" width="55" height="27">
<path fill-rule="evenodd" clip-rule="evenodd" d="M64.6298 48.6386C64.6298 48.6386 75.1299 49.6388 75.6298 61.1386C75.6298 65.6388 72 73.5002 51 73.5002C50.5 72.5002 51.1297 69.6386 51.1297 69.6386C51.1297 69.6386 33.1298 72.1388 25.6298 68.6388C15.6299 62.1388 24.1299 51.1386 29.6299 49.1386C37.1299 44.6387 64.6298 48.6386 64.6298 48.6386ZM48.6299 62.6389L36.1299 59.6389C36.1299 59.6389 41.6299 57.6389 49.6299 57.6389C57.6299 57.6389 61.6299 59.6389 61.6299 59.6389L48.6299 62.6389Z" fill="#2A6BF2"/>
</mask>
<g mask="url(#mask1_6031_14409)">
<path d="M15.1674 46.3167C15.1674 46.3167 24.5843 44.2351 26.2452 57.5951C26.4719 63.1807 21.9794 68.2864 27.9062 70.9552C34.2436 72.7122 30.9403 62.9994 29.0713 61.0611C27.2024 59.1228 23.8752 57.6246 19.8145 64.5698C15.0431 72.7303 22.6082 85.0586 22.6082 85.0586" stroke="#6996FD" stroke-width="0.566846" stroke-linecap="round"/>
<path d="M64.4999 48.4886C64.4999 48.4886 62.4258 53.2233 58.267 51.5072C56.6053 50.6537 55.86 48.5068 54.1083 49.7911C52.5541 51.3449 55.9225 51.983 56.7938 51.7586C57.6652 51.5341 58.6485 50.8131 57.2972 48.489C55.7093 45.7581 50.8788 45.9289 50.8788 45.9289" stroke="#6996FD" stroke-width="0.566846" stroke-linecap="round"/>
<path d="M68.6278 38.2618C68.6278 38.2618 79.3235 38.5827 74.0665 50.9768C71.4638 55.9241 65.0177 58.0915 68.8095 63.3709C73.4135 68.0669 85.2018 63.9094 82.6688 50.9544C71.715 63.1308 72.0007 49.8147 65.0065 53.7903C56.7883 58.4616 63.6041 73.2655 63.6041 73.2655" stroke="#6996FD" stroke-width="0.566846" stroke-linecap="round"/>
<path d="M31.7282 49.2542C31.7282 49.2542 41.1451 44.1725 42.806 57.5326C43.0326 63.1182 38.5402 68.2238 44.467 70.8927C50.8044 72.6497 49.6901 61.729 45.6321 60.9986C41.5742 60.2682 38.063 61.9769 36.6472 71.2098C31.8759 79.3703 43.6191 88.6064 43.6191 88.6064" stroke="#6996FD" stroke-width="0.566846" stroke-linecap="round"/>
</g>
<path d="M53 73.5C53 73.5 54 75.5 55.5 76C57 76.5 58 73 58 73" stroke="black" stroke-width="0.5"/>
<path d="M49.6299 57.6387L49.1299 51.1387" stroke="black" stroke-width="0.5" stroke-linecap="round"/>
<path d="M47.6299 51.6387V54.1387C47.6299 54.6387 47.9299 55.6387 49.1299 55.6387" stroke="black" stroke-width="0.5" stroke-linecap="round"/>
<path d="M67.6299 58.6387L59.6299 60.1387" stroke="black" stroke-width="0.5" stroke-linecap="round"/>
<path d="M36.1299 59.6387L29.6299 58.1387" stroke="black" stroke-width="0.5" stroke-linecap="round"/>
<path d="M44.6298 71.6387C46.1298 71.1387 50.6298 71.1387 51 70.5C52.5 63.6387 50.1298 62.6387 50.1298 62.6387C50.1298 62.6387 47.1299 63.1387 44.6299 63.6387C42.1299 64.1387 39.1299 64.1387 38.6299 66.1387C38.1299 68.1387 38.3235 71.1387 38.6297 73.6387C38.986 76.546 41.6298 76.1387 42.1298 74.6387C42.1298 74.6387 43.1298 72.1387 44.6298 71.6387Z" fill="white" stroke="black" stroke-width="0.5"/>
<path d="M89.5254 29.6533C89.5254 29.6533 88.5254 30.6533 89.0254 31.6533C89.5254 32.6533 91.0254 32.1533 91.0254 33.1533C91.0254 34.1533 90.5254 34.6533 90.5254 34.6533" stroke="black" stroke-linecap="round"/>
<path d="M79.5252 46.6533C75.0252 47.6533 72.5252 37.6531 72.5252 37.6531C72.5252 37.6531 65.5254 38.6531 66.0254 42.6531C66.5254 46.6531 72.0254 51.1531 72.0254 51.1531C72.0254 51.1531 78.1504 54.9981 82.5254 52.6531C90.3379 48.4656 91.0251 40.1531 91.5251 37.6531C92.0251 35.1531 93.0254 36.1533 95.5254 34.6533C98.0254 33.1533 96.0254 32.6533 96.0254 32.6533C96.0254 32.6533 98.0256 30.6531 95.0254 31.1531C96.0251 29.1533 94.0251 29.6531 92.5251 30.6531C91.5251 27.6531 89.5254 29.6531 89.5254 29.6531C89.5254 29.6531 88.5252 28.6533 87.0252 30.6531C85.5252 32.6528 85.0252 35.6533 85.0252 35.6533C85.0252 35.6533 84.0252 45.6533 79.5252 46.6533Z" fill="white" stroke="black" stroke-width="0.5"/>
<path d="M75.5254 45.1533C74.0254 45.82 71.4254 47.2533 71.0254 49.6533" stroke="black" stroke-width="0.5" stroke-linecap="round"/>
<path d="M96.0254 32.6533L93.5254 33.6533" stroke="black" stroke-width="0.5" stroke-linecap="round"/>
<path d="M95.0254 31.1533L93.5254 32.1533" stroke="black" stroke-width="0.5" stroke-linecap="round"/>
<path d="M18.2576 46.6533C22.7576 47.6533 25.2576 37.6531 25.2576 37.6531C25.2576 37.6531 32.2573 38.6531 31.7573 42.6531C31.2573 46.6531 25.7573 51.1531 25.7573 51.1531C25.7573 51.1531 19.6323 54.9981 15.2573 52.6531C7.44485 48.4656 6.75757 40.1531 6.25757 37.6531C5.75757 35.1531 4.75732 36.1533 2.25732 34.6533C-0.242676 33.1533 1.75735 32.6533 1.75735 32.6533C1.75735 32.6533 -0.242868 30.6531 2.75735 31.1531C1.75757 29.1533 3.75757 29.6531 5.25757 30.6531C6.25757 27.6531 8.25735 29.6531 8.25735 29.6531C8.25735 29.6531 9.25756 28.6533 10.7576 30.6531C12.2576 32.6528 12.7576 35.6533 12.7576 35.6533C12.7576 35.6533 13.7576 45.6533 18.2576 46.6533Z" fill="white" stroke="black" stroke-width="0.5"/>
<path d="M8.25732 29.6533C8.25732 29.6533 9.25732 30.6533 8.75732 31.6533C8.25732 32.6533 6.75732 32.1533 6.75732 33.1533C6.75732 34.1533 7.25732 34.6533 7.25732 34.6533" stroke="black" stroke-width="0.5" stroke-linecap="round"/>
<path d="M89.5 29.5C89.5 29.5 88.5 30.5 89 31.5C89.5 32.5 91 32 91 33C91 34 90.5 34.5 90.5 34.5" stroke="black" stroke-width="0.5" stroke-linecap="round"/>
<path d="M22.2573 45.1533C23.7573 45.82 26.3573 47.2533 26.7573 49.6533" stroke="black" stroke-width="0.5" stroke-linecap="round"/>
<path d="M1.75732 32.6533L4.25732 33.6533" stroke="black" stroke-width="0.5" stroke-linecap="round"/>
<path d="M2.75732 31.1533L4.25732 32.1533" stroke="black" stroke-width="0.5" stroke-linecap="round"/>
<path d="M45.397 22.2996L45.6783 18.2197H52.4312L52.7126 22.2996" stroke="black" stroke-width="0.5"/>
<path d="M45.5376 19.7666C48.4076 21.1735 51.9088 19.0737 52.3074 18.1593L49.8285 17.375L45.7486 17.586L45.5376 19.7666Z" fill="black"/>
<path d="M41.6688 10.3416C41.8376 10.2853 42.1143 9.75538 42.2316 9.49745L43.0053 6.05067L44.7639 4.22177L51.3058 4.01074L55.3153 6.33204L56.0187 9.28643C56.1828 9.35677 56.6518 9.82103 56.9331 10.834C57.2849 12.1001 56.1594 12.5925 55.5966 12.7332C55.456 13.929 55.0339 15.6876 53.7677 17.1648C52.5016 18.642 49.1251 19.9785 45.819 18.3606C43.2631 17.1098 42.5833 14.1166 42.5833 12.7332C40.8247 12.5222 40.9654 11.1153 41.0357 10.834C41.1061 10.6698 41.3312 10.3416 41.6688 10.3416Z" fill="white" stroke="black" stroke-width="0.5"/>
<path d="M51.5 15.5C51 16 50.5 16 50 16" stroke="black" stroke-width="0.5" stroke-linecap="round"/>
<path d="M44.2713 2.25096C46.9444 0.351712 49.1953 0 51.2352 0C53.2751 0 53.9146 0.436295 54.5413 0.773767C55.4558 1.26616 55.0337 1.68822 54.5413 1.61787C54.0489 1.54753 52.431 0.91445 54.2599 2.25096C56.0888 3.58746 56.5812 6.11979 56.8626 7.73767C57.144 9.35554 56.6516 10.4107 56.5109 10.27C56.3702 10.1293 55.8778 10.059 55.7371 10.4107C55.5964 10.7624 55.5261 11.7472 55.1744 11.1844C54.8227 10.6217 55.0337 8.23006 55.0337 7.52664C55.0337 6.82322 54.8227 6.9639 53.0641 7.17493C51.6573 7.34375 49.4298 6.49495 48.4919 6.04945C49.1953 6.89356 48.4919 7.38595 47.8588 7.17493C47.3523 7.00611 45.9126 5.51016 45.2561 4.78328C44.7637 5.15844 43.5257 6.162 43.3569 7.17493C43.1459 8.44109 43.7036 10.603 43.1459 10.7624C42.6535 10.9031 42.7942 10.27 42.3018 10.3403C41.9078 10.3966 41.7066 10.1997 41.6687 9.91828C41.1763 6.26048 41.5472 4.18653 44.2713 2.25096Z" fill="black"/>
<path d="M48.5627 10.3408C48.5627 10.7629 48.2109 11.4373 47.9999 12C47.7889 12.5627 47.3668 14.251 49.4771 13.4068" stroke="black" stroke-width="0.5" stroke-linecap="round" stroke-linejoin="round"/>
<path d="M32 43L36.5 32.5" stroke="black" stroke-width="0.5" stroke-linecap="round"/>
<path d="M65.7153 42.606L60.5002 33.4992" stroke="black" stroke-width="0.5" stroke-linecap="round"/>
<ellipse cx="49.5" cy="82.5" rx="25.5" ry="2.5" fill="black"/>
</svg>
